SplineFontDB: 3.2
FontName: Yokogana-Russkopis
FullName: Yokogana Russkopis
FamilyName: Yokogana-Russkopis
Weight: Normal
Copyright: KawaneRio (c) 2022\nMihailJP (c) 2011\nGeorge Douros; 2010\nAndrey V. Panov (C) 2005

StartChar: .notdef
Encoding: 65536 -1 0
Width: 500
Flags: MW
HStem: 0 50<100 400 100 450> 483 50<100 400 100 100>
VStem: 50 50<50 50 50 483> 400 50<50 483 483 483>
LayerCount: 2
Fore
SplineSet
50 0 m 1
 50 533 l 1
 450 533 l 1
 450 0 l 1
 50 0 l 1
100 50 m 1
 400 50 l 1
 400 483 l 1
 100 483 l 1
 100 50 l 1
EndSplineSet
Validated: 1
EndChar

StartChar: exclam
Encoding: 33 33 2
Width: 226
GlyphClass: 2
Flags: MW
HStem: 0 106<127 132>
VStem: 74 109<47.5 60> 159 34<196 207> 258 110<652 690>
LayerCount: 2
Fore
SplineSet
74 41 m 0xd0
 74 79 112 106 142 106 c 0
 167 106 183 87 183 65 c 0
 183 30 148 0 116 0 c 0
 93 0 74 17 74 41 c 0xd0
159 200 m 0xb0
 159 204 159 208 160 211 c 2
 258 652 l 2
 271 711 312 716 327 716 c 0
 349 716 368 702 368 678 c 0
 368 667 365 656 360 646 c 2
 193 207 l 2
 190 198 185 187 172 187 c 0
 163 187 159 192 159 200 c 0xb0
EndSplineSet
Validated: 1
EndChar

StartChar: quotedbl
Encoding: 34 34 3
Width: 430
GlyphClass: 2
Flags: MW
HStem: 685 20G<338 354 496.5 508.5>
VStem: 232 24<352 352> 388 25
LayerCount: 2
Fore
SplineSet
232 352 m 0
 232 356 295 663 301 675 c 0
 310 692 328 705 348 705 c 0
 360 705 380 698 380 674 c 0
 380 658 257 354 256 353 c 0
 254 347 250 338 242 338 c 0
 238 338 231 341 232 352 c 0
388 353 m 0
 388 358 450 664 456 675 c 0
 467 700 491 705 502 705 c 0
 515 705 534 699 534 673 c 0
 534 657 531 656 413 357 c 0
 411 351 406 338 397 338 c 0
 392 338 387 342 388 353 c 0
EndSplineSet
Validated: 1
EndChar

StartChar: numbersign
Encoding: 35 35 4
Width: 737
GlyphClass: 2
Flags: MW
HStem: 142 22<100.5 274 109 261 300 479 109 286 518 719> 336 22<167 169 169 369 167 394 407 588 626 778>
LayerCount: 2
Fore
SplineSet
84 152 m 0
 84 164 98 164 109 164 c 2
 274 164 l 1
 369 336 l 1
 169 336 l 2
 158 336 143 336 143 346 c 0
 143 358 156 358 167 358 c 2
 382 358 l 1
 394 382 553 669 560 679 c 0
 562 685 567 692 574 692 c 0
 583 692 587 684 579 669 c 2
 407 358 l 1
 601 358 l 1
 613 382 772 669 778 679 c 0
 781 685 786 692 793 692 c 0
 802 692 805 684 797 669 c 2
 626 358 l 1
 780 358 l 2
 791 358 802 357 802 348 c 0
 802 336 788 336 778 336 c 2
 613 336 l 1
 518 164 l 1
 719 164 l 2
 730 164 745 164 744 153 c 0
 743 142 730 142 719 142 c 2
 504 142 l 1
 340 -157 l 2
 331 -172 323 -192 312 -192 c 0
 306 -192 304 -189 304 -184 c 0
 304 -168 329 -131 340 -110 c 2
 479 142 l 1
 286 142 l 1
 122 -157 l 2
 113 -172 104 -192 94 -192 c 0
 87 -192 85 -189 85 -184 c 0
 86 -171 103 -143 121 -110 c 2
 261 142 l 1
 106 142 l 2
 95 142 84 143 84 152 c 0
300 164 m 1
 493 164 l 1
 588 336 l 1
 394 336 l 1
 300 164 l 1
EndSplineSet
Validated: 1
EndChar

StartChar: dollar
Encoding: 36 36 5
Width: 430
GlyphClass: 2
Flags: MW
HStem: -10 30 143 79<117.5 118 112 149.5> 486 79<493.5 530> 674 31
VStem: 79 32<79 119.5 79 138.5> 183 58<460.5 510.5> 403 58<197.5 259.5> 530 32<565 623.5 585.5 596.5>
LayerCount: 2
Fore
SplineSet
79 113 m 0
 79 164 94 222 141 222 c 0
 158 222 173 211 173 193 c 0
 173 169 152 143 118 143 c 2
 112 143 l 1
 112 127 l 2
 112 124 111 121 111 118 c 0
 111 40 166 24 205 20 c 1
 297 324 l 1
 273 331 183 351 183 458 c 0
 183 563 273 690 412 705 c 1
 421 734 423 749 438 749 c 0
 448 749 452 744 452 737 c 0
 452 728 446 714 443 705 c 1
 514 699 562 660 562 587 c 0
 562 584 561 581 561 578 c 0
 557 499 524 486 502 486 c 0
 485 486 470 496 470 516 c 0
 470 538 488 565 524 565 c 2
 530 565 l 1
 530 579 l 2
 530 614 520 666 434 674 c 1
 351 398 l 1
 378 390 461 370 461 260 c 0
 461 135 357 5 226 -11 c 1
 218 -40 215 -55 200 -55 c 0
 190 -55 187 -50 187 -43 c 0
 187 -33 192 -20 195 -10 c 1
 119 -4 79 42 79 113 c 0
237 21 m 1
 325 36 403 128 403 219 c 0
 403 300 337 312 326 315 c 1
 237 21 l 1
241 499 m 0
 241 422 311 409 321 407 c 1
 402 673 l 1
 303 656 241 571 241 499 c 0
EndSplineSet
Validated: 1
EndChar

StartChar: percent
Encoding: 37 37 6
Width: 737
GlyphClass: 2
Flags: MW
HStem: -55 22<551 601 551 610> 324 23<637.5 694.5> 347 23<265 314 265 327> 621 22<599 600 600 623.5> 727 23<352 407.5>
VStem: 189 50<432.5 485 421 537.5> 441 30<580.5 640.5 576.5 666.5> 476 49<21.5 78.5 21.5 128.5> 728 30<177.5 264.5>
LayerCount: 2
Fore
SplineSet
103 -36 m 0xbf80
 103 -24 110 -21 142 16 c 2
 724 651 l 1
 689 635 648 621 599 621 c 0
 553 621 510 632 470 663 c 1
 471 654 471 645 471 636 c 0
 471 517 378 347 276 347 c 0
 223 347 189 397 189 468 c 0
 189 607 301 750 393 750 c 0
 441 750 449 713 479 686 c 0
 511 657 555 643 599 643 c 2
 600 643 l 2
 669 643 743 677 790 723 c 0
 798 731 811 749 824 749 c 0
 833 749 842 742 842 731 c 0
 842 717 825 704 675 540 c 2
 147 -38 l 2
 140 -45 131 -54 121 -54 c 0
 109 -54 103 -46 103 -36 c 0xbf80
239 439 m 0
 239 403 250 370 280 370 c 0
 348 370 441 520 441 641 c 0
 441 692 423 727 392 727 c 0
 312 727 239 531 239 439 c 0
476 65 m 0
 476 192 581 347 680 347 c 0xdf80
 728 347 758 304 758 236 c 0
 758 102 656 -55 564 -55 c 0
 528 -55 476 -28 476 65 c 0
525 37 m 0
 525 6 534 -33 568 -33 c 0
 634 -33 728 117 728 238 c 0
 728 291 710 324 679 324 c 0
 596 324 525 120 525 37 c 0
EndSplineSet
Validated: 1
EndChar

StartChar: ampersand
Encoding: 38 38 7
Width: 685
GlyphClass: 2
Flags: MW
HStem: -22 23<294.5 470.5 294.5 477> 242 46<497 538.5> 309 23<295.5 330.5 295.5 336.5> 438 23<350 351 351 358.5> 522 80<453 490> 694 22<401.5 432>
VStem: 94 75<109.5 169.5 96.5 204> 380 30<390 416.5> 465 31<307.5 311 307.5 353.5> 490 30<602 604 604 641.5 575.5 642> 678 32<322 348.5> 717 80<645 660.5>
LayerCount: 2
Fore
SplineSet
94 166 m 0xffb0
 94 242 142 329 202 388 c 1
 198 398 194 416 194 443 c 0
 194 575 311 716 421 716 c 0
 481 716 520 673 520 610 c 0
 520 541 485 522 462 522 c 0
 444 522 431 534 431 552 c 0
 431 575 452 602 484 602 c 2
 490 602 l 1
 490 604 l 2xff70
 490 680 445 694 419 694 c 0
 384 694 351 666 328 638 c 0
 275 572 253 457 250 427 c 1
 276 443 311 461 350 461 c 2
 351 461 l 2
 387 461 410 438 410 405 c 0
 410 357 364 309 309 309 c 0
 273 309 249 324 230 341 c 1
 187 263 169 193 169 146 c 0
 169 47 246 1 343 1 c 0
 598 1 672 221 677 309 c 0
 677 313 678 318 678 322 c 0
 678 375 659 409 632 448 c 1
 558 403 499 372 496 311 c 0
 496 304 496 296 497 288 c 1
 498 288 l 1
 509 310 526 319 544 319 c 0
 561 319 575 308 575 290 c 0
 575 267 553 242 524 242 c 0
 489 242 465 270 465 307 c 0
 465 400 573 441 637 486 c 0
 685 519 722 562 749 616 c 1
 721 619 717 635 717 646 c 0
 717 675 744 694 765 694 c 0
 782 694 797 682 797 664 c 0
 797 626 743 528 659 466 c 1
 687 430 710 383 710 324 c 0
 710 320 709 315 709 311 c 0
 703 206 615 -22 339 -22 c 0
 198 -22 94 53 94 166 c 0xffb0
258 376 m 0
 258 360 280 332 311 332 c 0
 350 332 380 373 380 407 c 0
 380 426 368 438 349 438 c 0
 306 438 258 389 258 376 c 0
EndSplineSet
Validated: 1
EndChar

StartChar: quotesingle
Encoding: 39 39 8
Width: 226
GlyphClass: 2
Flags: MW
HStem: 685 20G<309 329>
VStem: 208 25
LayerCount: 2
Fore
SplineSet
208 353 m 0
 208 356 270 663 276 675 c 0
 280 683 296 705 322 705 c 0
 336 705 355 699 355 674 c 0
 355 658 353 659 233 357 c 0
 231 351 227 338 217 338 c 0
 213 338 207 341 208 353 c 0
EndSplineSet
Validated: 1
EndChar

StartChar: parenleft
Encoding: 40 40 9
Width: 328
GlyphClass: 2
Flags: MW
VStem: 113 48<17 31 -90 46 -90 46>
LayerCount: 2
Fore
SplineSet
113 17 m 2
 113 46 l 1
 124 261 246 571 482 738 c 0
 488 742 496 748 503 748 c 0
 508 748 513 747 513 741 c 0
 513 715 330 634 213 266 c 0
 187 185 161 84 161 -22 c 0
 161 -158 209 -220 215 -232 c 0
 219 -241 214 -248 206 -248 c 0
 187 -248 113 -147 113 17 c 2
EndSplineSet
Validated: 1
EndChar

StartChar: parenright
Encoding: 41 41 10
Width: 328
GlyphClass: 2
Flags: MW
VStem: 318 48<472.5 532 444 551>
LayerCount: 2
Fore
SplineSet
-35 -240 m 0
 -35 -223 12 -209 93 -106 c 0
 177 0 232 124 271 251 c 0
 297 339 318 423 318 522 c 0
 318 580 308 639 285 691 c 2
 273 715 l 2
 271 718 262 731 262 740 c 0
 262 745 264 748 272 748 c 0
 277 748 283 743 287 739 c 0
 339 679 366 578 366 486 c 0
 366 402 352 333 330 258 c 0
 269 51 151 -130 -7 -240 c 0
 -12 -244 -18 -248 -25 -248 c 0
 -30 -248 -35 -245 -35 -240 c 0
EndSplineSet
Validated: 1
EndChar

StartChar: asterisk
Encoding: 42 42 11
Width: 430
GlyphClass: 2
Flags: MW
VStem: 293 46
LayerCount: 2
Fore
SplineSet
178 435 m 0
 178 456 203 465 210 469 c 2
 355 535 l 1
 243 605 234 608 234 622 c 0
 234 639 253 653 267 653 c 0
 281 653 291 637 371 557 c 1
 405 714 405 749 440 749 c 0
 446 749 460 745 459 730 c 0
 458 714 432 661 395 557 c 1
 531 643 543 653 556 653 c 0
 567 653 574 645 574 635 c 0
 574 614 549 604 542 601 c 2
 398 535 l 1
 509 465 517 462 517 449 c 0
 517 432 500 416 485 416 c 0
 471 416 461 432 381 513 c 1
 349 369 347 345 339 335 c 0
 333 327 322 320 312 320 c 0
 306 320 292 324 293 339 c 0
 294 356 319 408 358 513 c 1
 221 427 209 416 197 416 c 0
 187 416 178 424 178 435 c 0
EndSplineSet
Validated: 1
EndChar

StartChar: plus
Encoding: 43 43 12
Width: 685
GlyphClass: 2
Flags: MW
HStem: 239 22<147 411 150 404 434 689 150 427>
LayerCount: 2
Fore
SplineSet
114 249 m 0
 114 260 127 262 138 262 c 0
 142 262 147 261 150 261 c 2
 411 261 l 1
 411 261 490 528 495 542 c 0
 497 547 502 554 508 554 c 0
 515 554 518 549 518 543 c 0
 518 534 512 521 511 517 c 2
 434 261 l 1
 689 261 l 2
 693 261 697 262 701 262 c 0
 712 262 723 260 723 251 c 0
 723 240 710 239 689 239 c 2
 427 239 l 1
 348 -22 l 2
 342 -41 339 -54 329 -54 c 0
 321 -54 320 -49 320 -42 c 0
 321 -29 377 143 404 239 c 1
 149 239 l 2
 145 239 140 238 135 238 c 0
 124 238 114 240 114 249 c 0
EndSplineSet
Validated: 1
EndChar

StartChar: comma
Encoding: 44 44 13
Width: 226
GlyphClass: 2
Flags: MW
HStem: 0 106<103 151>
VStem: 74 111<27.5 55.5>
LayerCount: 2
Fore
SplineSet
23 -183 m 0
 23 -165 121 -117 157 15 c 1
 136 1 124 0 116 0 c 0
 90 0 74 16 74 39 c 0
 74 72 106 106 142 106 c 0
 160 106 185 96 185 53 c 0
 185 -64 55 -192 33 -192 c 0
 28 -192 23 -189 23 -183 c 0
EndSplineSet
Validated: 1
EndChar

StartChar: hyphen
Encoding: 45 45 14
Width: 277
GlyphClass: 2
Flags: MW
HStem: 187 56<72.5 288 89 278>
VStem: 57 252<194 236>
LayerCount: 2
Fore
SplineSet
57 200 m 0
 57 204 62 237 76 241 c 0
 80 243 84 243 89 243 c 2
 288 243 l 2
 300 243 309 242 309 230 c 0
 309 227 305 196 293 190 c 0
 288 187 283 187 278 187 c 2
 78 187 l 2
 67 187 57 188 57 200 c 0
EndSplineSet
Validated: 1
EndChar

StartChar: period
Encoding: 46 46 15
Width: 226
GlyphClass: 2
Flags: MW
HStem: 0 106<124.5 132>
VStem: 74 108<49 56>
LayerCount: 2
Fore
SplineSet
74 40 m 0
 74 72 107 106 142 106 c 0
 167 106 182 87 182 65 c 0
 182 33 149 0 115 0 c 0
 92 0 74 16 74 40 c 0
EndSplineSet
Validated: 1
EndChar

StartChar: slash
Encoding: 47 47 16
Width: 430
GlyphClass: 2
Flags: W
LayerCount: 2
Fore
SplineSet
-34 -239 m 0
 -34 -232 -28 -223 -24 -217 c 2
 567 700 l 2
 583 725 594 748 605 748 c 0
 611 748 615 744 615 738 c 0
 615 732 610 726 607 721 c 2
 16 -196 l 2
 -18 -247 -18 -248 -26 -248 c 0
 -31 -248 -34 -245 -34 -239 c 0
EndSplineSet
Validated: 1
EndChar

StartChar: zero
Encoding: 48 48 17
Width: 430
GlyphClass: 2
Flags: MW
HStem: -17 18<197.5 241> 329 18<294 341.5>
VStem: 60 69<47.5 72.5 36.5 96> 409 67<256 281.5 210 293.5>
LayerCount: 2
Fore
SplineSet
60 90 m 0
 60 102 61 120 69 148 c 0
 121 330 260 347 328 347 c 0
 399 347 476 325 476 238 c 0
 476 182 443 75 360 22 c 0
 323 -1 273 -17 209 -17 c 0
 137 -17 60 5 60 90 c 0
129 62 m 0
 129 11 180 1 215 1 c 0
 335 1 360 92 385 169 c 0
 396 200 409 242 409 270 c 0
 409 317 361 329 322 329 c 0
 200 329 177 240 155 171 c 0
 134 107 129 83 129 62 c 0
EndSplineSet
Validated: 1
EndChar

StartChar: one
Encoding: 49 49 18
Width: 430
GlyphClass: 2
Flags: MW
HStem: 1 23<101 106 106 115.5> 290 24<180.5 209>
VStem: 78 297<10.5 16.5>
LayerCount: 2
Fore
SplineSet
78 10 m 0
 78 23 91 24 101 24 c 2
 106 24 l 2
 198 24 197 29 212 73 c 2
 286 300 l 1
 248 293 208 290 188 290 c 0
 173 290 167 294 167 300 c 0
 167 313 184 314 198 314 c 2
 209 314 l 1
 308 319 340 345 354 345 c 0
 363 345 365 341 365 336 c 0
 365 330 361 321 360 316 c 2
 274 54 l 2
 273 49 272 44 272 41 c 0
 272 27 285 24 349 24 c 2
 353 24 l 2
 363 24 375 23 375 13 c 0
 375 8 372 0 354 0 c 0
 341 0 302 2 224 2 c 0
 163 2 126 1 105 1 c 0
 83 1 78 2 78 10 c 0
EndSplineSet
Validated: 1
EndChar

StartChar: two
Encoding: 50 50 19
Width: 430
GlyphClass: 2
Flags: MW
HStem: -17 54<298.5 351.5 298.5 359.5> 29 18<131 155.5 131 157> 177 18<161.5 184 161.5 187> 329 18<257 317.5>
VStem: 111 30<212 243.5 212 247> 229 23<231 250.5> 396 75<224 278.5 224 291.5>
LayerCount: 2
Fore
SplineSet
44 -7 m 0xbe
 44 16 93 81 185 119 c 0
 257 149 396 168 396 266 c 0
 396 317 336 329 299 329 c 0
 215 329 141 266 141 221 c 0
 141 203 153 195 170 195 c 0
 198 195 229 218 229 244 c 0
 229 257 219 267 219 274 c 0
 219 279 225 282 229 282 c 0
 240 282 252 263 252 244 c 0
 252 206 207 177 167 177 c 0
 133 177 111 196 111 222 c 0
 111 272 189 347 302 347 c 0
 395 347 471 308 471 249 c 0
 471 199 418 168 275 125 c 0
 215 106 167 95 113 46 c 1
 120 47 127 47 135 47 c 0x7e
 176 47 278 37 319 37 c 0
 384 37 414 63 423 74 c 0
 430 82 430 93 446 93 c 0
 453 93 460 90 460 83 c 0
 460 65 407 -17 312 -17 c 0xbe
 243 -17 183 29 131 29 c 0x7e
 127 29 122 29 117 28 c 0
 76 20 82 -17 58 -17 c 0
 50 -17 44 -14 44 -7 c 0xbe
EndSplineSet
Validated: 1
EndChar

StartChar: three
Encoding: 51 51 20
Width: 430
GlyphClass: 2
Flags: MW
HStem: -212 18<114.5 167 114.5 200.5> -113 67<36 67.5 36 67.5> 64 26<204.5 208 208 227 227 236> 140 19<154.5 176.5 154.5 183.5> 328 19<275.5 349>
VStem: 5 86<-138.5 -65.5> 107 30<182.5 222 182.5 227> 228 22<209.5 238.5 205.5 240.5> 317 72<-16.5 -5 -81 13.5> 409 61<231.5 270 211.5 277>
LayerCount: 2
Fore
SplineSet
5 -109 m 0
 5 -57 36 -46 57 -46 c 0
 78 -46 91 -58 91 -73 c 0
 91 -85 80 -113 38 -113 c 2
 36 -113 l 1
 41 -171 91 -194 138 -194 c 0
 196 -194 255 -161 284 -113 c 0
 303 -82 317 -30 317 -3 c 0
 317 30 301 64 236 64 c 2
 208 64 l 2
 201 64 191 64 188 71 c 0
 185 79 190 88 202 90 c 0
 210 91 219 90 227 90 c 2
 241 90 l 2
 376 90 409 209 409 254 c 0
 409 300 375 328 323 328 c 0
 228 328 137 253 137 191 c 0
 137 174 145 159 164 159 c 0
 189 159 228 189 228 230 c 0
 228 251 219 258 219 266 c 0
 219 273 226 277 232 276 c 0
 244 273 250 246 250 231 c 0
 250 180 205 140 162 140 c 0
 129 140 107 162 107 192 c 0
 107 262 206 347 325 347 c 0
 407 347 470 303 470 237 c 0
 470 186 427 109 310 73 c 1
 355 57 389 21 389 -31 c 0
 389 -131 261 -212 140 -212 c 0
 58 -212 5 -168 5 -109 c 0
EndSplineSet
Validated: 1
EndChar

StartChar: four
Encoding: 52 52 21
Width: 430
GlyphClass: 2
Flags: MW
HStem: -44 26<337 342 342 345> -30 37 -16 26<105 117 117 118> 326 20G<342 357.5> 326 20G<342 357.5>
VStem: 304 72<121 155> 311 67
LayerCount: 2
Fore
SplineSet
4 -18 m 0x84
 4 -5 24 -1 42 7 c 0
 118 45 255 143 311 315 c 0
 319 338 334 346 350 346 c 0
 365 346 378 339 378 324 c 0x52
 378 307 355 260 344 240 c 0
 285 134 192 62 105 10 c 1
 123 10 l 2
 179 10 206 4 265 -9 c 1
 304 121 l 2
 309 135 313 170 349 170 c 0
 358 170 376 164 376 146 c 0
 376 139 375 140 328 -18 c 1
 342 -18 l 2
 382 -18 402 -13 414 -13 c 0
 424 -13 431 -18 431 -25 c 0
 431 -41 350 -44 340 -44 c 0
 334 -44 327 -44 320 -43 c 1
 320 -44 287 -162 280 -174 c 0
 274 -185 260 -194 245 -194 c 0
 231 -194 218 -184 218 -171 c 0
 218 -158 222 -157 258 -34 c 1
 213 -26 186 -16 118 -16 c 2
 117 -16 l 2xb4
 25 -16 39 -30 20 -30 c 0x44
 11 -30 4 -25 4 -18 c 0x84
EndSplineSet
Validated: 1
EndChar

StartChar: five
Encoding: 53 53 22
Width: 430
GlyphClass: 2
Flags: MW
HStem: -212 23<128.5 173 128.5 210> -96 71<48 84.5 48 84.5> 128 19<247.5 293.5> 257 64<284 326.5>
VStem: 17 31<-96 -96 -96 -66.5> 335 71<34.5 57 -43.5 75>
LayerCount: 2
Fore
SplineSet
17 -99 m 0
 17 -34 54 -25 74 -25 c 0
 95 -25 110 -37 110 -54 c 0
 110 -74 90 -96 56 -96 c 2
 48 -96 l 1
 50 -172 110 -189 147 -189 c 0
 199 -189 245 -157 271 -125 c 0
 308 -80 335 13 335 56 c 0
 335 94 316 128 271 128 c 0
 182 128 139 65 122 65 c 0
 115 65 110 68 110 76 c 0
 110 80 112 86 113 91 c 2
 184 329 l 2
 186 334 188 345 199 345 c 0
 211 345 245 321 323 321 c 0
 400 321 450 345 461 345 c 0
 469 345 471 340 471 337 c 0
 471 321 379 257 274 257 c 0
 248 257 222 260 198 268 c 1
 150 109 l 1
 181 129 222 147 273 147 c 0
 353 147 406 95 406 19 c 0
 406 -106 273 -212 147 -212 c 0
 67 -212 17 -165 17 -99 c 0
EndSplineSet
Validated: 1
EndChar

StartChar: six
Encoding: 54 54 23
Width: 430
GlyphClass: 2
Flags: MW
HStem: -22 28<191.5 234.5 191.5 263.5> 403 23<315 368> 522 80 641 26<439.5 489>
VStem: 87 64<71.5 113.5 68 179.5> 410 70<248 347.5> 471 87<543 617>
LayerCount: 2
Fore
SplineSet
87 138 m 0xfc
 87 221 117 325 146 392 c 0
 212 541 344 667 466 667 c 0
 520 667 558 641 558 593 c 0
 558 540 524 522 503 522 c 0
 485 522 471 534 471 552 c 0xfa
 471 567 482 600 526 602 c 1
 523 610 515 641 463 641 c 0
 416 641 290 606 211 340 c 1
 236 376 281 426 349 426 c 0
 455 426 480 328 480 277 c 0
 480 219 453 157 437 128 c 0
 401 66 314 -22 213 -22 c 0
 162 -22 87 5 87 138 c 0xfc
151 89 m 0
 151 47 167 6 216 6 c 0
 253 6 284 25 311 53 c 0
 381 128 410 301 410 326 c 0xfc
 410 369 392 403 344 403 c 0
 283 403 221 348 185 248 c 0
 174 217 151 138 151 89 c 0
EndSplineSet
Validated: 1
EndChar

StartChar: seven
Encoding: 55 55 24
Width: 430
GlyphClass: 2
Flags: MW
HStem: 240 19<353.5 384.5> 288 58
VStem: 180 87
LayerCount: 2
Fore
SplineSet
58 171 m 0
 58 177 58 175 143 325 c 0
 149 335 153 346 167 346 c 0
 177 346 180 343 180 338 c 0
 180 329 168 311 158 293 c 1
 187 314 236 347 296 347 c 0
 371 347 327 259 380 259 c 0
 402 259 440 272 493 331 c 0
 499 338 504 346 517 346 c 0
 525 346 530 343 530 338 c 0
 530 319 378 188 267 -170 c 0
 260 -193 246 -212 215 -212 c 0
 196 -212 180 -201 180 -186 c 0
 180 -171 198 -123 212 -90 c 0
 273 54 382 195 427 250 c 1
 407 243 391 240 378 240 c 0
 324 240 329 288 281 288 c 2
 277 288 l 1
 198 283 129 232 94 179 c 0
 89 172 85 162 71 162 c 0
 65 162 58 165 58 171 c 0
EndSplineSet
Validated: 1
EndChar

StartChar: eight
Encoding: 56 56 25
Width: 430
GlyphClass: 2
Flags: MW
HStem: -22 28<183.5 257.5 183.5 275> 641 25<373.5 437>
VStem: 62 50<75.5 149.5 75.5 154> 193 57<480.5 507.5> 402 61<158.5 196> 497 45<519 582>
LayerCount: 2
Fore
SplineSet
62 106 m 0
 62 202 147 290 262 338 c 1
 238 360 193 389 193 455 c 0
 193 560 300 666 414 666 c 0
 487 666 542 622 542 555 c 0
 542 474 471 404 375 360 c 1
 414 325 463 295 463 219 c 0
 463 98 340 -22 210 -22 c 0
 125 -22 62 28 62 106 c 0
112 105 m 0
 112 46 153 6 214 6 c 0
 301 6 402 81 402 173 c 0
 402 219 374 238 362 250 c 2
 281 321 l 1
 191 278 112 194 112 105 c 0
250 503 m 0
 250 458 287 439 356 377 c 1
 425 409 497 481 497 557 c 0
 497 607 464 641 410 641 c 0
 337 641 250 579 250 503 c 0
EndSplineSet
Validated: 1
EndChar

StartChar: nine
Encoding: 57 57 26
Width: 430
GlyphClass: 2
Flags: MW
HStem: -212 23<105 147 105 181> -161 67 -18 19<200 246> 325 22<291.5 351.5>
VStem: 15 85<-170 -111.5> 73 74<46 170> 394 66<216.5 262 173 270>
LayerCount: 2
Fore
SplineSet
15 -146 m 0xfa
 15 -106 46 -94 66 -94 c 0
 85 -94 100 -103 100 -120 c 0xfa
 100 -129 92 -159 50 -161 c 1
 63 -180 85 -189 125 -189 c 0
 169 -189 286 -162 347 53 c 1
 323 23 280 -18 212 -18 c 0
 113 -18 73 58 73 110 c 0xf6
 73 230 197 347 328 347 c 0
 381 347 460 324 460 200 c 0
 460 146 440 64 413 7 c 0
 356 -113 239 -212 123 -212 c 0
 68 -212 15 -194 15 -146 c 0xfa
147 73 m 0xf6
 147 19 182 1 218 1 c 0
 343 1 394 180 394 253 c 0
 394 287 376 325 327 325 c 0
 256 325 186 281 151 105 c 0
 148 95 147 85 147 73 c 0xf6
EndSplineSet
Validated: 1
EndChar

StartChar: colon
Encoding: 58 58 27
Width: 226
GlyphClass: 2
Flags: MW
HStem: 0 106<124.5 132> 325 106<222.5 230>
VStem: 74 108<49 56> 172 108<374 381>
LayerCount: 2
Fore
SplineSet
74 40 m 0xe0
 74 72 107 106 142 106 c 0
 167 106 182 87 182 65 c 0
 182 33 149 0 115 0 c 0
 92 0 74 16 74 40 c 0xe0
172 365 m 0xd0
 172 397 205 431 240 431 c 0
 265 431 280 412 280 390 c 0
 280 358 247 325 213 325 c 0
 190 325 172 341 172 365 c 0xd0
EndSplineSet
Validated: 1
EndChar

StartChar: semicolon
Encoding: 59 59 28
Width: 226
GlyphClass: 2
Flags: MW
HStem: 0 106<63 111> 325 106<183.5 191>
VStem: 34 111<27.5 55.5> 133 108<374 381>
LayerCount: 2
Fore
SplineSet
-17 -183 m 0xa0
 -17 -165 81 -117 117 15 c 1
 96 1 84 0 76 0 c 0
 50 0 34 16 34 39 c 0
 34 72 66 106 102 106 c 0
 120 106 145 96 145 53 c 0
 145 -64 15 -192 -7 -192 c 0
 -12 -192 -17 -189 -17 -183 c 0xa0
133 365 m 0x50
 133 397 166 431 201 431 c 0
 226 431 241 412 241 390 c 0
 241 358 208 325 174 325 c 0
 151 325 133 341 133 365 c 0x50
EndSplineSet
Validated: 1
EndChar

StartChar: less
Encoding: 60 60 29
Width: 685
GlyphClass: 2
Flags: MW
HStem: 499 30<751 771>
VStem: 139 35<248 249 248 254.5>
LayerCount: 2
Fore
SplineSet
139 249 m 0
 139 260 157 266 168 271 c 2
 752 524 l 2
 761 528 765 529 768 529 c 0
 774 529 778 524 778 519 c 0
 778 510 764 506 751 499 c 2
 235 276 l 2
 215 267 194 257 174 249 c 1
 174 248 l 1
 184 243 192 237 202 232 c 2
 601 -3 l 2
 612 -9 615 -15 615 -20 c 0
 615 -25 609 -29 604 -29 c 0
 597 -29 591 -23 586 -21 c 2
 164 227 l 2
 151 235 139 240 139 249 c 0
EndSplineSet
Validated: 1
EndChar

StartChar: equal
Encoding: 61 61 30
Width: 685
GlyphClass: 2
Flags: MW
HStem: 142 22<100 668 110 664> 336 22<188.5 192 192 726>
LayerCount: 2
Fore
SplineSet
84 152 m 0
 84 163 98 164 110 164 c 2
 668 164 l 2
 674 164 681 165 687 162 c 0
 693 159 695 151 690 146 c 0
 687 143 684 142 664 142 c 2
 105 142 l 2
 95 142 84 143 84 152 c 0
143 346 m 0
 143 356 153 358 164 358 c 2
 733 358 l 2
 741 358 751 357 751 348 c 0
 751 336 737 336 726 336 c 2
 192 336 l 2
 185 336 178 335 170 335 c 2
 167 335 l 2
 157 335 143 336 143 346 c 0
EndSplineSet
Validated: 1
EndChar

StartChar: greater
Encoding: 62 62 31
Width: 685
GlyphClass: 2
Flags: MW
HStem: -29 30<65 85>
VStem: 662 35<251 252 252 252>
LayerCount: 2
Fore
SplineSet
58 -20 m 0
 58 -10 72 -6 85 1 c 2
 662 251 l 1
 662 252 l 1
 640 264 618 277 596 290 c 2
 235 502 l 2
 224 509 221 515 221 520 c 0
 221 525 228 529 232 529 c 0
 237 529 242 525 246 523 c 2
 672 273 l 2
 685 265 697 260 697 251 c 0
 697 240 678 234 668 229 c 2
 97 -18 l 2
 88 -22 76 -29 68 -29 c 0
 62 -29 58 -26 58 -20 c 0
EndSplineSet
Validated: 1
EndChar

StartChar: question
Encoding: 63 63 32
Width: 430
GlyphClass: 2
Flags: MW
HStem: 0 106<229.5 234> 187 23<272 288.5 272 309> 694 22<387.5 451>
VStem: 177 108<47.5 59> 178 82<466.5 487.5 466.5 487.5> 219 36<233 251.5 230.5 291> 357 34 508 34<569.5 634 569.5 635.5>
LayerCount: 2
Fore
SplineSet
177 40 m 0xf3
 177 78 214 106 245 106 c 0
 270 106 285 87 285 65 c 0
 285 30 250 0 218 0 c 0
 195 0 177 16 177 40 c 0xf3
178 461 m 0xeb
 178 514 283 716 429 716 c 0
 500 716 542 667 542 601 c 0
 542 538 507 483 470 448 c 0
 444 422 295 314 278 296 c 0
 267 283 255 263 255 240 c 0
 255 221 264 210 280 210 c 0
 297 210 335 224 357 271 c 0
 360 281 365 292 378 292 c 0
 385 292 391 288 391 281 c 0
 391 256 342 187 276 187 c 0
 240 187 219 215 219 251 c 0xe7
 219 331 289 370 310 387 c 0
 418 472 508 515 508 612 c 0
 508 659 476 694 426 694 c 0
 349 694 270 618 225 511 c 1
 255 510 260 494 260 481 c 0
 260 452 233 431 210 431 c 0
 193 431 178 443 178 461 c 0xeb
EndSplineSet
Validated: 1
EndChar

StartChar: at
Encoding: 64 64 33
Width: 765
GlyphClass: 2
Flags: MW
HStem: -11 22<323.5 414> 26 53 128 22<399 450.5> 544 23<506 583.5> 683 23<500 650>
VStem: 163 30<230 232 169.5 248 169.5 248> 293 61<232.5 325.5 232.5 349> 562 61 635 73<442.5 476> 782 31<429.5 530>
LayerCount: 2
Fore
SplineSet
163 230 m 2
 163 248 l 1
 175 477 390 706 594 706 c 0
 727 706 813 605 813 465 c 0
 813 374 766 253 744 210 c 0
 713 152 676 127 634 127 c 0
 612 127 563 137 562 193 c 1
 523 158 478 128 423 128 c 0
 344 128 293 189 293 275 c 0
 293 423 431 567 550 567 c 0
 618 567 648 518 659 482 c 1
 680 482 l 2
 697 482 708 482 708 470 c 0
 708 466 706 463 705 457 c 2
 630 210 l 2
 626 193 623 184 623 173 c 0
 623 157 631 151 641 151 c 0
 727 151 782 393 782 466 c 0
 782 594 708 683 592 683 c 0
 408 683 205 465 194 246 c 0
 194 240 193 235 193 229 c 0
 193 110 259 11 388 11 c 0
 550 11 641 79 684 79 c 0
 702 79 709 75 709 70 c 0
 709 61 688 50 614 26 c 0
 527 -2 442 -11 386 -11 c 0
 238 -11 163 99 163 230 c 2
354 259 m 0
 354 206 372 150 426 150 c 0
 499 150 566 232 577 254 c 0
 581 260 635 437 635 448 c 0
 635 475 617 544 550 544 c 0
 462 544 354 392 354 259 c 0
EndSplineSet
Validated: 1
EndChar

StartChar: A
Encoding: 65 65 34
Width: 858
GlyphClass: 2
Flags: MW
HStem: -8 14<91.5 154 91.5 155.5> 95 113 358 47<427.5 437 384 467.5> 683 20G
VStem: -30 42<44.5 142> 319 37<234 330> 600 16<175 213.5>
LayerCount: 2
Fore
SplineSet
-30 117 m 0
 -30 167 7 208 58 208 c 0
 88 208 117 185 117 155 c 0
 117 134 108 120 90 111 c 0
 73 105 56 100 39 95 c 0
 21 88 12 77 12 63 c 0
 12 26 71 6 112 6 c 0
 196 6 282 57 372 158 c 1
 337 208 319 255 319 299 c 0
 319 361 354 405 414 405 c 0
 460 405 499 384 531 340 c 1
 618 439 690 511 744 557 c 0
 832 631 918 680 1006 703 c 1
 975 661 951 626 933 596 c 0
 901 544 858 456 805 332 c 0
 752 209 705 112 662 38 c 1
 746 46 813 87 864 163 c 1
 876 155 l 1
 817 73 743 28 652 21 c 1
 640 0 l 1
 606 -1 601 -2 548 -5 c 1
 560 16 569 32 574 44 c 1
 512 65 420 99 382 146 c 1
 289 43 199 -8 112 -8 c 0
 35 -8 -30 43 -30 117 c 0
356 245 m 0
 356 223 365 198 383 170 c 1
 520 328 l 1
 502 348 480 358 455 358 c 0
 400 358 356 301 356 245 c 0
392 158 m 1
 428 114 517 81 578 58 c 1
 593 105 600 148 600 188 c 0
 600 239 550 281 530 314 c 1
 392 158 l 1
541 327 m 1
 564 290 616 242 616 186 c 0
 616 164 614 138 609 110 c 1
 727 298 l 1
 805 428 l 2
 849 495 872 576 957 673 c 1
 879 640 803 589 729 523 c 0
 686 485 624 420 541 327 c 1
EndSplineSet
Validated: 1
EndChar

StartChar: B
Encoding: 66 66 35
Width: 844
GlyphClass: 2
Flags: MW
HStem: -8 15<155 203.5 155 295> 99 118 301 23<210.5 220 187 307.5> 339 37<626 629> 686 15<573 639>
VStem: 17 42<51 151> 122 15<379 419.5 379 421> 437 13<601 604> 510 16<47 89.5 47 90> 765 66<246.5 249 189.5 293.5> 839 54<558 573 525.5 596>
LayerCount: 2
Fore
SplineSet
17 125 m 0
 17 177 52 217 104 217 c 0
 137 217 166 194 166 163 c 0
 166 143 157 128 138 118 c 0
 112 109 112 108 86 99 c 0
 67 92 59 83 59 71 c 0
 59 31 132 7 178 7 c 0
 229 7 274 29 312 72 c 0
 336 99 362 143 391 204 c 2
 454 336 l 2
 503 438 556 516 612 569 c 0
 650 605 695 637 748 665 c 1
 710 679 665 686 613 686 c 0
 533 686 457 673 382 646 c 0
 298 616 234 573 188 519 c 0
 154 479 137 439 137 400 c 0
 137 358 166 324 208 324 c 0
 232 324 260 334 293 355 c 0
 367 404 428 493 437 601 c 1
 450 604 l 1
 455 574 457 550 457 531 c 0
 457 397 370 301 245 301 c 0
 176 301 122 334 122 400 c 0
 122 442 140 484 176 527 c 0
 263 630 427 701 616 701 c 0
 670 701 723 694 775 679 c 1
 793 687 817 695 847 703 c 1
 851 688 l 1
 829 682 810 676 795 670 c 1
 860 641 893 600 893 546 c 0
 893 505 871 467 828 432 c 0
 804 413 764 390 708 362 c 1
 790 329 831 281 831 217 c 0
 831 162 804 111 749 63 c 0
 696 16 641 -7 585 -7 c 0
 544 -7 510 20 510 61 c 0
 510 119 545 167 615 205 c 1
 623 191 l 1
 580 168 526 119 526 60 c 0
 526 34 545 10 570 10 c 0
 596 10 667 37 702 91 c 0
 744 155 765 217 765 276 c 0
 765 311 713 338 687 354 c 1
 660 344 638 339 620 339 c 0
 607 339 600 344 600 354 c 0
 600 369 613 376 639 376 c 0
 653 376 669 374 686 369 c 1
 718 381 785 410 808 457 c 0
 829 499 839 539 839 577 c 0
 839 615 787 642 764 657 c 1
 712 628 628 577 602 528 c 0
 588 502 574 462 552 383 c 2
 532 311 l 2
 483 137 398 -8 192 -8 c 0
 96 -8 17 36 17 125 c 0
EndSplineSet
Validated: 1
EndChar

StartChar: C
Encoding: 67 67 36
Width: 746
GlyphClass: 2
Flags: MW
HStem: -8 14<447.5 508.5> 284 18<627 652 587 659.5> 335 16 688 17<403.5 428.5 365.5 441.5> 690 16<784.5 809>
VStem: 144 50<457 497 435 524.5> 270 67<66.5 206> 493 14<99 99> 704 17<195.5 228> 844 35<634.5 644 591 660>
LayerCount: 2
Fore
SplineSet
144 505 m 0xefc0
 144 544 158 580 186 613 c 0
 237 674 314 705 417 705 c 0
 440 705 466 703 496 699 c 1
 494 684 l 1
 475 687 453 688 430 688 c 0xf7c0
 377 688 329 671 286 635 c 0
 225 584 194 528 194 466 c 0
 194 404 236 366 321 350 c 1
 408 480 559 622 706 683 c 0
 743 698 773 706 796 706 c 0
 844 706 879 668 879 620 c 0
 879 562 840 506 762 451 c 0
 700 407 632 376 561 356 c 0
 506 341 466 336 416 335 c 1
 390 283 372 244 363 220 c 0
 346 176 337 135 337 97 c 0
 337 36 410 6 475 6 c 0
 568 6 648 67 683 131 c 0
 697 157 704 183 704 208 c 0
 704 248 679 284 640 284 c 0
 614 284 587 270 562 243 c 0
 533 212 515 164 507 99 c 1
 493 99 l 1
 486 126 483 149 483 166 c 0
 483 241 549 302 625 302 c 0
 679 302 721 263 721 209 c 0
 721 158 697 110 651 65 c 0
 601 16 542 -8 475 -8 c 0
 420 -8 372 9 332 45 c 0
 290 82 270 129 270 183 c 0
 270 229 284 279 314 336 c 1
 225 351 144 409 144 505 c 0xefc0
425 351 m 1
 470 352 500 356 546 369 c 0
 643 397 725 454 790 538 c 0
 826 585 844 621 844 648 c 0
 844 672 822 690 796 690 c 0xefc0
 718 690 567 577 425 351 c 1
EndSplineSet
Validated: 1
EndChar

StartChar: D
Encoding: 68 68 37
Width: 835
GlyphClass: 2
Flags: MW
HStem: -7 15<245 287 245 293.5> 93 16<195.5 217.5> 237 15<264.5 328.5 264.5 330.5> 684 14<492 564>
VStem: 132 16<40.5 70.5 40.5 76> 137 64<355.5 374 317 440> 517 16<510 549.5> 835 22<367 410.5>
LayerCount: 2
Fore
SplineSet
132 59 m 0xfb
 132 93 164 109 227 109 c 0
 277 109 337 96 407 69 c 1
 430 94 453 130 476 178 c 2
 538 304 l 2
 601 432 671 530 750 599 c 1
 717 630 686 651 655 664 c 0
 623 677 586 684 542 684 c 0
 416 684 318 627 252 513 c 0
 217 454 201 399 201 349 c 0
 201 285 233 252 296 252 c 0
 361 252 414 286 458 353 c 0
 497 412 517 476 517 544 c 0
 517 555 516 570 514 589 c 1
 530 589 l 1
 532 570 533 556 533 546 c 0
 533 474 512 406 470 343 c 0
 423 272 365 237 296 237 c 0
 203 237 137 309 137 402 c 0xf7
 137 478 181 547 270 610 c 0
 351 668 442 698 542 698 c 0
 629 698 703 669 763 610 c 1
 789 632 818 650 852 664 c 1
 858 650 l 1
 824 636 797 619 778 597 c 1
 806 562 826 531 837 506 c 0
 851 475 857 439 857 400 c 0
 857 334 843 267 816 199 c 0
 761 62 672 -7 550 -7 c 0
 514 -7 472 2 425 22 c 1
 363 2 313 -7 274 -7 c 0
 215 -7 132 11 132 59 c 0xfb
148 59 m 0xfb
 148 22 222 8 268 8 c 0
 306 8 342 19 376 42 c 1
 295 76 236 93 199 93 c 0
 165 93 148 82 148 59 c 0xfb
469 44 m 1
 514 23 551 12 580 12 c 0
 617 12 656 27 698 58 c 0
 740 89 774 136 800 198 c 0
 824 256 835 313 835 370 c 0
 835 451 813 521 766 582 c 1
 746 556 691 513 672 459 c 2
 622 320 l 2
 597 251 580 190 556 144 c 0
 532 97 498 64 469 44 c 1
EndSplineSet
Validated: 1
EndChar

StartChar: E
Encoding: 69 69 38
Width: 585
GlyphClass: 2
Flags: MW
HStem: -9 15<294 364> 272 19<476.5 502 435 508.5> 362 15<483.5 499 481.5 513> 411 15<447.5 454> 442 14<577 616.5 577 619.5> 684 20<553 582.5 478 607>
VStem: 86 74<88 259> 301 62<515.5 525 484.5 591.5> 330 27 512 27<385.5 395.5> 519 27<497 523 491 537.5> 553 17<194 220.5> 682 16<545 604>
LayerCount: 2
Fore
SplineSet
86 192 m 0xfed8
 86 326 229 398 360 420 c 1
 321 455 301 494 301 537 c 0
 301 646 421 704 535 704 c 0
 630 704 698 662 698 572 c 0
 698 507 651 442 588 442 c 0
 546 442 519 476 519 518 c 0
 519 557 545 592 596 623 c 1
 605 612 l 1
 565 578 546 542 546 504 c 0
 546 478 564 456 590 456 c 0
 643 456 682 517 682 573 c 0
 682 635 638 684 576 684 c 0
 530 684 449 663 412 622 c 0
 376 582 363 548 363 502 c 0xff38
 363 467 397 440 410 426 c 1
 436 426 l 2
 472 426 539 414 539 386 c 0
 539 370 526 362 500 362 c 0
 467 362 430 375 387 400 c 1
 332 382 246 347 211 294 c 0
 177 243 160 188 160 129 c 0
 160 47 243 6 328 6 c 0
 439 6 518 71 545 158 c 0
 550 175 553 188 553 200 c 0
 553 241 528 272 489 272 c 0
 464 272 439 260 416 236 c 0
 378 197 358 147 357 83 c 1
 342 83 l 1
 334 103 330 123 330 143 c 0
 330 225 394 291 476 291 c 0
 528 291 570 254 570 202 c 0
 570 154 551 108 512 67 c 0
 464 16 402 -9 326 -9 c 0
 262 -9 208 8 163 43 c 0
 112 83 86 132 86 192 c 0xfed8
426 409 m 1
 448 388 470 377 493 377 c 0
 505 377 512 382 512 389 c 0xfe58
 512 402 469 411 451 411 c 0
 444 411 435 410 426 409 c 1
EndSplineSet
Validated: 1
EndChar

StartChar: F
Encoding: 70 70 39
Width: 688
GlyphClass: 2
Flags: MW
HStem: -10 16<201.5 238.5 196.5 293> 97 117 299 17<247 280.5 239.5 304.5> 397 16<727.5 738> 598 72<775.5 857> 674 29<523 528.5>
VStem: 57 45<59 146> 168 17<378 423 378 433.5> 435 35<455.5 560.5> 746 17<379.5 389.5>
LayerCount: 2
Fore
SplineSet
57 121 m 0
 57 171 95 214 145 214 c 0
 176 214 208 189 208 160 c 0
 208 140 198 126 180 116 c 0
 163 109 146 103 129 97 c 0
 111 90 102 79 102 65 c 0
 102 53 111 40 130 28 c 0
 152 13 180 6 213 6 c 0
 264 6 349 28 386 70 c 0
 408 96 433 139 463 201 c 2
 497 272 l 1
 434 263 337 235 288 186 c 1
 277 197 l 1
 307 226 336 247 362 260 c 0
 390 274 464 284 504 289 c 1
 574 433 613 532 703 588 c 1
 714 578 l 1
 695 564 690 548 672 531 c 0
 652 512 607 465 590 399 c 2
 563 296 l 1
 582 298 640 302 659 309 c 1
 672 343 682 365 687 374 c 0
 702 400 718 413 737 413 c 0
 754 413 763 404 763 387 c 0
 763 372 756 356 741 341 c 0
 736 336 722 325 699 308 c 1
 698 254 688 212 669 181 c 1
 638 176 611 170 588 164 c 1
 612 202 634 245 652 291 c 1
 634 285 576 282 558 280 c 1
 546 233 525 178 492 134 c 0
 416 32 355 -10 231 -10 c 0
 172 -10 128 4 97 33 c 0
 70 58 57 87 57 121 c 0
168 400 m 0
 168 467 203 530 271 589 c 0
 359 665 463 703 583 703 c 0
 617 703 647 700 675 695 c 0
 764 678 821 670 843 670 c 0
 871 670 896 680 918 700 c 1
 930 691 l 1
 889 629 842 598 792 598 c 0
 759 598 714 611 654 636 c 0
 594 661 546 674 511 674 c 0
 401 674 291 600 236 532 c 0
 201 489 185 445 185 401 c 0
 185 355 217 316 262 316 c 0
 299 316 340 349 384 415 c 0
 418 466 435 511 435 551 c 0
 435 570 430 591 421 613 c 1
 436 617 l 1
 459 566 470 520 470 481 c 0
 470 430 451 387 413 352 c 0
 375 317 330 299 279 299 c 0
 215 299 168 337 168 400 c 0
701 329 m 1
 731 351 746 369 746 386 c 0
 746 393 742 397 734 397 c 0
 718 397 708 375 701 329 c 1
EndSplineSet
Validated: 1
EndChar

StartChar: G
Encoding: 71 71 40
Width: 711
GlyphClass: 2
Flags: MW
HStem: -12 17<376.5 404 373.5 448> 113 97<273.5 334> 221 14<473 516> 283 15<301 331> 678 19<640.5 698 629 705.5>
VStem: 129 52<439.5 454 383.5 528.5> 212 48<57.5 147.5> 332 53<381.5 397.5 371 438> 743 21<606.5 640.5 591.5 644.5>
LayerCount: 2
Fore
SplineSet
129 465 m 0
 129 592 262 668 380 695 c 1
 383 682 l 1
 330 670 287 644 254 604 c 0
 205 546 181 485 181 423 c 0
 181 344 246 298 328 298 c 0
 339 298 349 299 358 300 c 1
 340 330 332 363 332 400 c 0
 332 476 365 543 431 600 c 0
 506 665 586 697 672 697 c 0
 724 697 764 666 764 615 c 0
 764 568 738 516 684 459 c 0
 620 391 552 343 482 315 c 0
 456 305 430 297 402 290 c 1
 416 254 446 235 491 235 c 0
 589 235 694 313 756 370 c 1
 767 359 l 1
 742 332 723 303 713 270 c 0
 711 264 703 229 690 166 c 0
 677 105 643 58 587 27 c 0
 539 1 482 -12 414 -12 c 0
 339 -12 284 5 249 40 c 0
 224 65 212 93 212 123 c 0
 212 172 249 210 298 210 c 0
 331 210 360 189 360 156 c 0
 360 136 351 121 334 113 c 2
 286 99 l 2
 269 93 260 82 260 68 c 0
 260 47 276 31 310 19 c 0
 336 10 361 5 386 5 c 0
 422 5 494 17 520 41 c 0
 537 57 559 73 582 112 c 1
 614 182 l 2
 630 209 644 247 678 280 c 1
 617 246 537 221 495 221 c 0
 451 221 408 242 369 285 c 1
 348 283 335 283 327 283 c 0
 275 283 229 300 190 334 c 0
 150 370 129 414 129 465 c 0
385 387 m 0
 385 355 391 322 399 305 c 1
 492 323 575 371 646 451 c 0
 711 523 743 583 743 630 c 0
 743 659 720 678 691 678 c 0
 590 678 440 546 394 442 c 0
 388 428 385 408 385 387 c 0
EndSplineSet
Validated: 1
EndChar

StartChar: H
Encoding: 72 72 41
Width: 822
GlyphClass: 2
Flags: MW
HStem: -9 15<116 159 625.5 665> 103 113 418 18<319.5 350.5> 591 14<317.5 341.5> 686 14<969.5 1002.5>
VStem: -33 40<61 147> 287 52<438.5 474> 350 48<541 585> 580 33<16 72.5> 1030 32<577 664.5>
LayerCount: 2
Fore
SplineSet
-33 122 m 0
 -33 172 1 216 51 216 c 0
 82 216 116 194 116 164 c 0
 116 146 109 131 94 119 c 0
 90 116 72 110 41 103 c 0
 18 97 7 87 7 71 c 0
 7 51 23 34 55 21 c 0
 80 11 104 6 128 6 c 0
 195 6 250 43 293 118 c 0
 314 154 337 199 363 252 c 1
 303 228 244 193 188 147 c 1
 179 158 l 1
 236 207 299 244 371 270 c 1
 426 383 485 477 547 551 c 1
 492 508 458 482 445 473 c 0
 393 437 355 418 332 418 c 0
 307 418 287 439 287 464 c 0
 287 484 297 509 318 537 c 0
 339 565 350 580 350 582 c 0
 350 588 345 591 338 591 c 0
 297 591 229 533 135 418 c 1
 123 425 l 1
 216 545 290 605 344 605 c 0
 374 605 398 581 398 552 c 0
 398 530 389 505 369 480 c 0
 349 455 339 442 339 440 c 0
 339 437 342 436 346 436 c 0
 355 436 372 443 396 458 c 2
 460 505 l 1
 653 651 l 1
 661 641 l 1
 625 605 553 553 527 486 c 2
 468 314 l 1
 464 299 l 1
 664 363 l 1
 704 430 729 463 758 498 c 0
 867 633 919 700 993 700 c 0
 1034 700 1062 668 1062 627 c 0
 1062 527 911 440 819 400 c 0
 803 393 776 382 738 367 c 1
 654 177 613 61 613 21 c 0
 613 11 619 6 632 6 c 0
 698 6 793 113 828 163 c 1
 841 155 l 1
 797 95 707 -9 629 -9 c 0
 586 -9 580 23 580 64 c 0
 580 81 581 98 581 117 c 0
 581 152 587 188 600 225 c 0
 607 246 631 297 653 342 c 1
 618 332 492 292 459 281 c 1
 413 141 378 61 268 16 c 0
 226 -1 182 -9 136 -9 c 0
 47 -9 -33 37 -33 122 c 0
748 385 m 1
 816 413 868 442 905 470 c 0
 952 506 989 552 1016 609 c 0
 1025 629 1030 644 1030 656 c 0
 1030 673 1011 686 994 686 c 0
 945 686 897 651 852 583 c 0
 823 540 789 474 748 385 c 1
EndSplineSet
Validated: 1
EndChar

StartChar: I
Encoding: 73 73 42
Width: 576
GlyphClass: 2
Flags: MW
HStem: -12 17<120 155.5 117.5 163> 113 101<36 95> 686 15<735.5 758>
VStem: -26 41<57.5 145.5> 195 57<286.5 448.5> 631 16<358.5 406>
LayerCount: 2
Fore
SplineSet
-26 120 m 0
 -26 171 10 214 62 214 c 0
 95 214 123 190 123 158 c 0
 123 137 114 122 95 113 c 2
 43 98 l 2
 24 92 15 82 15 67 c 0
 15 48 30 32 60 20 c 0
 84 10 106 5 129 5 c 0
 182 5 268 27 305 71 c 0
 320 88 346 133 385 205 c 1
 306 212 195 284 195 374 c 0
 195 523 372 616 510 660 c 0
 592 686 675 700 758 701 c 1
 758 686 l 1
 713 686 676 667 648 630 c 0
 625 600 603 554 582 491 c 0
 574 466 559 415 538 339 c 0
 530 309 517 274 501 234 c 1
 566 262 631 317 631 400 c 0
 631 412 629 430 625 452 c 1
 641 453 l 1
 645 430 647 412 647 400 c 0
 647 307 569 240 492 214 c 1
 442 113 367 45 268 10 c 0
 226 -5 184 -12 142 -12 c 0
 98 -12 60 -1 28 20 c 0
 -8 44 -26 78 -26 120 c 0
252 311 m 0
 252 262 325 230 392 218 c 1
 477 395 l 1
 544 525 570 617 687 682 c 1
 554 663 475 638 389 558 c 0
 335 509 295 452 269 387 c 0
 258 360 252 334 252 311 c 0
EndSplineSet
Validated: 1
EndChar

StartChar: J
Encoding: 74 74 43
Width: 529
GlyphClass: 2
Flags: MW
HStem: -216 15<27.5 67 27.5 129> -138 15<349 349> 235 15<263 289.5 263 291.5> 684 14<768.5 792>
VStem: -42 30<-141 -120 -161.5 -49.5> 181 35<288.5 427.5> 526 16<-3.5 42.5>
LayerCount: 2
Fore
SplineSet
-42 -114 m 0
 -42 15 195 90 330 116 c 1
 476 367 l 2
 520 443 549 502 584 544 c 0
 633 603 657 648 716 680 c 1
 649 676 596 668 559 657 c 0
 496 638 432 601 371 548 c 0
 310 495 265 438 236 378 c 0
 223 350 216 326 216 306 c 0
 216 271 245 250 281 250 c 0
 298 250 315 255 333 265 c 1
 340 251 l 1
 320 240 301 235 282 235 c 0
 218 235 181 291 181 358 c 0
 181 497 294 599 520 664 c 0
 593 685 683 696 792 698 c 1
 792 684 l 1
 745 684 704 661 667 616 c 0
 640 583 611 532 581 465 c 0
 575 452 553 397 514 301 c 0
 482 222 456 161 435 117 c 1
 493 111 542 77 542 16 c 0
 542 -71 436 -124 349 -138 c 1
 349 -123 l 1
 394 -115 428 -104 451 -90 c 0
 501 -60 526 -24 526 17 c 0
 526 68 480 101 428 103 c 1
 355 -34 216 -216 42 -216 c 0
 -11 -216 -42 -168 -42 -114 c 0
-12 -146 m 0
 -12 -177 12 -201 43 -201 c 0
 91 -201 210 -101 321 99 c 1
 257 87 154 57 92 10 c 0
 23 -42 -12 -94 -12 -146 c 0
EndSplineSet
Validated: 1
EndChar

StartChar: K
Encoding: 75 75 44
Width: 815
GlyphClass: 2
Flags: MW
HStem: -8 15<120 156.5 120 231.5> -5 35<619 700.5> 114 99<31 89> 322 41<557 561> 417 17<324 358> 588 16<324.5 344> 686 14<1013 1013>
VStem: -31 40<56.5 145> 290 52<437.5 471> 353 47<544.5 582.5> 595 82<43.5 95> 640 52<234 248.5 212.5 256>
LayerCount: 2
Fore
SplineSet
-31 118 m 0xbfc0
 -31 172 4 213 58 213 c 0
 90 213 117 190 117 158 c 0
 117 137 108 123 89 114 c 2
 37 99 l 2
 18 93 9 82 9 67 c 0
 9 46 25 31 58 20 c 0
 82 12 107 7 133 7 c 0
 180 7 220 23 253 56 c 0
 280 83 315 141 356 232 c 0
 412 355 475 460 546 547 c 1
 487 497 436 460 394 436 c 0
 372 424 352 417 336 417 c 0
 312 417 290 437 290 461 c 0
 290 481 300 505 321 534 c 0
 342 563 353 578 353 579 c 0
 353 586 348 588 340 588 c 0
 300 588 234 532 143 417 c 1
 130 426 l 1
 226 544 299 604 350 604 c 0
 378 604 400 584 400 556 c 0
 400 533 390 508 371 481 c 0
 352 454 342 440 342 439 c 0
 342 436 344 434 349 434 c 0
 367 434 410 460 477 511 c 0
 551 567 611 621 657 673 c 1
 669 664 l 1
 624 613 548 544 521 456 c 2
 454 239 l 1
 399 104 320 -8 143 -8 c 0
 49 -8 -31 31 -31 118 c 0xbfc0
534 339 m 0
 534 355 545 363 569 363 c 0
 576 363 590 360 609 354 c 1
 634 364 670 380 687 403 c 0
 696 416 709 439 725 474 c 0
 792 614 888 689 1013 700 c 1
 1013 686 l 1
 980 684 953 676 931 663 c 0
 904 647 877 617 852 571 c 0
 815 506 790 465 778 450 c 0
 742 403 681 368 624 344 c 1
 660 316 692 275 692 222 c 0x7fd0
 692 203 688 154 679 75 c 0
 678 64 677 55 677 50 c 0
 677 37 681 30 688 30 c 0
 713 30 758 74 821 163 c 1
 833 155 l 1
 755 48 690 -5 637 -5 c 0
 601 -5 595 35 595 83 c 0x7fe0
 595 107 607 145 630 196 c 0
 637 212 640 227 640 241 c 0x7fd0
 640 271 627 295 622 309 c 0
 619 316 607 323 601 333 c 1
 583 325 567 322 555 322 c 0
 541 322 534 327 534 339 c 0
EndSplineSet
Validated: 1
EndChar

StartChar: L
Encoding: 76 76 45
Width: 713
GlyphClass: 2
Flags: MW
HStem: -9 14<147.5 205.5 147.5 208> -4 17<493 534.5> 110 15<122.5 160> 259 15<336.5 366.5> 683 15<463.5 513 462.5 514>
VStem: 42 15<41.5 77 41.5 83> 166 58<422 445 364 483.5> 810 42<635 640 588.5 658>
LayerCount: 2
Fore
SplineSet
42 61 m 0xbf
 42 105 92 125 140 125 c 0
 182 125 238 111 307 83 c 1
 331 129 359 187 391 260 c 1
 380 259 370 259 363 259 c 0
 310 259 264 277 225 314 c 0
 186 351 166 396 166 448 c 0
 166 519 205 579 283 630 c 0
 353 675 425 698 500 698 c 0
 526 698 554 694 584 687 c 1
 580 673 l 1
 552 680 526 683 502 683 c 0
 425 683 359 656 306 602 c 0
 251 546 224 482 224 408 c 0
 224 320 277 274 365 274 c 0
 374 274 384 274 397 276 c 1
 490 493 585 628 682 680 c 0
 711 696 738 703 761 703 c 0
 811 703 852 665 852 615 c 0
 852 562 815 500 741 427 c 0
 678 365 577 321 517 292 c 1
 486 280 l 1
 447 169 411 113 358 56 c 1
 414 29 476 13 510 13 c 0
 576 13 645 63 719 163 c 1
 731 155 l 1
 650 49 572 -4 497 -4 c 0x7f
 462 -4 397 14 335 43 c 1
 282 10 240 -9 176 -9 c 0
 118 -9 42 13 42 61 c 0xbf
57 61 m 0
 57 22 124 5 171 5 c 0xbf
 240 5 265 22 297 67 c 1
 232 95 180 110 140 110 c 0
 105 110 57 93 57 61 c 0
491 300 m 1
 608 356 742 447 792 573 c 0
 804 604 810 627 810 643 c 0
 810 673 793 688 759 688 c 0
 718 688 688 657 648 610 c 0
 622 580 562 516 541 445 c 2
 491 300 l 1
EndSplineSet
Validated: 1
EndChar

StartChar: M
Encoding: 77 77 46
Width: 1019
GlyphClass: 2
Flags: MW
HStem: -9 15<84 134 84 144> 107 103<25 77>
VStem: -38 37<44 136.5> 809 41<34.5 40 18 59>
LayerCount: 2
Fore
SplineSet
-38 110 m 0
 -38 163 -1 210 51 210 c 0
 83 210 111 187 111 156 c 0
 111 135 100 119 77 107 c 1
 28 95 l 2
 8 90 -1 80 -1 64 c 0
 -1 24 61 6 107 6 c 0
 161 6 211 26 258 66 c 0
 287 91 320 128 358 174 c 2
 643 526 l 1
 710 601 765 654 808 685 c 0
 819 693 827 697 832 697 c 0
 841 697 846 693 846 686 c 0
 846 682 843 676 839 669 c 0
 788 579 730 453 668 291 c 0
 623 172 611 145 575 26 c 1
 595 47 639 108 707 212 c 0
 840 414 964 562 1081 655 c 0
 1116 683 1140 697 1153 697 c 0
 1162 697 1167 693 1167 686 c 0
 1167 679 1160 668 1149 652 c 0
 1130 625 1108 592 1085 551 c 0
 1058 503 1037 463 1020 428 c 0
 907 192 850 57 850 23 c 0
 850 13 855 8 864 8 c 0
 907 8 998 125 1025 163 c 1
 1039 155 l 1
 957 45 895 -10 852 -10 c 0
 819 -10 809 18 809 51 c 0
 809 67 811 84 814 100 c 0
 827 179 861 260 949 406 c 0
 987 469 1027 554 1133 672 c 1
 1012 594 874 439 720 204 c 2
 640 85 l 2
 631 71 616 51 596 25 c 0
 576 3 559 -9 547 -9 c 0
 536 -9 532 0 530 8 c 0
 528 15 525 17 525 48 c 0
 525 108 586 261 647 388 c 0
 676 448 708 538 801 660 c 1
 707 580 600 457 478 293 c 2
 410 202 l 2
 384 167 359 138 337 115 c 0
 260 32 183 -9 105 -9 c 0
 26 -9 -38 34 -38 110 c 0
EndSplineSet
Validated: 1
EndChar

StartChar: N
Encoding: 78 78 47
Width: 803
GlyphClass: 2
Flags: MW
HStem: -9 15<83 128.5 83 142.5> 106 102 542 54<1017.5 1032.5> 682 20G<753.5 759.5>
VStem: -32 34<72.5 74.5 45.5 134.5>
LayerCount: 2
Fore
SplineSet
-32 108 m 0
 -32 161 13 208 66 208 c 0
 98 208 127 182 127 150 c 0
 127 131 118 116 100 106 c 0
 97 104 78 102 41 98 c 0
 15 95 2 84 2 65 c 0
 2 26 61 6 105 6 c 0
 152 6 196 22 236 55 c 0
 271 84 323 148 391 251 c 2
 530 471 l 2
 589 564 655 636 727 687 c 0
 742 697 751 702 756 702 c 0
 763 702 766 699 766 693 c 0
 766 689 765 684 762 678 c 0
 753 659 745 637 740 615 c 0
 735 595 731 551 725 481 c 2
 701 183 l 1
 799 350 l 2
 813 375 836 410 867 458 c 0
 929 550 982 596 1025 596 c 0
 1045 596 1056 587 1056 570 c 0
 1056 551 1044 542 1021 542 c 0
 1014 542 991 543 984 543 c 0
 967 543 950 535 931 516 c 0
 913 499 886 460 849 401 c 0
 812 342 762 257 700 144 c 1
 693 48 l 1
 603 -11 l 1
 620 213 630 372 678 543 c 0
 692 592 692 623 725 666 c 1
 656 613 596 546 546 466 c 0
 531 443 502 391 457 312 c 0
 402 217 355 147 316 104 c 0
 248 28 179 -9 106 -9 c 0
 32 -9 -32 37 -32 108 c 0
EndSplineSet
Validated: 1
EndChar

StartChar: O
Encoding: 79 79 48
Width: 580
GlyphClass: 2
Flags: MW
HStem: -11 15<227 295> 570 15<573.5 606> 691 14<586 640>
VStem: 92 50<135 143.5 128.5 240> 284 15<98 98> 638 29<490.5 512 444 535.5> 710 18<610.5 640>
LayerCount: 2
Fore
SplineSet
92 189 m 0
 92 291 136 390 224 487 c 0
 310 581 465 705 617 705 c 0
 673 705 728 670 728 618 c 0
 728 603 723 583 713 560 c 1
 697 565 l 1
 706 585 710 603 710 617 c 0
 710 663 664 691 616 691 c 0
 556 691 455 659 390 597 c 0
 343 552 279 482 234 394 c 0
 193 314 170 262 150 190 c 0
 144 168 142 151 142 136 c 0
 142 121 144 110 144 98 c 0
 144 55 205 4 249 4 c 0
 360 4 464 98 561 286 c 0
 612 386 638 463 638 518 c 0
 638 553 622 570 590 570 c 0
 557 570 520 547 476 500 c 0
 441 462 406 409 373 342 c 0
 340 276 319 217 309 164 c 0
 307 153 303 131 299 98 c 1
 284 98 l 1
 291 193 325 293 385 398 c 0
 456 523 525 585 590 585 c 0
 641 585 667 539 667 485 c 0
 667 403 625 309 544 201 c 0
 438 60 340 -11 250 -11 c 0
 148 -11 92 81 92 189 c 0
EndSplineSet
Validated: 1
EndChar

StartChar: P
Encoding: 80 80 49
Width: 708
GlyphClass: 2
Flags: MW
HStem: -10 17<191.5 237 191.5 284.5> 114 101 305 24<250.5 279 230.5 317> 688 14<577.5 644.5>
VStem: 59 44<48.5 147> 161 16<383.5 424 383.5 426> 477 21 836 46<536 542 464.5 580>
LayerCount: 2
Fore
SplineSet
59 121 m 0
 59 173 96 215 148 215 c 0
 180 215 211 191 211 160 c 0
 211 139 202 123 183 114 c 0
 166 109 149 104 131 98 c 0
 112 92 103 82 103 67 c 0
 103 30 170 7 213 7 c 0
 261 7 302 25 339 62 c 0
 371 94 416 173 474 300 c 1
 432 296 392 281 352 253 c 1
 343 264 l 1
 382 294 428 311 481 315 c 1
 557 480 651 593 760 653 c 1
 726 676 677 688 612 688 c 0
 543 688 471 672 397 641 c 0
 318 607 260 565 220 514 c 0
 192 477 177 441 177 407 c 0
 177 360 207 329 254 329 c 0
 304 329 357 365 413 437 c 0
 454 490 476 548 477 612 c 1
 490 612 l 1
 495 582 498 555 498 532 c 0
 498 469 478 416 439 372 c 0
 399 327 348 305 286 305 c 0
 215 305 161 339 161 407 c 0
 161 445 177 484 208 523 c 0
 251 577 312 621 392 655 c 0
 467 687 541 702 614 702 c 0
 675 702 730 690 782 666 c 1
 806 679 833 689 861 696 c 1
 864 683 l 1
 836 675 814 665 797 656 c 1
 853 614 882 568 882 516 c 0
 882 413 776 345 683 322 c 0
 666 318 603 314 572 309 c 1
 542 215 505 146 459 101 c 0
 383 27 335 -10 234 -10 c 0
 140 -10 59 34 59 121 c 0
577 325 m 1
 623 335 741 358 770 393 c 0
 814 447 836 505 836 567 c 0
 836 593 800 620 771 643 c 1
 732 617 661 577 639 527 c 0
 628 503 595 389 577 325 c 1
EndSplineSet
Validated: 1
EndChar

StartChar: Q
Encoding: 81 81 50
Width: 690
GlyphClass: 2
Flags: MW
HStem: -11 59<450.5 576> -9 15<127 174.5 124.5 175> 102 34<113.5 207> 244 19<233 266.5 225 298> 683 15<508.5 566>
VStem: 54 16<37.5 69.5 37.5 80> 150 16<324 372 324 375.5> 456 33<440.5 559> 661 77<555.5 570.5 478.5 617>
LayerCount: 2
Fore
SplineSet
54 54 m 0x7f80
 54 106 127 136 185 136 c 0
 229 136 289 124 366 100 c 1
 444 172 548 260 598 366 c 0
 640 454 661 527 661 584 c 0
 661 650 594 683 538 683 c 0
 479 683 418 664 356 626 c 0
 298 590 253 546 218 494 c 0
 183 442 166 394 166 350 c 0
 166 298 199 263 251 263 c 0
 282 263 310 277 337 304 c 0
 385 354 456 467 456 554 c 0
 456 564 454 578 451 598 c 1
 465 601 l 1
 481 553 489 510 489 471 c 0
 489 410 468 358 424 312 c 0
 380 266 328 244 268 244 c 0
 198 244 150 283 150 352 c 0
 150 399 169 449 206 504 c 0
 268 597 401 698 542 698 c 0
 653 698 738 625 738 516 c 0
 738 441 698 359 617 270 c 0
 556 203 483 142 398 88 c 1
 477 62 531 48 558 48 c 0
 594 48 640 87 696 163 c 1
 709 155 l 1
 629 45 549 -11 468 -11 c 0xbf80
 433 -11 382 5 315 38 c 1
 254 6 199 -9 151 -9 c 0
 103 -9 54 10 54 54 c 0x7f80
70 53 m 0
 70 22 97 6 152 6 c 0x7f80
 197 6 245 19 294 47 c 1
 224 83 171 102 135 102 c 0
 92 102 70 86 70 53 c 0
EndSplineSet
Validated: 1
EndChar

StartChar: R
Encoding: 82 82 51
Width: 890
GlyphClass: 2
Flags: MW
HStem: -12 30<684.5 762.5> -9 14<184 222 184 267> 277 22<219 235 200 315> 334 36<640.5 655> 683 15<605.5 667.5 601 670.5>
VStem: 35 43<57 148> 133 16<354.5 398 354.5 399> 441 15<586 586> 659 78<29.5 77 29.5 91.5> 722 50<217.5 306> 889 60<538 560.5 513 579.5>
LayerCount: 2
Fore
SplineSet
35 123 m 0x7f60
 35 173 74 215 124 215 c 0
 155 215 186 189 186 158 c 0
 186 137 177 122 158 114 c 2
 106 99 l 2
 87 93 78 82 78 67 c 0
 78 47 94 32 125 20 c 0
 149 11 172 5 196 5 c 0
 248 5 293 26 331 68 c 0
 357 96 392 158 437 254 c 2
 515 409 l 1
 583 528 669 613 773 664 c 1
 737 677 695 683 646 683 c 0
 565 683 484 667 403 636 c 0
 316 602 248 557 200 500 c 0
 166 460 149 419 149 377 c 0
 149 332 178 299 222 299 c 0
 248 299 277 310 308 333 c 0
 390 393 434 478 441 586 c 1
 456 586 l 1
 461 555 462 527 462 502 c 0
 462 374 378 277 252 277 c 0
 186 277 133 313 133 377 c 0
 133 421 151 465 187 508 c 0
 235 566 304 613 394 648 c 0
 477 681 560 698 642 698 c 0
 693 698 746 690 801 676 c 1
 830 686 855 694 876 700 c 1
 879 686 l 1
 859 680 841 675 823 669 c 1
 907 637 949 591 949 530 c 0
 949 496 934 464 903 432 c 0
 865 392 804 363 721 343 c 1
 755 311 772 273 772 228 c 0x7f60
 772 207 767 174 755 131 c 0
 743 88 737 56 737 35 c 0
 737 24 742 18 749 18 c 0
 776 18 825 66 896 163 c 1
 909 155 l 1
 831 44 764 -12 708 -12 c 0
 661 -12 659 17 659 61 c 2
 659 77 l 2xbfa0
 659 106 672 145 697 194 c 0
 721 239 722 276 722 300 c 2
 722 306 l 2
 722 317 693 326 686 337 c 1
 672 335 660 334 650 334 c 0
 630 334 620 339 620 349 c 0
 620 363 630 370 651 370 c 0
 666 370 684 364 706 354 c 1
 745 359 819 385 849 432 c 0
 876 475 889 517 889 559 c 0
 889 600 829 632 790 655 c 1
 754 639 681 594 660 566 c 0
 627 523 601 477 573 383 c 0
 565 352 553 298 530 247 c 0
 506 195 485 160 453 122 c 0
 379 35 325 -9 209 -9 c 0
 116 -9 35 34 35 123 c 0x7f60
EndSplineSet
Validated: 1
EndChar

StartChar: S
Encoding: 83 83 52
Width: 697
GlyphClass: 2
Flags: MW
HStem: -10 17<182.5 206 173 262.5> 261 15 688 15<499 549 785.5 817.5>
VStem: 30 46<56.5 144.5> 199 58<365.5 486> 849 40<635 637.5 588.5 659.5>
LayerCount: 2
Fore
SplineSet
30 119 m 0
 30 170 69 214 120 214 c 0
 152 214 182 188 182 156 c 0
 182 135 172 120 154 112 c 2
 103 97 l 2
 85 91 76 81 76 66 c 0
 76 47 90 32 118 21 c 0
 140 12 162 7 184 7 c 0
 228 7 266 22 298 50 c 0
 323 72 347 104 369 148 c 0
 386 186 403 224 421 261 c 1
 329 262 263 297 224 365 c 0
 207 394 199 423 199 452 c 0
 199 520 238 580 317 633 c 0
 387 680 461 703 537 703 c 0
 563 703 590 700 619 693 c 1
 617 680 l 1
 584 686 559 688 539 688 c 0
 404 688 307 593 271 486 c 0
 262 458 257 431 257 405 c 0
 257 326 315 276 396 276 c 0
 403 276 414 276 428 277 c 1
 468 367 504 438 537 490 c 0
 586 568 638 626 694 664 c 0
 732 690 769 703 802 703 c 0
 852 703 889 662 889 613 c 0
 889 564 854 503 784 432 c 0
 726 373 602 321 518 284 c 1
 496 218 472 163 440 124 c 0
 365 31 320 -10 205 -10 c 0
 160 -10 121 1 88 21 c 0
 49 44 30 77 30 119 c 0
523 302 m 1
 637 355 774 444 827 566 c 0
 841 599 849 625 849 645 c 0
 849 674 833 688 802 688 c 0
 729 688 627 609 577 449 c 0
 567 417 541 366 523 302 c 1
EndSplineSet
Validated: 1
EndChar

StartChar: T
Encoding: 84 84 53
Width: 631
GlyphClass: 2
Flags: MW
HStem: -10 16<191.5 227.5 191.5 239> 301 17<241 273.5 230.5 301> 593 73<772.5 852.5> 673 27<498 520>
VStem: 43 42<59.5 147.5> 160 15<381.5 425 381.5 425.5> 429 36<459 558.5>
LayerCount: 2
Fore
SplineSet
43 122 m 0
 43 173 78 215 129 215 c 0
 161 215 193 190 193 160 c 0
 193 139 184 124 165 115 c 2
 113 98 l 2
 94 92 85 82 85 69 c 0
 85 50 100 34 131 21 c 0
 156 11 180 6 203 6 c 0
 252 6 295 26 331 65 c 0
 355 91 380 132 408 189 c 0
 429 235 463 300 510 386 c 1
 567 476 629 542 698 583 c 1
 706 571 l 1
 683 552 624 508 608 466 c 0
 602 449 591 427 577 373 c 0
 556 294 535 233 513 193 c 0
 467 110 412 46 368 21 c 0
 320 -6 265 -10 213 -10 c 0
 123 -10 43 37 43 122 c 0
160 405 m 0
 160 446 176 488 210 532 c 0
 296 644 419 700 577 700 c 0
 616 700 664 694 719 682 c 0
 770 671 809 666 835 666 c 0
 870 666 895 675 912 694 c 1
 924 686 l 1
 897 624 851 593 787 593 c 0
 758 593 715 605 659 630 c 0
 595 658 542 673 498 673 c 0
 394 673 285 598 231 533 c 0
 194 489 175 446 175 404 c 0
 175 359 208 318 253 318 c 0
 294 318 335 347 374 406 c 0
 410 461 429 510 429 554 c 0
 429 563 426 578 421 600 c 1
 434 604 l 1
 455 562 465 522 465 485 c 0
 465 433 446 390 409 354 c 0
 372 318 327 301 275 301 c 0
 207 301 160 339 160 405 c 0
EndSplineSet
Validated: 1
EndChar

StartChar: U
Encoding: 85 85 54
Width: 869
GlyphClass: 2
Flags: MW
HStem: -10 15<425 440.5 425 451.5> 242 17<157.5 198 151.5 217> 681 15<433.5 495.5>
VStem: 80 16<319.5 378.5 319.5 405> 342 65<21.5 137> 376 33 583 38<590.5 599 526.5 632> 645 42<16 82.5>
LayerCount: 2
Fore
SplineSet
80 343 m 0xf7
 80 467 205 592 294 646 c 0
 349 679 405 696 462 696 c 0
 571 696 621 652 621 546 c 0
 621 507 605 443 579 397 c 0
 576 392 563 373 541 340 c 2
 473 242 l 2
 411 152 407 86 407 46 c 2
 407 30 l 2
 407 13 416 5 434 5 c 0
 447 5 462 10 481 20 c 0
 530 45 628 109 694 212 c 2
 826 429 l 2
 864 493 905 555 948 615 c 1
 983 619 983 621 1027 623 c 1
 974 546 922 462 871 372 c 2
 764 181 l 2
 751 159 732 126 708 81 c 0
 694 51 687 30 687 19 c 0
 687 13 690 10 697 10 c 0
 712 10 733 20 761 40 c 0
 802 70 840 111 875 163 c 1
 889 155 l 1
 847 97 762 -8 688 -8 c 0
 646 -8 645 28 645 72 c 0
 645 93 646 96 660 129 c 1
 621 78 610 74 590 54 c 0
 547 12 469 -10 434 -10 c 0
 374 -10 342 53 342 117 c 0xfb
 342 157 354 200 380 247 c 0
 390 265 415 301 455 357 c 0
 495 414 524 458 542 489 c 0
 570 538 583 576 583 605 c 0
 583 659 526 681 465 681 c 0
 378 681 295 642 215 565 c 0
 135 488 96 414 96 343 c 0
 96 296 128 259 175 259 c 0
 221 259 267 298 313 375 c 0
 355 446 376 505 376 554 c 0
 376 561 375 577 372 598 c 1
 387 600 l 1
 402 554 409 512 409 474 c 0
 409 406 384 349 335 303 c 0
 292 262 244 242 190 242 c 0
 125 242 80 279 80 343 c 0xf7
EndSplineSet
Validated: 1
EndChar

StartChar: V
Encoding: 86 86 55
Width: 672
GlyphClass: 2
Flags: MW
HStem: 447 15<302 307> 618 16<286.5 298.5> 678 14<1006 1009>
VStem: 243 53<465 502.5> 306 47<573 613>
LayerCount: 2
Fore
SplineSet
82 454 m 1
 114 496 147 532 181 564 c 0
 231 610 271 634 302 634 c 0
 331 634 353 612 353 583 c 0
 353 563 344 539 325 511 c 0
 306 483 296 468 296 467 c 0
 296 463 299 462 305 462 c 0
 326 462 377 493 458 556 c 0
 513 599 563 641 609 682 c 1
 619 673 l 1
 574 608 l 2
 551 571 489 510 468 424 c 0
 455 373 445 335 437 310 c 0
 399 194 379 95 297 13 c 1
 381 58 471 136 565 250 c 1
 689 416 l 2
 763 515 827 586 881 629 c 0
 916 657 957 678 1006 692 c 1
 1009 678 l 1
 949 661 891 624 835 567 c 0
 803 535 760 480 705 403 c 0
 632 303 598 252 529 179 c 0
 461 106 390 48 316 6 c 0
 288 -10 272 -18 265 -18 c 0
 259 -18 255 -15 255 -9 c 0
 255 -8 263 5 278 30 c 0
 294 57 307 106 319 177 c 0
 332 256 335 289 355 345 c 0
 382 420 436 499 513 581 c 1
 380 482 l 2
 345 459 318 447 296 447 c 0
 268 447 243 466 243 493 c 0
 243 512 253 535 274 564 c 0
 295 593 306 609 306 611 c 0
 306 615 302 618 295 618 c 0
 256 618 189 560 94 445 c 1
 82 454 l 1
EndSplineSet
Validated: 1
EndChar

StartChar: W
Encoding: 87 87 56
Width: 954
GlyphClass: 2
Flags: MW
HStem: 249 18<163 203 155.5 208.5> 685 18<442.5 484.5>
VStem: 80 15<336.5 401 336.5 428.5> 387 32 591 74<472.5 619.5>
LayerCount: 2
Fore
SplineSet
80 363 m 0
 80 494 212 614 312 664 c 0
 364 690 416 703 469 703 c 0
 555 703 613 670 646 607 c 0
 658 583 665 558 665 531 c 0
 665 414 579 286 405 144 c 2
 253 20 l 1
 403 101 550 222 696 383 c 1
 898 626 l 2
 912 642 926 660 940 678 c 0
 953 695 962 703 967 703 c 0
 975 703 980 699 980 692 c 0
 980 683 890 473 834 324 c 0
 792 214 761 119 740 38 c 1
 802 159 857 254 907 324 c 0
 981 428 1060 504 1141 552 c 1
 1149 540 l 1
 1059 488 969 392 877 252 c 0
 844 202 814 147 783 87 c 0
 775 68 762 41 744 5 c 0
 738 -6 731 -12 724 -12 c 0
 719 -12 717 -14 716 -14 c 0
 714 -14 714 -11 711 0 c 0
 703 31 699 47 699 96 c 0
 699 147 715 232 737 278 c 0
 760 326 805 400 852 477 c 0
 884 529 911 608 930 641 c 1
 818 500 727 393 658 321 c 0
 554 213 447 123 336 51 c 0
 275 12 239 -8 226 -8 c 0
 216 -8 210 -4 210 4 c 0
 210 9 217 18 232 33 c 0
 392 193 534 344 576 490 c 0
 586 526 591 559 591 587 c 0
 591 652 518 685 451 685 c 0
 374 685 297 651 218 582 c 0
 136 511 95 439 95 363 c 0
 95 310 130 267 181 267 c 0
 225 267 270 303 318 378 c 0
 364 449 387 510 387 559 c 0
 387 569 385 584 382 605 c 1
 396 608 l 1
 412 563 419 521 419 482 c 0
 419 371 351 292 265 261 c 0
 242 253 219 249 198 249 c 0
 128 249 80 293 80 363 c 0
EndSplineSet
Validated: 1
EndChar

StartChar: X
Encoding: 88 88 57
Width: 775
GlyphClass: 2
Flags: MW
HStem: -9 15<152 195> 119 65<73 150.5> 242 19<212 238.5 206 276> 653 14<906 934> 685 15<463 522.5 423.5 525.5>
VStem: 47 16<64.5 101 64.5 120> 133 15<328.5 377> 432 34 554 17<54.5 109> 635 53<501 530 497 618> 946 70<584.5 645.5>
LayerCount: 2
Fore
SplineSet
47 95 m 0
 47 145 85 184 135 184 c 0
 166 184 198 163 198 131 c 0
 198 100 175 81 144 81 c 0
 128 81 114 87 101 100 c 0
 88 113 81 119 78 119 c 0
 68 119 63 110 63 92 c 0
 63 37 122 6 182 6 c 0
 212 6 239 13 265 26 c 0
 291 39 357 60 385 89 c 0
 481 189 635 417 635 585 c 0
 635 651 560 685 491 685 c 0
 435 685 379 666 324 628 c 0
 250 577 148 462 148 353 c 0
 148 304 182 261 230 261 c 0
 247 261 262 264 275 271 c 0
 305 287 339 324 375 383 c 0
 413 446 432 504 432 555 c 0
 432 568 430 584 426 603 c 1
 441 606 l 1
 458 553 466 509 466 473 c 0
 466 411 444 357 402 312 c 0
 359 266 307 242 245 242 c 0
 179 242 133 288 133 354 c 0
 133 400 152 450 188 507 c 0
 247 598 357 700 490 700 c 0
 555 700 606 677 643 631 c 0
 673 594 688 553 688 507 c 0
 688 487 685 464 679 437 c 1
 723 506 760 557 792 592 c 0
 837 642 883 667 929 667 c 0
 973 667 1016 642 1016 600 c 0
 1016 569 991 544 960 544 c 0
 936 544 912 563 912 587 c 0
 912 601 917 614 929 624 c 0
 941 634 946 640 946 642 c 0
 946 649 940 653 928 653 c 0
 863 653 791 588 715 458 c 0
 619 295 571 167 571 74 c 0
 571 32 584 10 610 10 c 0
 648 10 705 61 781 163 c 1
 794 154 l 1
 712 48 651 -4 611 -4 c 0
 573 -4 554 25 554 84 c 0
 554 134 565 189 588 246 c 1
 498 131 400 53 292 14 c 0
 250 -1 212 -9 178 -9 c 0
 110 -9 47 30 47 95 c 0
EndSplineSet
Validated: 1
EndChar

StartChar: Y
Encoding: 89 89 58
Width: 705
GlyphClass: 2
Flags: MW
HStem: -12 17<324.5 370 324.5 393> 111 101 237 15<448.5 469> 336 16<157 202.5 154.5 209> 685 15<397.5 450.5>
VStem: 105 16<391.5 444.5 391.5 463.5> 178 45<57.5 146> 348 13<603 603> 368 40<274 345> 509 29<553 653>
LayerCount: 2
Fore
SplineSet
105 411 m 0
 105 516 214 623 291 666 c 0
 332 689 375 700 420 700 c 0
 504 700 538 648 538 567 c 0
 538 539 531 512 518 486 c 2
 518 486 408 311 408 284 c 0
 408 264 442 252 455 252 c 0
 503 252 567 307 649 415 c 0
 732 525 776 586 870 664 c 1
 881 654 l 1
 822 587 792 529 763 422 c 2
 721 269 l 1
 687 165 628 87 542 37 c 0
 487 4 426 -12 360 -12 c 0
 266 -12 178 32 178 120 c 0
 178 172 215 212 268 212 c 0
 302 212 331 190 331 156 c 0
 331 135 322 120 303 111 c 0
 286 106 268 101 250 95 c 0
 231 88 223 78 223 63 c 0
 223 52 232 40 250 29 c 0
 275 13 306 5 343 5 c 0
 397 5 483 26 519 68 c 0
 539 90 568 133 597 202 c 2
 706 460 l 1
 670 413 588 314 566 293 c 0
 525 256 487 237 451 237 c 0
 405 237 368 281 368 328 c 0
 368 362 380 400 404 446 c 0
 410 457 434 494 473 556 c 0
 497 594 509 621 509 637 c 0
 509 669 480 685 421 685 c 0
 347 685 279 653 216 591 c 0
 176 551 121 478 121 411 c 0
 121 372 137 352 172 352 c 0
 233 352 293 445 319 499 c 0
 335 532 345 567 348 603 c 1
 361 603 l 1
 363 583 364 570 364 563 c 0
 364 509 347 459 314 413 c 0
 278 362 235 336 183 336 c 0
 131 336 105 361 105 411 c 0
EndSplineSet
Validated: 1
EndChar

StartChar: Z
Encoding: 90 90 59
Width: 686
GlyphClass: 2
Flags: MW
HStem: -216 17<203.5 261.5 203.5 310.5> 166 20<299.5 313.5> 267 15<357.5 388> 625 71<310.5 478> 682 15<860 870.5>
VStem: 127 35<-155 -100.5 -157 -92.5> 155 15<418 453.5 418 466.5> 243 34<205 214.5> 496 77<107 171.5> 878 18<661 674>
LayerCount: 2
Fore
SplineSet
127 -125 m 0xedc0
 127 -60 266 -3 466 46 c 1
 491 95 496 121 496 164 c 0
 496 179 480 217 462 230 c 1
 399 190 336 166 291 166 c 0
 267 166 243 180 243 202 c 0
 243 227 259 248 291 263 c 0
 317 275 343 282 372 282 c 0
 406 282 439 274 473 258 c 1
 512 288 543 316 565 341 c 0
 576 353 615 403 682 492 c 1
 674 492 l 2
 647 492 624 516 592 544 c 0
 561 571 541 584 504 602 c 0
 458 625 372 625 335 625 c 0
 286 625 246 604 214 562 c 0
 185 524 170 479 170 428 c 0
 170 408 173 383 179 353 c 1
 164 351 l 1
 158 381 155 407 155 428 c 0
 155 505 182 569 237 620 c 0
 291 670 357 696 434 696 c 0xf3c0
 522 696 597 657 660 579 c 0
 674 562 681 552 682 551 c 0
 691 541 699 534 708 529 c 1
 741 578 765 611 780 629 c 0
 817 675 848 697 872 697 c 0
 888 697 896 689 896 674 c 0
 896 648 881 617 849 581 c 0
 820 548 792 525 765 511 c 0
 749 503 728 497 703 492 c 1
 621 388 l 2
 611 374 595 354 573 327 c 0
 550 302 522 276 488 250 c 1
 545 213 573 168 573 113 c 0
 573 101 572 87 569 74 c 1
 633 93 655 113 692 162 c 1
 705 153 l 1
 666 98 637 79 565 58 c 1
 517 -81 397 -216 224 -216 c 0
 160 -216 127 -185 127 -125 c 0xedc0
162 -136 m 0xe5c0
 162 -178 183 -199 224 -199 c 0
 299 -199 423 -45 458 29 c 1
 380 9 162 -65 162 -136 c 0xe5c0
277 215 m 0
 277 195 288 186 311 186 c 0
 342 186 391 207 450 242 c 1
 432 261 404 267 372 267 c 0
 330 267 277 252 277 215 c 0
725 525 m 1
 730 524 734 524 738 524 c 0
 762 524 791 542 826 579 c 0
 861 616 878 646 878 670 c 0
 878 678 874 682 867 682 c 0xe9c0
 829 682 746 561 725 525 c 1
EndSplineSet
Validated: 1
EndChar

StartChar: bracketleft
Encoding: 91 91 60
Width: 226
GlyphClass: 2
Flags: MW
HStem: -250 23<75 122 122 124> 727 23<363 418 363 363>
LayerCount: 2
Fore
SplineSet
11 -237 m 0
 11 -232 12 -227 13 -223 c 2
 295 709 l 2
 306 743 305 750 328 750 c 2
 420 750 l 2
 430 750 442 749 442 740 c 0
 442 729 429 727 418 727 c 2
 363 727 l 1
 75 -227 l 1
 122 -227 l 2
 134 -227 147 -228 146 -238 c 0
 145 -249 133 -250 124 -250 c 2
 32 -250 l 2
 19 -250 11 -248 11 -237 c 0
EndSplineSet
Validated: 1
EndChar

StartChar: backslash
Encoding: 92 92 61
Width: 430
GlyphClass: 2
Flags: MW
VStem: 260 23<723 729 723 732 723 735.5> 298 23<-229 -223>
LayerCount: 2
Fore
SplineSet
260 722 m 1
 260 732 l 2
 260 739 263 748 271 748 c 0
 282 748 283 735 283 723 c 2
 321 -223 l 1
 321 -233 l 2
 320 -245 314 -248 310 -248 c 0
 299 -248 298 -235 298 -223 c 2
 260 722 l 1
EndSplineSet
Validated: 1
EndChar

StartChar: bracketright
Encoding: 93 93 62
Width: 226
GlyphClass: 2
Flags: MW
HStem: -250 23<-47.5 15 -31 15 -31 50> 727 23<248.5 346 254 303>
LayerCount: 2
Fore
SplineSet
-64 -240 m 0
 -64 -228 -52 -227 -31 -227 c 2
 15 -227 l 1
 303 727 l 1
 254 727 l 2
 243 727 232 729 232 738 c 0
 233 749 245 750 254 750 c 2
 346 750 l 2
 359 750 368 748 368 737 c 0
 368 732 365 728 365 724 c 2
 82 -210 l 2
 72 -243 73 -250 50 -250 c 2
 -43 -250 l 2
 -52 -250 -64 -249 -64 -240 c 0
EndSplineSet
Validated: 1
EndChar

StartChar: asciicircum
Encoding: 94 94 63
Width: 532
GlyphClass: 2
Flags: MW
HStem: 575 51<442 454 442 454>
LayerCount: 2
Fore
SplineSet
233 475 m 0
 233 485 243 491 255 499 c 0
 443 624 444 626 453 626 c 2
 454 626 l 2
 460 626 465 624 575 498 c 0
 581 492 588 486 588 478 c 0
 588 471 579 461 571 461 c 0
 558 461 548 478 443 575 c 1
 442 575 l 1
 423 566 259 461 246 461 c 0
 237 461 233 469 233 475 c 0
EndSplineSet
Validated: 1
EndChar

StartChar: underscore
Encoding: 95 95 64
Width: 685
GlyphClass: 2
Flags: MW
HStem: -233 40<15 530 29 529>
LayerCount: 2
Fore
SplineSet
-1 -214 m 0
 -1 -205 4 -193 29 -193 c 2
 530 -193 l 2
 554 -193 558 -204 558 -212 c 0
 558 -233 532 -233 529 -233 c 2
 27 -233 l 2
 3 -233 -1 -222 -1 -214 c 0
EndSplineSet
Validated: 1
EndChar

StartChar: grave
Encoding: 96 96 65
Width: 430
GlyphClass: 2
Flags: MW
HStem: 499 152<304 393.5>
VStem: 266 142<510 622.5>
LayerCount: 2
Fore
SplineSet
266 613 m 0
 266 632 286 650 304 651 c 0
 323 651 324 648 381 563 c 0
 393 544 408 525 408 515 c 0
 408 505 397 499 390 499 c 0
 384 499 379 503 358 521 c 0
 283 585 266 596 266 613 c 0
EndSplineSet
Validated: 1
EndChar

StartChar: a
Encoding: 97 97 66
Width: 427
GlyphClass: 2
Flags: MW
HStem: -7 19<75 100.5 264.5 268> 326 21<249 263.5 189.5 274> 327 20G<189.5 263.5 431 431>
VStem: 18 39<24.5 107.5> 213 44<23 32.5 18 49.5>
LayerCount: 2
Fore
SplineSet
0 156 m 5xb8
 91 283 143 347 236 347 c 4xd8
 291 347 320 327 322 288 c 5
 348 330 l 5
 431 347 l 5
 315 153 257 44 257 21 c 0
 257 15 261 12 268 12 c 0
 293 12 324 32 360 71 c 4
 370 82 395 112 433 162 c 5
 447 154 l 5
 389 80 l 6
 367 53 348 34 332 22 c 0
 307 3 281 -7 255 -7 c 0
 217 -7 213 4 213 42 c 4
 213 57 231 93 237 117 c 5
 182 34 127 -7 74 -7 c 0
 20 -7 18 41 18 95 c 4
 18 120 24 146 35 175 c 5
 14 148 l 5
 0 156 l 5xb8
57 31 m 4
 57 18 66 12 84 12 c 0
 139 12 214 107 241 153 c 4
 284 224 305 268 305 284 c 4
 305 307 286 326 262 326 c 4
 236 326 188 300 139 226 c 4
 78 134 57 62 57 31 c 4
EndSplineSet
Validated: 1
EndChar

StartChar: b
Encoding: 98 98 67
Width: 383
GlyphClass: 2
Flags: MW
HStem: -7 17<106.5 125> 81 15<293.5 306.5 293.5 307.5> 281 68<302.5 351> 657 20G<454 454>
VStem: 48 45<32.5 41.5 18.5 66.5> 220 20<154 169.5 148.5 191.5> 337 38<241.5 318>
LayerCount: 2
Fore
SplineSet
0 157 m 1
 22 187 89 270 200 405 c 2
 269 489 l 2
 276 500 285 517 299 539 c 2
 380 668 l 1
 454 677 l 1
 392 583 325 475 252 351 c 0
 146 170 93 60 93 23 c 0
 93 14 100 10 113 10 c 0
 150 10 197 38 253 94 c 1
 231 114 220 139 220 169 c 0
 220 214 239 261 277 309 c 0
 298 336 319 349 339 349 c 0
 363 349 375 334 375 302 c 0
 375 243 342 175 278 98 c 1
 284 96 290 96 297 96 c 0
 316 96 333 103 350 118 c 0
 357 125 371 140 389 163 c 1
 402 155 l 1
 383 130 367 113 357 105 c 0
 338 89 318 81 297 81 c 0
 287 81 278 82 268 86 c 1
 205 24 149 -7 101 -7 c 0
 67 -7 48 17 48 48 c 0
 48 85 78 168 117 240 c 0
 125 254 156 306 211 394 c 1
 196 379 179 359 160 334 c 2
 13 149 l 1
 0 157 l 1
240 159 m 0
 240 138 248 119 264 105 c 1
 313 163 337 227 337 256 c 0
 337 269 325 281 312 281 c 0
 293 281 275 249 260 224 c 0
 246 202 240 180 240 159 c 0
EndSplineSet
Validated: 1
EndChar

StartChar: c
Encoding: 99 99 68
Width: 322
GlyphClass: 2
Flags: MW
HStem: -7 18<91.5 124.5> 330 17<239.5 258 196 265>
VStem: 17 55<38 118> 281 52<259 320.5>
LayerCount: 2
Fore
SplineSet
0 156 m 1
 90 283 160 347 232 347 c 0
 284 347 333 322 333 273 c 0
 333 245 313 223 285 223 c 0
 261 223 239 241 239 265 c 0
 239 285 248 299 266 307 c 0
 276 311 281 314 281 316 c 0
 281 325 273 330 257 330 c 0
 222 330 181 289 135 208 c 0
 92 132 72 94 72 54 c 0
 72 22 81 11 102 11 c 0
 148 11 190 27 231 59 c 0
 257 79 290 113 328 162 c 1
 340 154 l 1
 298 100 265 62 239 42 c 0
 197 9 150 -7 99 -7 c 0
 31 -7 17 41 17 108 c 0
 17 128 22 149 31 171 c 1
 14 148 l 1
 0 156 l 1
EndSplineSet
Validated: 1
EndChar

StartChar: d
Encoding: 100 100 69
Width: 419
GlyphClass: 2
Flags: MW
HStem: -7 19<97 116.5 97 128 258.5 259> 327 22<217.5 252>
VStem: 7 64<35 100> 207 45<31 41 16.5 62.5>
LayerCount: 2
Fore
SplineSet
0 157 m 1
 91 285 160 349 246 349 c 0
 273 349 309 326 315 286 c 1
 501 589 l 1
 582 593 l 1
 362 254 252 63 252 19 c 0
 252 14 255 12 262 12 c 0
 286 12 317 32 353 72 c 0
 364 84 388 114 425 163 c 1
 439 154 l 1
 366 67 l 2
 345 43 329 26 315 16 c 0
 294 1 271 -7 247 -7 c 0
 223 -7 207 7 207 55 c 0
 207 70 221 97 229 112 c 1
 196 58 156 -7 100 -7 c 0
 47 -7 7 35 7 88 c 0
 7 112 13 138 27 167 c 1
 14 149 l 1
 0 157 l 1
71 46 m 0
 71 24 90 12 104 12 c 0
 129 12 173 61 238 158 c 0
 275 213 294 244 295 250 c 0
 296 254 296 258 296 263 c 0
 296 293 273 327 231 327 c 0
 204 327 165 280 128 220 c 0
 76 136 71 76 71 46 c 0
EndSplineSet
Validated: 1
EndChar

StartChar: e
Encoding: 101 101 70
Width: 321
GlyphClass: 2
Flags: MW
HStem: -7 18<90.5 123.5 90.5 126.5> 162 14 332 15<231 262>
VStem: 13 59<43.5 117> 281 52<288 299.5 265 314>
LayerCount: 2
Fore
SplineSet
0 156 m 1
 6 166 14 171 25 173 c 1
 47 220 64 254 114 299 c 0
 134 317 189 347 236 347 c 0
 300 347 333 323 333 276 c 0
 333 254 317 233 292 214 c 0
 246 179 194 162 105 162 c 1
 84 117 72 87 72 59 c 0
 72 28 80 11 101 11 c 0
 146 11 190 27 231 59 c 0
 260 81 292 115 327 162 c 1
 340 154 l 1
 299 101 265 64 239 43 c 0
 197 9 151 -7 102 -7 c 0
 28 -7 13 38 13 110 c 0
 13 124 15 139 19 154 c 1
 14 148 l 1
 0 156 l 1
111 176 m 1
 149 177 189 190 224 213 c 0
 272 245 281 271 281 305 c 0
 281 323 272 332 252 332 c 0
 210 332 165 291 111 176 c 1
EndSplineSet
Validated: 1
EndChar

StartChar: f
Encoding: 102 102 71
Width: 327
GlyphClass: 2
Flags: MW
HStem: 11 21 656 15<435 457.5>
VStem: 471 42<610 645.5>
LayerCount: 2
Fore
SplineSet
-117 -216 m 1
 -78 -150 -32 -68 18 31 c 1
 4 44 -4 58 -4 74 c 0
 -4 99 18 125 42 125 c 0
 48 125 55 124 64 121 c 1
 113 220 l 1
 63 196 30 171 13 147 c 1
 0 156 l 1
 19 184 60 213 123 242 c 1
 171 337 223 422 278 497 c 0
 364 614 396 671 455 671 c 0
 485 671 513 650 513 620 c 0
 513 600 504 574 487 544 c 0
 440 460 342 364 189 256 c 1
 165 201 137 140 85 32 c 1
 139 32 243 42 333 162 c 1
 347 155 l 1
 275 60 215 15 74 11 c 1
 41 -63 -5 -150 -45 -216 c 1
 -117 -216 l 1
200 283 m 1
 269 332 321 379 356 425 c 0
 402 484 436 542 458 597 c 0
 466 618 471 633 471 640 c 0
 471 651 464 656 451 656 c 0
 419 656 383 602 352 558 c 0
 331 528 303 494 270 426 c 0
 252 391 233 354 200 283 c 1
EndSplineSet
Validated: 1
EndChar

StartChar: g
Encoding: 103 103 72
Width: 408
GlyphClass: 2
Flags: MW
HStem: -216 14<34.5 63.5 34.5 103.5> -9 16<106 124> 328 19<227.5 241 194 256>
VStem: -22 31<-182 -155.5 -182 -151> 18 60<29.5 102.5> 282 17<283 286 283 297>
LayerCount: 2
Fore
SplineSet
-22 -166 m 0
 -22 -136 14 -87 71 -56 c 0
 89 -46 82 -47 148 -20 c 1
 161 9 l 1
 144 -4 144 -9 104 -9 c 0
 52 -9 18 37 18 90 c 0
 18 115 25 144 37 177 c 1
 13 148 l 1
 0 156 l 1
 17 179 37 204 61 230 c 0
 132 307 161 347 227 347 c 0
 255 347 275 338 287 320 c 0
 295 308 299 300 299 286 c 2
 299 283 l 1
 328 335 l 1
 408 345 l 1
 333 218 273 107 228 12 c 1
 295 36 357 86 414 161 c 1
 427 152 l 1
 364 67 295 15 219 -6 c 1
 177 -93 159 -216 48 -216 c 0
 13 -216 -22 -199 -22 -166 c 0
9 -174 m 0
 9 -190 27 -202 42 -202 c 0
 85 -202 91 -147 140 -39 c 1
 26 -92 9 -137 9 -174 c 0
78 34 m 0
 78 25 101 7 111 7 c 0
 169 7 193 81 216 128 c 0
 254 204 282 255 282 281 c 0
 282 313 269 328 243 328 c 0
 212 328 174 285 125 198 c 0
 79 116 78 69 78 34 c 0
EndSplineSet
Validated: 1
EndChar

StartChar: h
Encoding: 104 104 73
Width: 460
GlyphClass: 2
Flags: MW
HStem: -7 19<295 305> 328 21<362 381.5>
VStem: 238 45<25 26 19 56> 388 32<316.5 319 292.5 322.5>
LayerCount: 2
Fore
SplineSet
-25 -7 m 1
 217 400 l 1
 13 149 l 1
 0 157 l 1
 9 170 42 210 96 276 c 2
 254 471 l 2
 258 475 263 481 269 489 c 2
 368 668 l 1
 445 673 l 1
 110 93 l 1
 248 264 339 349 385 349 c 0
 407 349 420 330 420 308 c 0
 420 277 396 204 375 165 c 0
 363 143 343 113 316 76 c 0
 295 47 283 29 283 23 c 0
 283 15 289 12 301 12 c 0
 325 12 356 32 393 72 c 0
 404 84 428 114 466 163 c 1
 479 155 l 1
 460 130 431 93 390 45 c 0
 356 10 322 -7 288 -7 c 0
 244 -7 238 10 238 40 c 0
 238 72 268 139 291 178 c 0
 303 199 324 228 354 266 c 0
 377 295 388 313 388 320 c 0
 388 325 385 328 378 328 c 0
 346 328 290 281 209 186 c 0
 199 175 150 112 60 -2 c 1
 -25 -7 l 1
EndSplineSet
Validated: 1
EndChar

StartChar: i
Encoding: 105 105 74
Width: 237
GlyphClass: 2
Flags: MW
HStem: -7 19<77 95.5> 328 20G<250 250> 328 20G<250 250> 448 119<267.5 285.5>
VStem: 18 51<23.5 34 18 48> 217 117<497.5 516.5>
LayerCount: 2
Fore
SplineSet
0 157 m 1xbc
 57 232 111 294 162 342 c 1
 250 348 l 1
 130 155 69 47 69 21 c 0
 69 15 73 12 81 12 c 0
 115 12 166 60 236 154 c 2
 243 163 l 1
 256 154 l 1
 198 81 l 2
 162 38 126 -7 65 -7 c 0
 25 -7 18 14 18 33 c 0
 18 63 57 148 98 219 c 2
 151 311 l 1
 115 277 69 224 14 149 c 1
 0 157 l 1xbc
217 499 m 0
 217 534 250 567 285 567 c 0
 313 567 334 544 334 516 c 0
 334 479 304 448 267 448 c 0
 239 448 217 471 217 499 c 0
EndSplineSet
Validated: 1
EndChar

StartChar: j
Encoding: 106 106 75
Width: 423
GlyphClass: 2
Flags: MW
HStem: -216 14<10 38.5 10 47> 449 118<435 453>
VStem: -47 31<-182 -147.5 -182 -132> 384 119<499 518>
LayerCount: 2
Fore
SplineSet
-47 -166 m 0
 -47 -98 98 -32 170 -4 c 1
 173 3 226 104 328 301 c 1
 184 272 75 221 13 148 c 1
 0 155 l 1
 57 238 168 295 339 328 c 1
 424 342 l 1
 347 214 286 103 242 11 c 1
 278 18 313 37 348 69 c 0
 369 88 395 119 429 162 c 1
 442 153 l 1
 407 107 376 73 352 52 c 0
 313 18 273 -1 233 -6 c 1
 202 -72 169 -132 126 -168 c 0
 82 -205 71 -216 23 -216 c 0
 -12 -216 -47 -198 -47 -166 c 0
-16 -174 m 0
 -16 -190 2 -202 18 -202 c 0
 59 -202 106 -144 159 -27 c 1
 107 -51 -16 -121 -16 -174 c 0
384 500 m 0
 384 536 417 567 453 567 c 0
 487 567 503 551 503 517 c 0
 503 481 471 449 435 449 c 0
 407 449 384 472 384 500 c 0
EndSplineSet
Validated: 1
EndChar

StartChar: k
Encoding: 107 107 76
Width: 419
GlyphClass: 2
Flags: MW
HStem: -7 19<221 273> 189 31 333 16<349.5 356> 657 20G<451 451>
VStem: 192 58<18.5 62.5> 243 48<151.5 191.5>
LayerCount: 2
Fore
SplineSet
-18 -6 m 1xf0
 217 400 l 1
 13 149 l 1
 0 157 l 1
 78 256 l 1
 236 450 l 2
 244 459 255 472 268 489 c 2
 372 669 l 1
 451 677 l 1
 390 577 261 352 64 2 c 1
 22 -1 21 -3 -18 -6 c 1xf0
178 198 m 0
 178 210 198 217 238 220 c 0
 276 225 289 268 303 297 c 0
 314 320 339 349 360 349 c 0
 390 349 423 325 423 295 c 0
 423 270 403 250 378 250 c 0
 357 250 337 267 337 288 c 0
 337 297 340 306 348 315 c 2
 360 329 l 2
 360 332 358 333 354 333 c 0
 339 333 319 297 306 269 c 0
 295 246 280 226 262 215 c 1
 288 203 291 179 291 160 c 0xf4
 291 143 277 99 266 70 c 0
 255 41 250 25 250 22 c 0
 250 15 254 12 261 12 c 0
 285 12 315 33 352 73 c 0
 361 83 385 113 424 163 c 1
 438 155 l 1
 403 115 361 53 323 22 c 0
 298 2 269 -7 237 -7 c 0
 205 -7 192 13 192 53 c 0xf8
 192 72 201 98 218 129 c 0
 235 160 243 180 243 189 c 0xf4
 243 194 241 198 238 203 c 1
 233 201 200 189 190 189 c 0
 182 189 178 192 178 198 c 0
EndSplineSet
Validated: 1
EndChar

StartChar: l
Encoding: 108 108 77
Width: 247
GlyphClass: 2
Flags: MW
HStem: -7 19<87.5 95.5> 657 20G<457 457>
VStem: 40 41<18 53>
LayerCount: 2
Fore
SplineSet
0 157 m 1
 31 198 71 249 120 308 c 2
 243 455 l 2
 264 481 288 516 316 560 c 0
 357 626 380 662 384 669 c 1
 457 677 l 1
 317 451 l 2
 265 369 178 215 106 83 c 0
 90 51 81 30 81 21 c 0
 81 15 84 12 91 12 c 0
 116 12 147 35 186 82 c 2
 252 163 l 1
 266 154 l 1
 220 96 193 63 185 55 c 0
 146 14 111 -7 80 -7 c 0
 40 -7 40 19 40 40 c 0
 40 66 61 122 80 160 c 0
 99 200 144 279 215 398 c 1
 14 149 l 1
 0 157 l 1
EndSplineSet
Validated: 1
EndChar

StartChar: m
Encoding: 109 109 78
Width: 690
GlyphClass: 2
Flags: MW
HStem: -7 18<530 533.5> 322 25
VStem: 190 50<303.5 317 284.5 323> 384 55<281.5 314.5> 479 42<18.5 55.5> 611 34<315.5 322.5>
LayerCount: 2
Fore
SplineSet
0 156 m 1
 43 213 73 251 90 270 c 0
 137 321 175 347 204 347 c 0
 226 347 240 336 240 298 c 0
 240 271 218 224 204 193 c 0
 199 183 185 157 161 115 c 1
 227 203 l 2
 253 236 276 263 298 286 c 0
 336 326 371 347 404 347 c 0
 420 347 439 340 439 298 c 0
 439 262 407 186 374 123 c 1
 481 272 559 347 610 347 c 0
 626 347 645 346 645 302 c 0
 645 261 614 168 567 98 c 0
 537 52 521 27 521 22 c 0
 521 15 526 11 534 11 c 0
 557 11 587 32 624 73 c 2
 696 162 l 1
 709 154 l 1
 651 80 l 2
 629 53 610 34 594 22 c 0
 569 3 545 -7 522 -7 c 0
 496 -7 479 18 479 39 c 0
 479 72 503 141 521 177 c 0
 525 184 541 209 572 252 c 0
 598 288 611 311 611 320 c 0
 611 325 608 328 601 328 c 0
 582 328 555 311 520 277 c 0
 456 215 388 123 317 3 c 1
 227 -3 l 1
 263 53 384 252 384 311 c 0
 384 318 382 322 376 322 c 0
 338 322 247 216 104 5 c 1
 13 -3 l 1
 131 178 190 286 190 321 c 0
 190 325 188 327 185 327 c 0
 161 327 104 267 14 148 c 1
 0 156 l 1
EndSplineSet
Validated: 1
EndChar

StartChar: n
Encoding: 110 110 79
Width: 497
GlyphClass: 2
Flags: MW
HStem: -7 18<327.5 337.5> 326 21<172 214 397.5 408.5>
VStem: 191 46<298.5 319.5 289 320> 280 36<17.5 62.5> 416 30<285 320.5>
LayerCount: 2
Fore
SplineSet
0 156 m 1
 55 228 85 273 139 317 c 0
 164 337 186 347 207 347 c 0
 221 347 237 337 237 302 c 0
 237 276 217 226 201 190 c 0
 195 176 179 148 155 104 c 1
 215 183 264 241 302 280 c 0
 346 325 383 347 412 347 c 0
 434 347 446 331 446 297 c 0
 446 273 432 220 421 191 c 0
 416 178 397 147 363 98 c 0
 332 52 316 26 316 21 c 0
 316 14 322 11 333 11 c 0
 361 11 393 30 429 69 c 0
 439 79 463 110 503 162 c 1
 516 154 l 1
 458 80 l 2
 436 53 417 34 402 22 c 0
 377 3 351 -7 324 -7 c 0
 294 -7 280 24 280 47 c 0
 280 78 301 143 323 180 c 0
 334 199 354 227 383 264 c 0
 405 292 416 310 416 318 c 0
 416 323 412 326 405 326 c 0
 352 326 252 219 105 7 c 1
 10 -7 l 1
 130 172 191 280 191 317 c 0
 191 323 189 326 184 326 c 0
 160 326 103 267 13 148 c 1
 0 156 l 1
EndSplineSet
Validated: 1
EndChar

StartChar: o
Encoding: 111 111 80
Width: 345
GlyphClass: 2
Flags: MW
HStem: -7 18<90 108.5> 44 17<231.5 238> 329 18<234.5 261 198.5 265>
VStem: 19 53<26.5 118> 291 34<253.5 285.5 225 293.5>
LayerCount: 2
Fore
SplineSet
0 156 m 1
 91 283 168 347 229 347 c 0
 293 347 325 316 325 255 c 0
 325 195 291 132 224 64 c 1
 227 61 229 61 234 61 c 0
 259 61 298 95 351 162 c 1
 365 154 l 1
 337 119 317 95 305 83 c 0
 277 57 251 44 225 44 c 0
 218 44 212 45 206 47 c 1
 165 11 126 -7 91 -7 c 0
 27 -7 19 45 19 109 c 0
 19 127 24 150 35 177 c 1
 13 148 l 1
 0 156 l 1
72 34 m 0
 72 19 81 11 99 11 c 0
 128 11 158 25 190 55 c 1
 186 61 185 66 185 72 c 0
 185 91 194 101 215 101 c 0
 217 101 220 101 223 100 c 0
 269 172 291 231 291 276 c 0
 291 311 278 329 252 329 c 0
 217 329 177 288 133 207 c 0
 92 131 72 74 72 34 c 0
EndSplineSet
Validated: 1
EndChar

StartChar: p
Encoding: 112 112 81
Width: 444
GlyphClass: 2
Flags: MW
HStem: -8 17<276 285> 327 21<356.5 366>
VStem: 232 34<15.5 55.5> 372 28<316 321.5 295 323>
LayerCount: 2
Fore
SplineSet
-152 -216 m 1
 214 397 l 1
 13 147 l 1
 0 156 l 1
 27 192 96 279 210 418 c 0
 224 434 244 457 268 488 c 1
 326 585 l 1
 379 585 l 1
 121 133 l 1
 276 297 l 2
 313 331 344 348 369 348 c 0
 389 348 400 333 400 310 c 0
 400 280 381 205 359 166 c 0
 348 146 328 115 299 75 c 0
 277 45 266 26 266 19 c 0
 266 12 271 9 281 9 c 0
 307 9 340 29 377 69 c 0
 389 82 413 113 450 162 c 1
 463 153 l 1
 410 77 365 29 330 7 c 0
 313 -3 295 -8 275 -8 c 0
 250 -8 232 17 232 38 c 0
 232 73 254 141 276 179 c 0
 287 197 308 226 339 264 c 0
 361 292 372 311 372 321 c 0
 372 325 369 327 363 327 c 0
 344 327 319 312 286 281 c 0
 260 257 204 199 120 107 c 2
 82 65 l 1
 -78 -216 l 1
 -152 -216 l 1
EndSplineSet
Validated: 1
EndChar

StartChar: q
Encoding: 113 113 82
Width: 388
GlyphClass: 2
Flags: MW
HStem: -216 17<145.5 174> -9 16<69.5 81.5> 329 18<234.5 252.5 202.5 262>
VStem: 18 40<18.5 105.5> 89 48<-185.5 -175.5 -190 -151> 240 16<-102.5 -61 -115 -57.5>
LayerCount: 2
Fore
SplineSet
0 155 m 1
 91 283 176 347 229 347 c 0
 276 347 302 325 307 282 c 1
 336 333 l 1
 416 344 l 1
 232 22 l 1
 276 31 330 78 394 161 c 1
 408 152 l 1
 346 72 291 24 241 7 c 1
 251 -20 256 -47 256 -75 c 0
 256 -155 212 -216 136 -216 c 0
 92 -216 89 -196 89 -175 c 0
 89 -127 131 -36 174 44 c 1
 133 8 97 -9 66 -9 c 0
 23 -9 18 38 18 94 c 0
 18 117 23 145 35 176 c 1
 13 146 l 1
 0 155 l 1
58 24 m 0
 58 13 64 7 75 7 c 0
 96 7 121 19 151 44 c 0
 178 67 203 98 225 135 c 0
 268 208 290 257 290 282 c 0
 290 307 274 329 250 329 c 0
 219 329 179 286 129 202 c 0
 81 121 58 62 58 24 c 0
137 -186 m 0
 137 -194 141 -199 150 -199 c 0
 209 -199 240 -134 240 -71 c 0
 240 -44 235 -17 225 9 c 1
 166 -101 137 -165 137 -186 c 0
EndSplineSet
Validated: 1
EndChar

StartChar: r
Encoding: 114 114 83
Width: 335
GlyphClass: 2
Flags: MW
HStem: -7 19<152 197>
VStem: 126 46<18 59.5> 157 56<372.5 405> 236 51<271.5 311.5>
LayerCount: 2
Fore
SplineSet
0 157 m 1xd0
 17 181 45 215 82 260 c 6
 168 352 l 5
 161 360 157 368 157 377 c 4
 157 395 177 417 195 417 c 4
 207 417 213 411 213 399 c 4xb0
 213 391 206 376 192 355 c 5
 212 346 224 341 243 330 c 4
 265 318 287 310 287 279 c 4
 287 264 283 247 274 228 c 6
 243 167 l 2
 196 77 172 28 172 21 c 0
 172 15 175 12 181 12 c 0
 213 12 266 62 341 163 c 1
 355 154 l 1
 348 145 l 2
 301 83 266 41 241 22 c 0
 216 3 190 -7 164 -7 c 0
 140 -7 126 15 126 42 c 0
 126 77 148 154 183 212 c 4
 218 270 236 302 236 309 c 4
 236 314 218 324 182 343 c 5
 87 242 l 6
 70 222 46 191 14 148 c 1
 0 157 l 1xd0
EndSplineSet
Validated: 1
EndChar

StartChar: s
Encoding: 115 115 84
Width: 290
GlyphClass: 2
Flags: MW
HStem: -7 28<64.5 83 64.5 108>
VStem: -1 41<36 108> 187 51<175.5 264>
LayerCount: 2
Fore
SplineSet
-1 91 m 0
 -1 125 14 142 45 142 c 0
 69 142 91 124 91 100 c 0
 91 84 82 72 65 62 c 0
 48 52 40 45 40 42 c 0
 40 30 58 21 71 21 c 0
 95 21 121 49 150 105 c 0
 174 152 187 202 187 256 c 0
 187 272 181 327 181 344 c 1
 114 272 58 206 14 148 c 1
 0 157 l 1
 38 207 98 278 181 369 c 1
 187 407 204 425 229 425 c 0
 237 425 241 422 241 415 c 0
 241 410 227 392 199 362 c 0
 199 357 198 354 198 354 c 2
 198 341 205 321 224 272 c 0
 235 244 238 210 238 183 c 0
 238 168 237 155 236 146 c 0
 232 122 230 97 219 71 c 1
 234 84 259 115 295 163 c 1
 309 154 l 1
 269 100 238 64 215 44 c 0
 175 10 132 -7 84 -7 c 0
 18 -7 -1 29 -1 91 c 0
EndSplineSet
Validated: 1
EndChar

StartChar: t
Encoding: 116 116 85
Width: 256
GlyphClass: 2
Flags: MW
HStem: -7 19<95 104.5> 463 17<335 429 335 429 323 429>
VStem: 47 37<30.5 37 19.5 56.5>
LayerCount: 2
Fore
SplineSet
0 157 m 5
 24 190 91 273 200 405 c 4
 216 423 239 452 269 489 c 4
 275 498 282 510 293 527 c 4
 316 563 337 593 355 618 c 5
 426 627 l 5
 335 480 l 5
 429 480 l 5
 429 463 l 5
 323 463 l 5
 163 197 84 51 84 23 c 4
 84 16 90 12 100 12 c 4
 123 12 153 32 190 73 c 4
 199 83 224 114 262 163 c 5
 275 155 l 5
 194 54 l 5
 155 13 120 -7 89 -7 c 4
 47 -7 47 19 47 42 c 4
 47 71 72 142 104 200 c 6
 217 401 l 5
 13 149 l 5
 0 157 l 5
EndSplineSet
Validated: 1
EndChar

StartChar: u
Encoding: 117 117 86
Width: 454
GlyphClass: 2
Flags: MW
HStem: -6 18<58.5 94.5> 328 20G<250 250 459 459> 328 20G<250 250 459 459>
VStem: 31 44<18.5 55.5> 242 45<19.5 22.5 17 45.5>
LayerCount: 2
Fore
SplineSet
0 156 m 1xb8
 85 263 l 2
 101 281 127 306 162 340 c 1
 250 348 l 1
 219 298 174 220 117 117 c 0
 89 61 75 29 75 22 c 0
 75 15 79 12 86 12 c 0
 103 12 135 37 181 86 c 0
 230 139 293 224 367 341 c 1
 459 348 l 1
 379 211 l 2
 348 157 324 110 306 70 c 0
 293 42 287 25 287 20 c 0
 287 14 290 11 297 11 c 0
 320 11 350 32 387 72 c 0
 398 84 423 113 460 162 c 1
 473 154 l 1
 452 131 434 105 415 80 c 0
 393 53 374 34 358 22 c 0
 333 3 307 -7 281 -7 c 0
 257 -7 242 6 242 33 c 0
 242 58 260 121 279 161 c 2
 327 253 l 1
 265 161 212 93 166 48 c 0
 130 12 96 -6 68 -6 c 0
 49 -6 31 16 31 35 c 0
 31 76 78 188 151 310 c 1
 116 278 71 224 14 148 c 1
 0 156 l 1xb8
EndSplineSet
Validated: 1
EndChar

StartChar: v
Encoding: 118 118 87
Width: 418
GlyphClass: 2
Flags: MW
HStem: -7 16<136.5 163.5 136.5 164> 81 15<329 341.5 329 342.5> 285 62<363.5 370.5> 326 21<176 215>
VStem: 88 32<19.5 104> 198 32<320 324> 254 18<150 177.5 145.5 192> 382 28<254 315.5>
LayerCount: 2
Fore
SplineSet
0 156 m 1xdf
 57 230 84 272 139 317 c 0
 163 337 185 347 206 347 c 0xdf
 224 347 230 331 230 317 c 0
 230 280 207 187 172 127 c 0
 137 67 120 39 120 25 c 0
 120 14 128 9 145 9 c 0
 182 9 230 37 289 94 c 1
 266 109 254 133 254 167 c 0
 254 217 273 264 311 308 c 0
 333 334 354 347 373 347 c 0xef
 398 347 410 331 410 300 c 0
 410 266 399 230 378 192 c 0
 366 170 345 139 314 98 c 1
 321 96 326 96 332 96 c 0
 351 96 368 103 385 118 c 0
 393 125 406 140 424 162 c 1
 437 154 l 1
 418 130 403 113 392 104 c 0
 373 88 353 81 332 81 c 0
 322 81 312 82 302 86 c 1
 240 24 187 -7 141 -7 c 0
 104 -7 88 31 88 90 c 0
 88 118 97 151 116 188 c 0
 127 208 144 236 169 272 c 0
 188 300 198 317 198 323 c 0
 198 325 195 326 190 326 c 0
 162 326 104 267 14 148 c 1
 0 156 l 1xdf
272 156 m 0
 272 135 281 117 298 105 c 1
 354 172 382 240 382 268 c 0
 382 279 376 285 365 285 c 0xef
 323 285 272 199 272 156 c 0
EndSplineSet
Validated: 1
EndChar

StartChar: w
Encoding: 119 119 88
Width: 579
GlyphClass: 2
Flags: MW
HStem: -7 16<301.5 329 301.5 332.5> -1 17<80 83> 84 15<496.5 510> 292 63<535 538.5> 327 20G<253 253 454 454> 327 20G<253 253 454 454>
VStem: 31 41<21.5 64> 232 55<30.5 32.5 17.5 73.5> 429 20<153 169 145 191.5> 549 34<257.5 325>
LayerCount: 2
Fore
SplineSet
0 156 m 1x63c0
 84 263 l 2
 101 282 127 308 161 340 c 1
 253 347 l 1
 187 251 132 160 90 73 c 0
 78 47 72 31 72 25 c 0
 72 18 76 16 84 16 c 0
 131 16 222 124 361 340 c 1
 454 347 l 1x67c0
 430 312 397 259 357 184 c 0
 310 98 287 43 287 22 c 0
 287 13 294 9 309 9 c 0
 349 9 398 39 455 100 c 1
 437 115 429 137 429 169 c 0
 429 214 444 258 475 302 c 0
 500 337 524 355 546 355 c 0
 570 355 583 340 583 310 c 0
 583 257 548 188 479 103 c 1
 486 101 493 99 500 99 c 0
 523 99 551 120 585 162 c 1
 598 154 l 1
 580 131 565 115 556 107 c 0
 538 92 520 84 500 84 c 0
 490 84 479 86 468 90 c 1
 409 25 356 -7 309 -7 c 0xb3c0
 259 -7 232 5 232 56 c 0
 232 91 279 172 313 238 c 1
 231 125 l 2
 197 80 164 46 135 23 c 0
 114 7 96 -1 70 -1 c 0
 39 -1 31 27 31 44 c 0
 31 84 80 192 151 310 c 1
 116 278 70 224 13 148 c 1
 0 156 l 1x63c0
449 154 m 0
 449 136 454 122 465 111 c 1
 488 137 549 239 549 276 c 0
 549 287 544 292 533 292 c 0x33c0
 517 292 500 261 481 239 c 0
 460 213 449 184 449 154 c 0
EndSplineSet
Validated: 1
EndChar

StartChar: x
Encoding: 120 120 89
Width: 398
GlyphClass: 2
Flags: MW
HStem: -7 18<236.5 242.5> -7 51<29.5 98.5> 310 37 326 21<172 218>
VStem: 179 64<163 168 168 180 180 186 157 196> 343 82<279 312.5>
LayerCount: 2
Fore
SplineSet
-12 45 m 0x4c
 -12 75 4 90 35 90 c 0
 54 90 67 82 75 67 c 0
 83 52 89 44 92 44 c 0
 105 44 140 89 179 163 c 1
 179 180 l 2
 179 212 182 240 191 288 c 0
 194 301 195 310 195 316 c 0
 195 323 191 326 184 326 c 0
 160 326 103 267 13 148 c 1
 0 156 l 1
 43 213 74 252 91 271 c 0
 138 322 176 347 206 347 c 0x5c
 230 347 237 299 241 222 c 1
 285 301 334 347 373 347 c 0
 402 347 425 327 425 298 c 0
 425 270 411 256 382 256 c 0
 363 256 350 263 343 279 c 2
 343 279 338 310 333 310 c 0
 314 310 253 208 243 186 c 1
 243 168 l 2
 243 146 242 114 230 62 c 0
 227 50 225 40 225 31 c 0
 225 18 231 11 242 11 c 0
 265 11 295 31 332 72 c 0
 344 85 368 115 404 162 c 1
 417 154 l 1
 410 145 l 2
 366 85 329 43 302 21 c 0
 278 2 255 -7 230 -7 c 0xac
 180 -7 186 67 181 133 c 1
 134 46 82 -7 44 -7 c 0
 15 -7 -12 16 -12 45 c 0x4c
EndSplineSet
Validated: 1
EndChar

StartChar: y
Encoding: 121 121 90
Width: 465
GlyphClass: 2
Flags: MW
HStem: -216 14<52 80.5 52 111.5> -9 16<96.5 110> 327 20<182 196.5>
VStem: -5 31<-182 -155 -182 -151> 54 35<12.5 73> 203 28<292.5 321.5>
LayerCount: 2
Fore
SplineSet
-5 -166 m 0
 -5 -136 22 -105 78 -74 c 0
 98 -64 139 -46 203 -20 c 1
 312 202 l 1
 266 139 234 98 217 78 c 0
 167 20 126 -9 94 -9 c 0
 67 -9 54 15 54 33 c 0
 54 113 122 216 168 272 c 0
 191 300 203 315 203 319 c 0
 203 324 200 327 193 327 c 0
 164 327 104 266 14 146 c 1
 0 155 l 1
 96 283 163 347 201 347 c 0
 228 347 231 326 231 307 c 0
 231 278 211 208 188 167 c 0
 175 145 154 113 124 72 c 0
 101 40 89 22 89 15 c 0
 89 10 93 7 100 7 c 0
 136 7 207 81 313 230 c 0
 328 251 349 286 377 335 c 1
 462 345 l 1
 440 308 408 251 367 176 c 2
 282 7 l 1
 290 10 302 13 317 19 c 0
 361 37 412 85 471 161 c 1
 484 152 l 1
 407 52 355 14 273 -12 c 1
 201 -148 158 -216 65 -216 c 0
 30 -216 -5 -198 -5 -166 c 0
26 -174 m 0
 26 -190 44 -202 60 -202 c 0
 101 -202 146 -147 195 -39 c 1
 83 -91 26 -136 26 -174 c 0
EndSplineSet
Validated: 1
EndChar

StartChar: z
Encoding: 122 122 91
Width: 387
GlyphClass: 2
Flags: MW
HStem: -216 18<41 74.5> 22 66<60 138> 177 15<193.5 202> 326 21<173 215> 327 20G<197.5 215 383.5 402>
VStem: 5 24<-176.5 -141.5 -176.5 -129.5> 155 21<198 239> 188 39<322.5 340>
LayerCount: 2
Fore
SplineSet
0 155 m 1xf7
 55 227 85 272 139 316 c 0
 164 336 187 347 208 347 c 0xf7
 222 347 227 343 227 337 c 0
 227 328 219 315 219 295 c 0
 219 278 212 259 198 237 c 0
 184 215 176 203 176 201 c 0
 176 195 185 192 202 192 c 0
 220 192 242 196 269 202 c 1
 329 299 371 347 396 347 c 0xef
 408 347 414 341 414 329 c 0
 414 316 406 299 390 278 c 0
 366 246 331 218 284 193 c 1
 252 141 220 104 188 80 c 1
 219 67 240 50 248 31 c 1
 287 43 335 86 393 161 c 1
 406 152 l 1
 346 75 295 30 254 17 c 1
 260 -1 263 -19 263 -36 c 0
 263 -89 240 -132 193 -167 c 0
 150 -199 102 -216 47 -216 c 0
 24 -216 5 -189 5 -166 c 0
 5 -93 163 -5 227 21 c 0
 228 24 228 27 228 29 c 0
 228 56 192 60 178 71 c 1
 153 53 136 41 128 37 c 0
 109 27 90 22 70 22 c 0
 50 22 41 29 41 45 c 0
 41 74 97 88 131 88 c 0
 145 88 159 87 174 84 c 1
 205 109 234 144 261 188 c 1
 234 181 211 177 193 177 c 0
 158 177 155 191 155 218 c 2
 155 239 l 2
 155 254 160 271 171 291 c 0
 182 311 188 322 188 323 c 0
 188 325 187 326 185 326 c 0
 161 326 103 266 13 146 c 1
 0 155 l 1xf7
29 -166 m 0
 29 -187 35 -198 47 -198 c 0
 155 -198 219 -43 227 6 c 1
 122 -53 29 -117 29 -166 c 0
EndSplineSet
Validated: 1
EndChar

StartChar: braceleft
Encoding: 123 123 92
Width: 430
GlyphClass: 2
Flags: MW
HStem: -250 21<264.5 289> 717 33
VStem: 143 64<-187.5 -129.5 -187.5 -124> 226 64<135.5 174.5 134 179>
LayerCount: 2
Fore
SplineSet
128 248 m 0
 128 264 148 259 175 267 c 0
 221 279 270 314 291 363 c 0
 307 397 363 613 381 645 c 0
 422 722 524 750 585 750 c 0
 599 750 602 743 602 739 c 0
 602 721 581 733 538 717 c 0
 448 684 432 610 429 600 c 0
 354 352 358 363 352 352 c 0
 326 297 273 267 211 249 c 1
 268 229 290 193 290 156 c 0
 290 112 207 -109 207 -150 c 0
 207 -225 296 -228 300 -229 c 0
 306 -232 307 -240 303 -245 c 0
 299 -249 292 -250 286 -250 c 0
 243 -250 143 -229 143 -148 c 0
 143 -100 226 112 226 159 c 0
 226 199 198 230 154 237 c 0
 144 239 128 238 128 248 c 0
EndSplineSet
Validated: 1
EndChar

StartChar: bar
Encoding: 124 124 93
Width: 226
GlyphClass: 2
Flags: W
LayerCount: 2
Fore
SplineSet
24 -229 m 0
 24 -222 27 -215 28 -210 c 2
 310 720 l 2
 311 725 315 749 334 749 c 0
 340 749 352 745 352 729 c 0
 352 720 352 722 304 564 c 2
 68 -218 l 2
 64 -228 59 -249 42 -249 c 0
 30 -249 24 -239 24 -229 c 0
EndSplineSet
Validated: 1
EndChar

StartChar: braceright
Encoding: 125 125 94
Width: 430
GlyphClass: 2
Flags: MW
HStem: -250 33 729 21
VStem: 291 64<317.5 363 317.5 367> 374 64<627.5 687>
LayerCount: 2
Fore
SplineSet
-21 -240 m 0
 -21 -222 1 -233 43 -217 c 0
 134 -184 148 -110 152 -100 c 0
 227 148 223 137 229 148 c 0
 255 203 307 232 370 251 c 1
 337 262 291 289 291 344 c 0
 291 390 374 606 374 649 c 0
 374 725 283 728 281 729 c 0
 274 732 273 740 278 745 c 0
 282 749 287 750 294 750 c 0
 338 750 438 729 438 647 c 0
 438 603 355 385 355 341 c 0
 355 294 392 269 427 263 c 0
 436 261 453 262 453 251 c 0
 453 236 430 240 405 233 c 0
 356 220 311 186 290 138 c 0
 280 115 275 90 216 -104 c 0
 209 -127 198 -172 136 -210 c 0
 86 -241 27 -250 -4 -250 c 0
 -18 -250 -21 -244 -21 -240 c 0
EndSplineSet
Validated: 1
EndChar

StartChar: asciitilde
Encoding: 126 126 95
Width: 532
GlyphClass: 2
Flags: MW
HStem: 566 36<507.5 546.5> 632 36<353 397>
LayerCount: 2
Fore
SplineSet
238 577 m 0
 238 590 321 668 385 668 c 0
 450 668 481 602 534 602 c 0
 588 602 638 657 651 664 c 0
 658 668 666 665 666 657 c 0
 666 650 658 644 654 639 c 0
 628 615 573 566 520 566 c 0
 455 566 425 632 369 632 c 0
 313 632 264 568 247 568 c 0
 241 568 238 573 238 577 c 0
EndSplineSet
Validated: 1
EndChar

StartChar: dieresis
Encoding: 168 168 96
Width: 430
GlyphClass: 2
Flags: MW
HStem: 554 119<317.5 335 472.5 489.5>
VStem: 266 117<603 622.5> 421 118<603.5 622.5>
LayerCount: 2
Fore
SplineSet
266 605 m 0
 266 640 300 673 335 673 c 0
 363 673 383 651 383 622 c 0
 383 584 354 554 316 554 c 0
 288 554 266 577 266 605 c 0
421 605 m 0
 421 640 455 673 490 673 c 0
 518 673 539 650 539 622 c 0
 539 585 508 554 471 554 c 0
 443 554 421 578 421 605 c 0
EndSplineSet
Validated: 1
EndChar

StartChar: guillemotleft
Encoding: 171 171 97
Width: 481
GlyphClass: 2
Flags: MW
VStem: 154 66<213 214 213 220> 314 51<213 214 213 220>
LayerCount: 2
Fore
SplineSet
154 214 m 0
 154 226 167 228 226 269 c 0
 385 379 426 429 441 429 c 0
 447 429 450 425 450 421 c 0
 449 402 268 250 220 214 c 1
 220 213 l 1
 271 144 317 42 324 21 c 0
 325 18 326 15 326 12 c 0
 326 6 322 2 317 2 c 0
 310 2 307 6 302 14 c 0
 272 63 246 107 164 198 c 0
 160 202 154 207 154 214 c 0
314 215 m 0
 314 225 323 227 367 260 c 0
 479 345 512 388 526 388 c 0
 531 388 535 385 535 380 c 0
 534 364 408 248 365 214 c 1
 365 213 l 1
 384 182 436 76 436 51 c 0
 436 47 432 43 426 43 c 0
 409 43 412 75 343 171 c 0
 327 194 314 206 314 215 c 0
EndSplineSet
Validated: 1
EndChar

StartChar: acute
Encoding: 180 180 98
Width: 430
GlyphClass: 2
Flags: MW
HStem: 499 152
VStem: 333 205<509 624>
LayerCount: 2
Fore
SplineSet
333 513 m 0
 333 524 346 532 354 538 c 0
 498 651 496 651 511 651 c 0
 526 651 538 638 538 624 c 2
 538 623 l 2
 537 601 510 588 506 586 c 0
 353 499 351 499 346 499 c 0
 338 499 333 505 333 513 c 0
EndSplineSet
Validated: 1
EndChar

StartChar: guillemotright
Encoding: 187 187 99
Width: 481
GlyphClass: 2
Flags: W
LayerCount: 2
Fore
SplineSet
76 51 m 0
 76 67 205 185 245 217 c 1
 206 283 177 358 175 374 c 2
 175 376 l 2
 175 384 179 388 184 388 c 0
 188 388 192 386 195 382 c 0
 203 370 219 326 272 253 c 0
 287 233 296 225 296 217 c 2
 296 216 l 2
 296 211 291 206 282 199 c 0
 133 88 99 43 83 43 c 0
 81 43 76 46 76 51 c 0
161 10 m 0
 161 17 169 24 171 27 c 0
 192 48 297 148 390 217 c 1
 342 289 301 369 286 410 c 0
 282 421 285 429 294 429 c 0
 312 429 314 387 414 270 c 0
 445 232 456 226 456 217 c 2
 456 216 l 2
 455 205 443 202 385 162 c 0
 225 52 185 2 169 2 c 0
 164 2 161 6 161 10 c 0
EndSplineSet
Validated: 1
EndChar

StartChar: dotlessi
Encoding: 305 305 100
Width: 237
GlyphClass: 2
Flags: MW
HStem: -7 19<77 95.5> 328 20G<250 250> 328 20G<250 250>
VStem: 18 51<23.5 34 18 48>
LayerCount: 2
Fore
SplineSet
0 157 m 1xb0
 57 232 111 294 162 342 c 1
 250 348 l 1
 130 155 69 47 69 21 c 0
 69 15 73 12 81 12 c 0
 115 12 166 60 236 154 c 2
 243 163 l 1
 256 154 l 1
 198 81 l 2
 162 38 126 -7 65 -7 c 0
 25 -7 18 14 18 33 c 0
 18 63 57 148 98 219 c 2
 151 311 l 1
 115 277 69 224 14 149 c 1
 0 157 l 1xb0
EndSplineSet
Validated: 1
EndChar

StartChar: circumflex
Encoding: 710 710 101
Width: 532
GlyphClass: 2
Flags: MW
HStem: 444 99<436 509.5>
VStem: 304 213<452 455>
LayerCount: 2
Fore
SplineSet
304 452 m 0
 304 458 310 462 317 467 c 0
 430 542 430 543 436 543 c 2
 437 543 l 2
 441 543 443 541 509 466 c 0
 513 462 517 459 517 454 c 0
 517 450 512 444 507 444 c 0
 499 444 493 454 430 513 c 1
 418 507 320 444 312 444 c 0
 306 444 304 448 304 452 c 0
EndSplineSet
Validated: 1
EndChar

StartChar: caron
Encoding: 711 711 102
Width: 532
GlyphClass: 2
Flags: MW
HStem: 443 31<383 392>
VStem: 304 213<531 534>
LayerCount: 2
Fore
SplineSet
517 534 m 0
 517 528 511 525 504 520 c 0
 391 445 391 443 385 443 c 0
 381 443 378 446 312 521 c 0
 308 525 304 527 304 532 c 0
 304 536 309 542 314 542 c 0
 322 542 328 533 391 474 c 1
 392 474 l 1
 404 480 501 542 509 542 c 0
 515 542 517 538 517 534 c 0
EndSplineSet
Validated: 1
EndChar

StartChar: tilde
Encoding: 732 732 103
Width: 400
GlyphClass: 2
Flags: MW
HStem: 443 23<302 326> 483 22<210 236.5>
VStem: 141 256<449 500.5>
LayerCount: 2
Fore
SplineSet
141 450 m 0
 141 458 191 505 229 505 c 0
 268 505 286 466 318 466 c 0
 350 466 381 499 389 503 c 0
 393 505 397 503 397 498 c 0
 397 494 393 490 391 487 c 0
 375 472 342 443 310 443 c 0
 271 443 253 483 220 483 c 0
 187 483 156 445 146 445 c 0
 142 445 141 448 141 450 c 0
EndSplineSet
Validated: 1
EndChar

StartChar: acutecomb
Encoding: 769 769 104
Width: 0
GlyphClass: 2
Flags: MW
HStem: 629 152
VStem: -138 205<639 754>
LayerCount: 2
Fore
SplineSet
-138 643 m 0
 -138 654 -125 662 -117 668 c 0
 27 781 25 781 40 781 c 0
 55 781 67 768 67 754 c 2
 67 753 l 2
 66 731 39 718 35 716 c 0
 -118 629 -120 629 -125 629 c 0
 -133 629 -138 635 -138 643 c 0
EndSplineSet
Validated: 1
EndChar

StartChar: Io
Encoding: 1025 1025 105
Width: 585
GlyphClass: 2
Flags: MW
HStem: -9 15<294 364> 272 19<476.5 502 435 508.5> 362 15<483.5 499 481.5 513> 411 15<447.5 454> 442 14<577 616.5 577 619.5> 684 20<553 582.5 478 607> 745 119<529.5 547 684.5 701.5>
VStem: 86 74<88 259> 301 62<515.5 525 484.5 591.5> 330 27 478 117<794 813.5> 512 27<385.5 395.5> 519 27<497 523 491 537.5> 553 17<194 220.5> 633 118<794.5 813.5> 682 16<545 604>
LayerCount: 2
Fore
SplineSet
478 796 m 0x0222
 478 831 512 864 547 864 c 0
 575 864 595 842 595 813 c 0
 595 775 566 745 528 745 c 0
 500 745 478 768 478 796 c 0x0222
633 796 m 0
 633 831 667 864 702 864 c 0
 730 864 751 841 751 813 c 0
 751 776 720 745 683 745 c 0
 655 745 633 769 633 796 c 0
86 192 m 0xfd55
 86 326 229 398 360 420 c 1
 321 455 301 494 301 537 c 0
 301 646 421 704 535 704 c 0
 630 704 698 662 698 572 c 0
 698 507 651 442 588 442 c 0
 546 442 519 476 519 518 c 0
 519 557 545 592 596 623 c 1
 605 612 l 1
 565 578 546 542 546 504 c 0
 546 478 564 456 590 456 c 0
 643 456 682 517 682 573 c 0
 682 635 638 684 576 684 c 0
 530 684 449 663 412 622 c 0
 376 582 363 548 363 502 c 0xfd8d
 363 467 397 440 410 426 c 1
 436 426 l 2
 472 426 539 414 539 386 c 0
 539 370 526 362 500 362 c 0
 467 362 430 375 387 400 c 1
 332 382 246 347 211 294 c 0
 177 243 160 188 160 129 c 0
 160 47 243 6 328 6 c 0
 439 6 518 71 545 158 c 0
 550 175 553 188 553 200 c 0
 553 241 528 272 489 272 c 0
 464 272 439 260 416 236 c 0
 378 197 358 147 357 83 c 1
 342 83 l 1
 334 103 330 123 330 143 c 0
 330 225 394 291 476 291 c 0
 528 291 570 254 570 202 c 0
 570 154 551 108 512 67 c 0
 464 16 402 -9 326 -9 c 0
 262 -9 208 8 163 43 c 0
 112 83 86 132 86 192 c 0xfd55
426 409 m 1
 448 388 470 377 493 377 c 0
 505 377 512 382 512 389 c 0xfd15
 512 402 469 411 451 411 c 0
 444 411 435 410 426 409 c 1
EndSplineSet
Validated: 1
EndChar

StartChar: Ecyril
Encoding: 1028 1028 106
Width: 585
GlyphClass: 2
Flags: MW
HStem: -9 14<294 369 275 378.5> 292 16<443 453> 404 17<391 424> 442 14<577 616.5 577 619.5> 684 20<553 582.5 478 607>
VStem: 86 74<88 336> 387 47<313.5 345.5> 406 52<371 400.5> 519 27<497 523 491 537.5> 682 16<545 604>
LayerCount: 2
Fore
SplineSet
86 192 m 0xfdc0
 86 480 421 704 535 704 c 0
 630 704 698 662 698 572 c 0
 698 507 651 442 588 442 c 0
 546 442 519 476 519 518 c 0
 519 557 545 592 596 623 c 1
 605 612 l 1
 565 578 546 542 546 504 c 0
 546 478 564 456 590 456 c 0
 643 456 682 517 682 573 c 0
 682 635 638 684 576 684 c 0
 530 684 452 660 412 622 c 0
 354 565 276 448 230 367 c 1
 254 381 291 394 311 402 c 0
 337 412 396 421 412 421 c 0
 436 421 458 401 458 377 c 0xfdc0
 458 365 454 354 449 341 c 0
 445 331 434 318 434 317 c 0
 434 310 439 308 447 308 c 0
 472 308 546 329 590 372 c 1
 601 363 l 1
 551 315 469 292 437 292 c 0
 409 292 387 312 387 340 c 0xfec0
 387 351 389 361 393 374 c 0
 396 384 406 398 406 399 c 0
 406 402 404 404 399 404 c 0
 383 404 277 380 213 335 c 1
 204 318 l 2
 177 263 160 188 160 129 c 0
 160 47 232 5 318 5 c 0
 420 5 572 61 648 163 c 1
 662 154 l 1
 580 48 431 -9 326 -9 c 0
 262 -9 208 8 163 43 c 0
 112 83 86 132 86 192 c 0xfdc0
EndSplineSet
Validated: 1
EndChar

StartChar: Icyril
Encoding: 1030 1030 107
Width: 576
GlyphClass: 2
Flags: MW
HStem: -12 17<120 155.5 117.5 163> 113 101<36 95> 686 15<735.5 758>
VStem: -26 41<57.5 145.5> 195 57<286.5 448.5> 631 16<358.5 406>
LayerCount: 2
Fore
SplineSet
-26 120 m 0
 -26 171 10 214 62 214 c 0
 95 214 123 190 123 158 c 0
 123 137 114 122 95 113 c 2
 43 98 l 2
 24 92 15 82 15 67 c 0
 15 48 30 32 60 20 c 0
 84 10 106 5 129 5 c 0
 182 5 268 27 305 71 c 0
 320 88 346 133 385 205 c 1
 306 212 195 284 195 374 c 0
 195 523 372 616 510 660 c 0
 592 686 675 700 758 701 c 1
 758 686 l 1
 713 686 676 667 648 630 c 0
 625 600 603 554 582 491 c 0
 574 466 559 415 538 339 c 0
 530 309 517 274 501 234 c 1
 566 262 631 317 631 400 c 0
 631 412 629 430 625 452 c 1
 641 453 l 1
 645 430 647 412 647 400 c 0
 647 307 569 240 492 214 c 1
 442 113 367 45 268 10 c 0
 226 -5 184 -12 142 -12 c 0
 98 -12 60 -1 28 20 c 0
 -8 44 -26 78 -26 120 c 0
252 311 m 0
 252 262 325 230 392 218 c 1
 477 395 l 1
 544 525 570 617 687 682 c 1
 554 663 475 638 389 558 c 0
 335 509 295 452 269 387 c 0
 258 360 252 334 252 311 c 0
EndSplineSet
Validated: 1
EndChar

StartChar: Yi
Encoding: 1031 1031 108
Width: 576
GlyphClass: 2
Flags: MW
HStem: -12 17<120 155.5 117.5 163> 113 101<36 95> 686 15<735.5 758> 745 119<529.5 547 684.5 701.5>
VStem: -26 41<57.5 145.5> 195 57<286.5 448.5> 478 117<794 813.5> 631 16<358.5 406> 633 118<794.5 813.5>
LayerCount: 2
Fore
SplineSet
478 796 m 0x1280
 478 831 512 864 547 864 c 0
 575 864 595 842 595 813 c 0
 595 775 566 745 528 745 c 0
 500 745 478 768 478 796 c 0x1280
633 796 m 0
 633 831 667 864 702 864 c 0
 730 864 751 841 751 813 c 0
 751 776 720 745 683 745 c 0
 655 745 633 769 633 796 c 0
-26 120 m 0xed
 -26 171 10 214 62 214 c 0
 95 214 123 190 123 158 c 0
 123 137 114 122 95 113 c 2
 43 98 l 2
 24 92 15 82 15 67 c 0
 15 48 30 32 60 20 c 0
 84 10 106 5 129 5 c 0
 182 5 268 27 305 71 c 0
 320 88 346 133 385 205 c 1
 306 212 195 284 195 374 c 0
 195 523 372 616 510 660 c 0
 592 686 675 700 758 701 c 1
 758 686 l 1
 713 686 676 667 648 630 c 0
 625 600 603 554 582 491 c 0
 574 466 559 415 538 339 c 0
 530 309 517 274 501 234 c 1
 566 262 631 317 631 400 c 0
 631 412 629 430 625 452 c 1
 641 453 l 1
 645 430 647 412 647 400 c 0
 647 307 569 240 492 214 c 1
 442 113 367 45 268 10 c 0
 226 -5 184 -12 142 -12 c 0
 98 -12 60 -1 28 20 c 0
 -8 44 -26 78 -26 120 c 0xed
252 311 m 0
 252 262 325 230 392 218 c 1
 477 395 l 1
 544 525 570 617 687 682 c 1
 554 663 475 638 389 558 c 0
 335 509 295 452 269 387 c 0
 258 360 252 334 252 311 c 0
EndSplineSet
Validated: 1
EndChar

StartChar: Ucyrilbreve
Encoding: 1038 1038 109
Width: 705
GlyphClass: 2
Flags: MW
HStem: -12 17<324.5 370 324.5 393> 111 101 237 15<448.5 469> 336 16<157 202.5 154.5 209> 676 17<646.5 666.5 641 705.5> 685 15<397.5 450.5>
VStem: 105 16<391.5 444.5 391.5 463.5> 178 45<57.5 146> 348 13<603 603> 368 40<274 345> 509 29<553 653> 573 52<701.5 764>
LayerCount: 2
Fore
SplineSet
573 750 m 0x0810
 573 778 593 800 621 800 c 0
 644 800 667 781 667 758 c 0
 667 738 658 724 640 716 c 0
 630 712 625 708 625 706 c 0
 625 697 633 693 649 693 c 0
 684 693 766 694 854 785 c 1
 868 772 l 1
 803 708 738 676 673 676 c 0
 620 676 573 701 573 750 c 0x0810
105 411 m 0xf7e0
 105 516 214 623 291 666 c 0
 332 689 375 700 420 700 c 0
 504 700 538 648 538 567 c 0
 538 539 531 512 518 486 c 2
 518 486 408 311 408 284 c 0
 408 264 442 252 455 252 c 0
 503 252 567 307 649 415 c 0
 732 525 776 586 870 664 c 1
 881 654 l 1
 822 587 792 529 763 422 c 2
 721 269 l 1
 687 165 628 87 542 37 c 0
 487 4 426 -12 360 -12 c 0
 266 -12 178 32 178 120 c 0
 178 172 215 212 268 212 c 0
 302 212 331 190 331 156 c 0
 331 135 322 120 303 111 c 0
 286 106 268 101 250 95 c 0
 231 88 223 78 223 63 c 0
 223 52 232 40 250 29 c 0
 275 13 306 5 343 5 c 0
 397 5 483 26 519 68 c 0
 539 90 568 133 597 202 c 2
 706 460 l 1
 670 413 588 314 566 293 c 0
 525 256 487 237 451 237 c 0
 405 237 368 281 368 328 c 0
 368 362 380 400 404 446 c 0
 410 457 434 494 473 556 c 0
 497 594 509 621 509 637 c 0
 509 669 480 685 421 685 c 0
 347 685 279 653 216 591 c 0
 176 551 121 478 121 411 c 0
 121 372 137 352 172 352 c 0
 233 352 293 445 319 499 c 0
 335 532 345 567 348 603 c 1
 361 603 l 1
 363 583 364 570 364 563 c 0
 364 509 347 459 314 413 c 0
 278 362 235 336 183 336 c 0
 131 336 105 361 105 411 c 0xf7e0
EndSplineSet
Validated: 1
EndChar

StartChar: Acyril
Encoding: 1040 1040 110
Width: 858
GlyphClass: 2
Flags: MW
HStem: -8 14<91.5 154 91.5 155.5> 95 113 358 47<427.5 437 384 467.5> 683 20
VStem: -30 42<44.5 142> 319 37<234 330> 600 16<175 213.5>
LayerCount: 2
Fore
SplineSet
-30 117 m 0
 -30 167 7 208 58 208 c 0
 88 208 117 185 117 155 c 0
 117 134 108 120 90 111 c 0
 73 105 56 100 39 95 c 0
 21 88 12 77 12 63 c 0
 12 26 71 6 112 6 c 0
 196 6 282 57 372 158 c 1
 337 208 319 255 319 299 c 0
 319 361 354 405 414 405 c 0
 460 405 499 384 531 340 c 1
 618 439 690 511 744 557 c 0
 832 631 918 680 1006 703 c 1
 975 661 951 626 933 596 c 0
 901 544 858 456 805 332 c 0
 752 209 705 112 662 38 c 1
 746 46 813 87 864 163 c 1
 876 155 l 1
 817 73 743 28 652 21 c 1
 640 0 l 1
 606 -1 601 -2 548 -5 c 1
 560 16 569 32 574 44 c 1
 512 65 420 99 382 146 c 1
 289 43 199 -8 112 -8 c 0
 35 -8 -30 43 -30 117 c 0
356 245 m 0
 356 223 365 198 383 170 c 1
 520 328 l 1
 502 348 480 358 455 358 c 0
 400 358 356 301 356 245 c 0
392 158 m 1
 428 114 517 81 578 58 c 1
 593 105 600 148 600 188 c 0
 600 239 550 281 530 314 c 1
 392 158 l 1
541 327 m 1
 564 290 616 242 616 186 c 0
 616 164 614 138 609 110 c 1
 727 298 l 1
 805 428 l 2
 849 495 872 576 957 673 c 1
 879 640 803 589 729 523 c 0
 686 485 624 420 541 327 c 1
EndSplineSet
Validated: 1
EndChar

StartChar: Be
Encoding: 1041 1041 111
Width: 875
GlyphClass: 2
Flags: MW
HStem: -10 16<191.5 227.5 191.5 239> 301 17<241 273.5 230.5 301> 362 14<664.5 674 657 677> 593 73<772.5 852.5> 673 27<498 520>
VStem: 43 42<59.5 147.5> 160 15<381.5 425 381.5 425.5> 429 36<459 558.5> 538 16<47 89.5 47 90> 793 66<246.5 249 189.5 293.5>
LayerCount: 2
Fore
SplineSet
43 122 m 0
 43 173 78 215 129 215 c 0
 161 215 193 190 193 160 c 0
 193 139 184 124 165 115 c 2
 113 98 l 2
 94 92 85 82 85 69 c 0
 85 50 100 34 131 21 c 0
 156 11 180 6 203 6 c 0
 252 6 295 26 331 65 c 0
 355 91 380 132 408 189 c 0
 429 235 463 300 510 386 c 1
 567 476 629 542 698 583 c 1
 706 571 l 1
 683 552 622 506 606 464 c 0
 600 447 580 410 566 356 c 0
 553 307 530 234 513 193 c 0
 488 134 445 53 368 21 c 0
 317 0 265 -10 213 -10 c 0
 123 -10 43 37 43 122 c 0
160 405 m 0
 160 446 176 488 210 532 c 0
 296 644 419 700 577 700 c 0
 616 700 664 694 719 682 c 0
 770 671 809 666 835 666 c 0
 870 666 895 675 912 694 c 1
 924 686 l 1
 897 624 851 593 787 593 c 0
 758 593 715 605 659 630 c 0
 595 658 542 673 498 673 c 0
 394 673 285 598 231 533 c 0
 194 489 175 446 175 404 c 0
 175 359 208 318 253 318 c 0
 294 318 335 347 374 406 c 0
 410 461 429 510 429 554 c 0
 429 563 426 578 421 600 c 1
 434 604 l 1
 455 562 465 522 465 485 c 0
 465 433 446 390 409 354 c 0
 372 318 327 301 275 301 c 0
 207 301 160 339 160 405 c 0
538 61 m 0
 538 119 573 167 643 205 c 1
 651 191 l 1
 608 168 554 119 554 60 c 0
 554 34 573 10 598 10 c 0
 624 10 695 37 730 91 c 0
 772 155 793 217 793 276 c 0
 793 311 747 343 715 354 c 0
 703 358 686 362 668 362 c 0
 661 362 646 359 640 352 c 1
 630 363 l 1
 635 372 647 376 667 376 c 0
 681 376 710 371 736 362 c 0
 784 346 859 281 859 217 c 0
 859 162 832 111 777 63 c 0
 724 16 669 -7 613 -7 c 0
 572 -7 538 20 538 61 c 0
EndSplineSet
Validated: 1
EndChar

StartChar: Ve
Encoding: 1042 1042 112
Width: 844
GlyphClass: 2
Flags: MW
HStem: -8 15<155 203.5 155 295> 99 118 301 23<210.5 220 187 307.5> 339 37<626 629> 686 15<573 639>
VStem: 17 42<51 151> 122 15<379 419.5 379 421> 437 13<601 604> 510 16<47 89.5 47 90> 765 66<246.5 249 189.5 293.5> 839 54<558 573 525.5 596>
LayerCount: 2
Fore
SplineSet
17 125 m 0
 17 177 52 217 104 217 c 0
 137 217 166 194 166 163 c 0
 166 143 157 128 138 118 c 0
 112 109 112 108 86 99 c 0
 67 92 59 83 59 71 c 0
 59 31 132 7 178 7 c 0
 229 7 274 29 312 72 c 0
 336 99 362 143 391 204 c 2
 454 336 l 2
 503 438 556 516 612 569 c 0
 650 605 695 637 748 665 c 1
 710 679 665 686 613 686 c 0
 533 686 457 673 382 646 c 0
 298 616 234 573 188 519 c 0
 154 479 137 439 137 400 c 0
 137 358 166 324 208 324 c 0
 232 324 260 334 293 355 c 0
 367 404 428 493 437 601 c 1
 450 604 l 1
 455 574 457 550 457 531 c 0
 457 397 370 301 245 301 c 0
 176 301 122 334 122 400 c 0
 122 442 140 484 176 527 c 0
 263 630 427 701 616 701 c 0
 670 701 723 694 775 679 c 1
 793 687 817 695 847 703 c 1
 851 688 l 1
 829 682 810 676 795 670 c 1
 860 641 893 600 893 546 c 0
 893 505 871 467 828 432 c 0
 804 413 764 390 708 362 c 1
 790 329 831 281 831 217 c 0
 831 162 804 111 749 63 c 0
 696 16 641 -7 585 -7 c 0
 544 -7 510 20 510 61 c 0
 510 119 545 167 615 205 c 1
 623 191 l 1
 580 168 526 119 526 60 c 0
 526 34 545 10 570 10 c 0
 596 10 667 37 702 91 c 0
 744 155 765 217 765 276 c 0
 765 311 713 338 687 354 c 1
 660 344 638 339 620 339 c 0
 607 339 600 344 600 354 c 0
 600 369 613 376 639 376 c 0
 653 376 669 374 686 369 c 1
 718 381 785 410 808 457 c 0
 829 499 839 539 839 577 c 0
 839 615 787 642 764 657 c 1
 712 628 628 577 602 528 c 0
 588 502 574 462 552 383 c 2
 532 311 l 2
 483 137 398 -8 192 -8 c 0
 96 -8 17 36 17 125 c 0
EndSplineSet
Validated: 1
EndChar

StartChar: Ge
Encoding: 1043 1043 113
Width: 631
GlyphClass: 2
Flags: MW
HStem: -10 16<191.5 227.5 191.5 239> 301 17<241 273.5 230.5 301> 593 73<772.5 852.5> 673 27<498 520>
VStem: 43 42<59.5 147.5> 160 15<381.5 425 381.5 425.5> 429 36<459 558.5>
LayerCount: 2
Fore
SplineSet
43 122 m 0
 43 173 78 215 129 215 c 0
 161 215 193 190 193 160 c 0
 193 139 184 124 165 115 c 2
 113 98 l 2
 94 92 85 82 85 69 c 0
 85 50 100 34 131 21 c 0
 156 11 180 6 203 6 c 0
 252 6 295 26 331 65 c 0
 355 91 380 132 408 189 c 0
 429 235 463 300 510 386 c 1
 567 476 629 542 698 583 c 1
 706 571 l 1
 683 552 624 508 608 466 c 0
 602 449 591 427 577 373 c 0
 556 294 535 233 513 193 c 0
 467 110 412 46 368 21 c 0
 320 -6 265 -10 213 -10 c 0
 123 -10 43 37 43 122 c 0
160 405 m 0
 160 446 176 488 210 532 c 0
 296 644 419 700 577 700 c 0
 616 700 664 694 719 682 c 0
 770 671 809 666 835 666 c 0
 870 666 895 675 912 694 c 1
 924 686 l 1
 897 624 851 593 787 593 c 0
 758 593 715 605 659 630 c 0
 595 658 542 673 498 673 c 0
 394 673 285 598 231 533 c 0
 194 489 175 446 175 404 c 0
 175 359 208 318 253 318 c 0
 294 318 335 347 374 406 c 0
 410 461 429 510 429 554 c 0
 429 563 426 578 421 600 c 1
 434 604 l 1
 455 562 465 522 465 485 c 0
 465 433 446 390 409 354 c 0
 372 318 327 301 275 301 c 0
 207 301 160 339 160 405 c 0
EndSplineSet
Validated: 1
EndChar

StartChar: De
Encoding: 1044 1044 114
Width: 835
GlyphClass: 2
Flags: MW
HStem: -7 15<245 287 245 293.5> 93 16<195.5 217.5> 237 15<264.5 328.5 264.5 330.5> 684 14<492 564>
VStem: 132 16<40.5 70.5 40.5 76> 137 64<355.5 374 317 440> 517 16<510 549.5> 835 22<367 410.5>
LayerCount: 2
Fore
SplineSet
132 59 m 0xfb
 132 93 164 109 227 109 c 0
 277 109 337 96 407 69 c 1
 430 94 453 130 476 178 c 2
 538 304 l 2
 601 432 671 530 750 599 c 1
 717 630 686 651 655 664 c 0
 623 677 586 684 542 684 c 0
 416 684 318 627 252 513 c 0
 217 454 201 399 201 349 c 0
 201 285 233 252 296 252 c 0
 361 252 414 286 458 353 c 0
 497 412 517 476 517 544 c 0
 517 555 516 570 514 589 c 1
 530 589 l 1
 532 570 533 556 533 546 c 0
 533 474 512 406 470 343 c 0
 423 272 365 237 296 237 c 0
 203 237 137 309 137 402 c 0xf7
 137 478 181 547 270 610 c 0
 351 668 442 698 542 698 c 0
 629 698 703 669 763 610 c 1
 789 632 818 650 852 664 c 1
 858 650 l 1
 824 636 797 619 778 597 c 1
 806 562 826 531 837 506 c 0
 851 475 857 439 857 400 c 0
 857 334 843 267 816 199 c 0
 761 62 672 -7 550 -7 c 0
 514 -7 472 2 425 22 c 1
 363 2 313 -7 274 -7 c 0
 215 -7 132 11 132 59 c 0xfb
148 59 m 0xfb
 148 22 222 8 268 8 c 0
 306 8 342 19 376 42 c 1
 295 76 236 93 199 93 c 0
 165 93 148 82 148 59 c 0xfb
469 44 m 1
 514 23 551 12 580 12 c 0
 617 12 656 27 698 58 c 0
 740 89 774 136 800 198 c 0
 824 256 835 313 835 370 c 0
 835 451 813 521 766 582 c 1
 746 556 691 513 672 459 c 2
 622 320 l 2
 597 251 580 190 556 144 c 0
 532 97 498 64 469 44 c 1
EndSplineSet
Validated: 1
EndChar

StartChar: Ie
Encoding: 1045 1045 115
Width: 585
GlyphClass: 2
Flags: MW
HStem: -9 15<294 364> 272 19<476.5 502 435 508.5> 362 15<483.5 499 481.5 513> 411 15<447.5 454> 442 14<577 616.5 577 619.5> 684 20<553 582.5 478 607>
VStem: 86 74<88 259> 301 62<515.5 525 484.5 591.5> 330 27 512 27<385.5 395.5> 519 27<497 523 491 537.5> 553 17<194 220.5> 682 16<545 604>
LayerCount: 2
Fore
SplineSet
86 192 m 0xfed8
 86 326 229 398 360 420 c 1
 321 455 301 494 301 537 c 0
 301 646 421 704 535 704 c 0
 630 704 698 662 698 572 c 0
 698 507 651 442 588 442 c 0
 546 442 519 476 519 518 c 0
 519 557 545 592 596 623 c 1
 605 612 l 1
 565 578 546 542 546 504 c 0
 546 478 564 456 590 456 c 0
 643 456 682 517 682 573 c 0
 682 635 638 684 576 684 c 0
 530 684 449 663 412 622 c 0
 376 582 363 548 363 502 c 0xff38
 363 467 397 440 410 426 c 1
 436 426 l 2
 472 426 539 414 539 386 c 0
 539 370 526 362 500 362 c 0
 467 362 430 375 387 400 c 1
 332 382 246 347 211 294 c 0
 177 243 160 188 160 129 c 0
 160 47 243 6 328 6 c 0
 439 6 518 71 545 158 c 0
 550 175 553 188 553 200 c 0
 553 241 528 272 489 272 c 0
 464 272 439 260 416 236 c 0
 378 197 358 147 357 83 c 1
 342 83 l 1
 334 103 330 123 330 143 c 0
 330 225 394 291 476 291 c 0
 528 291 570 254 570 202 c 0
 570 154 551 108 512 67 c 0
 464 16 402 -9 326 -9 c 0
 262 -9 208 8 163 43 c 0
 112 83 86 132 86 192 c 0xfed8
426 409 m 1
 448 388 470 377 493 377 c 0
 505 377 512 382 512 389 c 0xfe58
 512 402 469 411 451 411 c 0
 444 411 435 410 426 409 c 1
EndSplineSet
Validated: 1
EndChar

StartChar: Zhe
Encoding: 1046 1046 116
Width: 1294
GlyphClass: 2
Flags: MW
HStem: -9 15<152 195> 119 65<73 150.5> 242 19<212 238.5 206 276> 653 14<1397.5 1418> 685 15<427.5 522.5 423.5 525.5>
VStem: 47 16<64.5 101 64.5 120> 133 15<328.5 374.5 328.5 377> 432 34 635 53<501 530 497 618> 886 67<77.5 206> 1430 70<584.5 645.5>
LayerCount: 2
Fore
SplineSet
47 95 m 0
 47 145 85 184 135 184 c 0
 166 184 198 163 198 131 c 0
 198 100 175 81 144 81 c 0
 128 81 114 87 101 100 c 0
 88 113 81 119 78 119 c 0
 68 119 63 110 63 92 c 0
 63 37 122 6 182 6 c 0
 212 6 239 13 265 26 c 0
 291 39 357 60 385 89 c 0
 481 189 635 417 635 585 c 0
 635 651 560 685 491 685 c 0
 364 685 256 586 200 499 c 0
 165 445 148 396 148 353 c 0
 148 304 182 261 230 261 c 0
 247 261 262 264 275 271 c 0
 305 287 339 324 375 383 c 0
 413 446 432 504 432 555 c 0
 432 568 430 584 426 603 c 1
 441 606 l 1
 458 553 466 509 466 473 c 0
 466 411 444 357 402 312 c 0
 359 266 307 242 245 242 c 0
 179 242 133 288 133 354 c 0
 133 400 152 450 188 507 c 0
 247 598 357 700 490 700 c 0
 555 700 606 677 643 631 c 0
 673 594 688 553 688 507 c 0
 688 487 685 464 679 437 c 1
 679 437 662 382 636 327 c 1
 763 359 l 1
 941 668 l 1
 1018 673 l 1
 849 377 l 1
 976 407 l 1
 1016 460 1058 499 1108 543 c 0
 1168 596 1210 617 1284 647 c 0
 1333 667 1378 667 1417 667 c 0
 1460 667 1500 639 1500 600 c 0
 1500 569 1475 544 1444 544 c 0
 1420 544 1396 563 1396 587 c 0
 1396 601 1401 614 1413 624 c 0
 1425 634 1430 640 1430 642 c 0
 1430 649 1424 653 1412 653 c 0
 1334 653 1112 487 1032 346 c 0
 1008 303 988 255 979 231 c 0
 962 187 953 146 953 108 c 0
 953 47 1028 6 1121 6 c 0
 1159 6 1225 61 1301 163 c 1
 1314 154 l 1
 1232 48 1169 -8 1129 -8 c 0
 1026 -8 988 9 948 45 c 0
 906 82 886 129 886 183 c 0
 886 229 901 292 937 350 c 2
 960 385 l 1
 837 357 l 1
 633 -2 l 1
 548 -7 l 1
 575 36 664 188 752 340 c 1
 627 309 l 1
 615 286 602 264 588 246 c 0
 489 123 400 53 292 14 c 0
 250 -1 212 -9 178 -9 c 0
 110 -9 47 30 47 95 c 0
EndSplineSet
Validated: 1
EndChar

StartChar: Ze
Encoding: 1047 1047 117
Width: 585
GlyphClass: 2
Flags: MW
HStem: -9 19<219 239 177.5 250> 301 14<227 236.5> 372 14<347 359.5 345 371> 414 13<342 360> 475 15<311.5 328 311.5 345> 691 13<484 505 484 509>
VStem: 48 19<122 161.5> 266 17<518.5 527> 274 48<225.5 263.5> 287 30<394 399> 430 26<590 603 583 617.5> 512 72<217 313> 610 67<562 577 556.5 631>
LayerCount: 2
Fore
SplineSet
48 122 m 0xff78
 48 201 115 286 190 308 c 0
 205 313 220 315 234 315 c 0
 284 315 322 287 322 242 c 0
 322 209 304 175 269 139 c 0
 252 122 232 106 208 91 c 1
 194 95 l 1
 247 151 274 200 274 245 c 0xfeb8
 274 282 252 301 221 301 c 0
 209 301 196 298 182 293 c 0
 127 271 67 200 67 128 c 0
 67 116 68 105 72 94 c 0
 88 49 143 10 212 10 c 0
 266 10 359 37 411 90 c 0
 461 141 492 194 506 248 c 0
 510 265 512 281 512 296 c 0
 512 330 466 364 439 379 c 1
 409 374 382 372 360 372 c 0
 334 372 287 377 287 397 c 0
 287 401 290 406 295 411 c 0
 306 422 325 427 346 427 c 0
 378 427 415 417 436 409 c 1
 504 446 610 519 610 605 c 0
 610 657 538 691 480 691 c 0
 462 691 443 687 423 680 c 0
 365 660 300 607 285 546 c 0
 284 541 283 536 283 531 c 0
 283 506 299 490 324 490 c 0
 332 490 341 491 350 495 c 0
 397 513 430 565 430 615 c 0
 430 620 430 626 429 631 c 1
 447 638 l 1
 453 624 456 610 456 596 c 0
 456 570 445 546 424 524 c 0
 404 503 365 475 325 475 c 0
 290 475 266 495 266 525 c 0
 266 529 266 534 267 539 c 0
 280 616 374 684 445 699 c 0
 461 702 476 704 492 704 c 0
 518 704 544 700 569 691 c 0
 629 671 664 639 674 595 c 0
 676 588 677 581 677 573 c 0
 677 540 661 505 629 473 c 0
 593 436 543 407 479 388 c 1
 543 350 584 297 584 237 c 0
 584 197 565 154 523 111 c 0
 472 59 408 24 330 4 c 0
 297 -4 265 -9 235 -9 c 0
 203 -9 173 -4 144 6 c 0
 80 27 48 67 48 122 c 0xff78
317 399 m 0xfe78
 317 389 339 386 351 386 c 0
 368 386 388 390 412 398 c 1
 401 404 372 414 348 414 c 0
 336 414 317 411 317 399 c 0xfe78
EndSplineSet
Validated: 1
EndChar

StartChar: Ii
Encoding: 1048 1048 118
Width: 869
GlyphClass: 2
Flags: MW
HStem: -10 15<425 440.5 425 451.5> 242 17<157.5 198 151.5 217> 681 15<433.5 495.5>
VStem: 80 16<319.5 378.5 319.5 405> 342 65<21.5 137> 376 33 583 38<590.5 599 526.5 632> 645 42<16 82.5>
LayerCount: 2
Fore
SplineSet
80 343 m 0xf7
 80 467 205 592 294 646 c 0
 349 679 405 696 462 696 c 0
 571 696 621 652 621 546 c 0
 621 507 605 443 579 397 c 0
 576 392 563 373 541 340 c 2
 473 242 l 2
 411 152 407 86 407 46 c 2
 407 30 l 2
 407 13 416 5 434 5 c 0
 447 5 462 10 481 20 c 0
 530 45 628 109 694 212 c 2
 826 429 l 2
 864 493 905 555 948 615 c 1
 983 619 983 621 1027 623 c 1
 974 546 922 462 871 372 c 2
 764 181 l 2
 751 159 732 126 708 81 c 0
 694 51 687 30 687 19 c 0
 687 13 690 10 697 10 c 0
 712 10 733 20 761 40 c 0
 802 70 840 111 875 163 c 1
 889 155 l 1
 847 97 762 -8 688 -8 c 0
 646 -8 645 28 645 72 c 0
 645 93 646 96 660 129 c 1
 621 78 610 74 590 54 c 0
 547 12 469 -10 434 -10 c 0
 374 -10 342 53 342 117 c 0xfb
 342 157 354 200 380 247 c 0
 390 265 415 301 455 357 c 0
 495 414 524 458 542 489 c 0
 570 538 583 576 583 605 c 0
 583 659 526 681 465 681 c 0
 378 681 295 642 215 565 c 0
 135 488 96 414 96 343 c 0
 96 296 128 259 175 259 c 0
 221 259 267 298 313 375 c 0
 355 446 376 505 376 554 c 0
 376 561 375 577 372 598 c 1
 387 600 l 1
 402 554 409 512 409 474 c 0
 409 406 384 349 335 303 c 0
 292 262 244 242 190 242 c 0
 125 242 80 279 80 343 c 0xf7
EndSplineSet
Validated: 1
EndChar

StartChar: Iibreve
Encoding: 1049 1049 119
Width: 869
GlyphClass: 2
Flags: MW
HStem: -10 15<425 440.5 425 451.5> 242 17<157.5 198 151.5 217> 676 17<781.5 801.5 776 840.5> 681 15<433.5 495.5>
VStem: 80 16<319.5 378.5 319.5 405> 342 65<21.5 137> 376 33 583 38<590.5 599 526.5 632> 645 42<16 82.5> 708 52<701.5 764>
LayerCount: 2
Fore
SplineSet
708 750 m 0x2040
 708 778 728 800 756 800 c 0
 779 800 802 781 802 758 c 0
 802 738 793 724 775 716 c 0
 765 712 760 708 760 706 c 0
 760 697 768 693 784 693 c 0
 819 693 901 694 989 785 c 1
 1003 772 l 1
 938 708 873 676 808 676 c 0
 755 676 708 701 708 750 c 0x2040
80 343 m 0xdb80
 80 467 205 592 294 646 c 0
 349 679 405 696 462 696 c 0
 571 696 621 652 621 546 c 0
 621 507 605 443 579 397 c 0
 576 392 563 373 541 340 c 2
 473 242 l 2
 411 152 407 86 407 46 c 2
 407 30 l 2
 407 13 416 5 434 5 c 0
 447 5 462 10 481 20 c 0
 530 45 628 109 694 212 c 2
 826 429 l 2
 864 493 905 555 948 615 c 1
 983 619 983 621 1027 623 c 1
 974 546 922 462 871 372 c 2
 764 181 l 2
 751 159 732 126 708 81 c 0
 694 51 687 30 687 19 c 0
 687 13 690 10 697 10 c 0
 712 10 733 20 761 40 c 0
 802 70 840 111 875 163 c 1
 889 155 l 1
 847 97 762 -8 688 -8 c 0
 646 -8 645 28 645 72 c 0
 645 93 646 96 660 129 c 1
 621 78 610 74 590 54 c 0
 547 12 469 -10 434 -10 c 0
 374 -10 342 53 342 117 c 0xdd80
 342 157 354 200 380 247 c 0
 390 265 415 301 455 357 c 0
 495 414 524 458 542 489 c 0
 570 538 583 576 583 605 c 0
 583 659 526 681 465 681 c 0
 378 681 295 642 215 565 c 0
 135 488 96 414 96 343 c 0
 96 296 128 259 175 259 c 0
 221 259 267 298 313 375 c 0
 355 446 376 505 376 554 c 0
 376 561 375 577 372 598 c 1
 387 600 l 1
 402 554 409 512 409 474 c 0
 409 406 384 349 335 303 c 0
 292 262 244 242 190 242 c 0
 125 242 80 279 80 343 c 0xdb80
EndSplineSet
Validated: 1
EndChar

StartChar: Ka
Encoding: 1050 1050 120
Width: 815
GlyphClass: 2
Flags: MW
HStem: -8 15<120 156.5 120 231.5> -5 35<619 700.5> 114 99<31 89> 322 41<557 561> 417 17<324 358> 588 16<324.5 344> 686 14<1013 1013>
VStem: -31 40<56.5 145> 290 52<437.5 471> 353 47<544.5 582.5> 595 82<43.5 95> 640 52<234 248.5 212.5 256>
LayerCount: 2
Fore
SplineSet
-31 118 m 0xbfc0
 -31 172 4 213 58 213 c 0
 90 213 117 190 117 158 c 0
 117 137 108 123 89 114 c 2
 37 99 l 2
 18 93 9 82 9 67 c 0
 9 46 25 31 58 20 c 0
 82 12 107 7 133 7 c 0
 180 7 220 23 253 56 c 0
 280 83 315 141 356 232 c 0
 412 355 475 460 546 547 c 1
 487 497 436 460 394 436 c 0
 372 424 352 417 336 417 c 0
 312 417 290 437 290 461 c 0
 290 481 300 505 321 534 c 0
 342 563 353 578 353 579 c 0
 353 586 348 588 340 588 c 0
 300 588 234 532 143 417 c 1
 130 426 l 1
 226 544 299 604 350 604 c 0
 378 604 400 584 400 556 c 0
 400 533 390 508 371 481 c 0
 352 454 342 440 342 439 c 0
 342 436 344 434 349 434 c 0
 367 434 410 460 477 511 c 0
 551 567 611 621 657 673 c 1
 669 664 l 1
 624 613 548 544 521 456 c 2
 454 239 l 1
 399 104 320 -8 143 -8 c 0
 49 -8 -31 31 -31 118 c 0xbfc0
534 339 m 0
 534 355 545 363 569 363 c 0
 576 363 590 360 609 354 c 1
 634 364 670 380 687 403 c 0
 696 416 709 439 725 474 c 0
 792 614 888 689 1013 700 c 1
 1013 686 l 1
 980 684 953 676 931 663 c 0
 904 647 877 617 852 571 c 0
 815 506 790 465 778 450 c 0
 742 403 681 368 624 344 c 1
 660 316 692 275 692 222 c 0x7fd0
 692 203 688 154 679 75 c 0
 678 64 677 55 677 50 c 0
 677 37 681 30 688 30 c 0
 713 30 758 74 821 163 c 1
 833 155 l 1
 755 48 690 -5 637 -5 c 0
 601 -5 595 35 595 83 c 0x7fe0
 595 107 607 145 630 196 c 0
 637 212 640 227 640 241 c 0x7fd0
 640 271 627 295 622 309 c 0
 619 316 607 323 601 333 c 1
 583 325 567 322 555 322 c 0
 541 322 534 327 534 339 c 0
EndSplineSet
Validated: 1
EndChar

StartChar: El
Encoding: 1051 1051 121
Width: 872
GlyphClass: 2
Flags: MW
HStem: -8 14<91.5 154 91.5 155.5> -4 18<712.5 726.5> 95 113 683 20G<1006 1010.5>
VStem: -30 42<44.5 142> 666 37<41 46 24 65.5>
LayerCount: 2
Fore
SplineSet
-30 117 m 0xbc
 -30 167 7 208 58 208 c 0
 88 208 117 185 117 155 c 0
 117 134 108 120 90 111 c 0
 73 105 56 100 39 95 c 0
 21 88 12 77 12 63 c 0
 12 26 71 6 112 6 c 0xbc
 196 6 282 57 372 158 c 2
 372 158 467 271 531 340 c 0
 612 427 690 511 744 557 c 0
 832 631 918 680 1006 703 c 0
 1015 703 1020 699 1020 692 c 0
 1020 685 1013 674 1002 658 c 0
 983 631 961 598 938 557 c 0
 911 509 890 469 873 434 c 0
 760 198 703 63 703 29 c 0
 703 19 708 14 717 14 c 0
 760 14 850 131 878 169 c 1
 892 161 l 1
 810 51 748 -4 705 -4 c 0x7c
 671 -4 666 24 666 58 c 0
 666 73 667 90 667 106 c 0
 667 186 726 315 804 435 c 0
 844 497 880 560 986 678 c 1
 933 668 803 589 729 523 c 0
 687 486 604 398 530 314 c 2
 382 146 l 2
 289 43 199 -8 112 -8 c 0
 35 -8 -30 43 -30 117 c 0xbc
EndSplineSet
Validated: 1
EndChar

StartChar: Em
Encoding: 1052 1052 122
Width: 1019
GlyphClass: 2
Flags: MW
HStem: -9 15<84 134 84 144> 107 103<25 77>
VStem: -38 37<44 136.5> 809 41<34.5 40 18 59>
LayerCount: 2
Fore
SplineSet
-38 110 m 0
 -38 163 -1 210 51 210 c 0
 83 210 111 187 111 156 c 0
 111 135 100 119 77 107 c 1
 28 95 l 2
 8 90 -1 80 -1 64 c 0
 -1 24 61 6 107 6 c 0
 161 6 211 26 258 66 c 0
 287 91 320 128 358 174 c 2
 643 526 l 1
 710 601 765 654 808 685 c 0
 819 693 827 697 832 697 c 0
 841 697 846 693 846 686 c 0
 846 682 843 676 839 669 c 0
 788 579 730 453 668 291 c 0
 623 172 611 145 575 26 c 1
 595 47 639 108 707 212 c 0
 840 414 964 562 1081 655 c 0
 1116 683 1140 697 1153 697 c 0
 1162 697 1167 693 1167 686 c 0
 1167 679 1160 668 1149 652 c 0
 1130 625 1108 592 1085 551 c 0
 1058 503 1037 463 1020 428 c 0
 907 192 850 57 850 23 c 0
 850 13 855 8 864 8 c 0
 907 8 998 125 1025 163 c 1
 1039 155 l 1
 957 45 895 -10 852 -10 c 0
 819 -10 809 18 809 51 c 0
 809 67 811 84 814 100 c 0
 827 179 861 260 949 406 c 0
 987 469 1027 554 1133 672 c 1
 1012 594 874 439 720 204 c 2
 640 85 l 2
 631 71 616 51 596 25 c 0
 576 3 559 -9 547 -9 c 0
 536 -9 532 0 530 8 c 0
 528 15 525 17 525 48 c 0
 525 108 586 261 647 388 c 0
 676 448 708 538 801 660 c 1
 707 580 600 457 478 293 c 2
 410 202 l 2
 384 167 359 138 337 115 c 0
 260 32 183 -9 105 -9 c 0
 26 -9 -38 34 -38 110 c 0
EndSplineSet
Validated: 1
EndChar

StartChar: En
Encoding: 1053 1053 123
Width: 822
GlyphClass: 2
Flags: MW
HStem: -9 15<116 159 625.5 665> 103 113 418 18<319.5 350.5> 591 14<317.5 341.5> 686 14<969.5 1002.5>
VStem: -33 40<61 147> 287 52<438.5 474> 350 48<541 585> 580 33<16 72.5> 1030 32<577 664.5>
LayerCount: 2
Fore
SplineSet
-33 122 m 0
 -33 172 1 216 51 216 c 0
 82 216 116 194 116 164 c 0
 116 146 109 131 94 119 c 0
 90 116 72 110 41 103 c 0
 18 97 7 87 7 71 c 0
 7 51 23 34 55 21 c 0
 80 11 104 6 128 6 c 0
 195 6 250 43 293 118 c 0
 314 154 337 199 363 252 c 1
 303 228 244 193 188 147 c 1
 179 158 l 1
 236 207 299 244 371 270 c 1
 426 383 485 477 547 551 c 1
 492 508 458 482 445 473 c 0
 393 437 355 418 332 418 c 0
 307 418 287 439 287 464 c 0
 287 484 297 509 318 537 c 0
 339 565 350 580 350 582 c 0
 350 588 345 591 338 591 c 0
 297 591 229 533 135 418 c 1
 123 425 l 1
 216 545 290 605 344 605 c 0
 374 605 398 581 398 552 c 0
 398 530 389 505 369 480 c 0
 349 455 339 442 339 440 c 0
 339 437 342 436 346 436 c 0
 355 436 372 443 396 458 c 2
 460 505 l 1
 653 651 l 1
 661 641 l 1
 625 605 553 553 527 486 c 2
 468 314 l 1
 464 299 l 1
 664 363 l 1
 704 430 729 463 758 498 c 0
 867 633 919 700 993 700 c 0
 1034 700 1062 668 1062 627 c 0
 1062 527 911 440 819 400 c 0
 803 393 776 382 738 367 c 1
 654 177 613 61 613 21 c 0
 613 11 619 6 632 6 c 0
 698 6 793 113 828 163 c 1
 841 155 l 1
 797 95 707 -9 629 -9 c 0
 586 -9 580 23 580 64 c 0
 580 81 581 98 581 117 c 0
 581 152 587 188 600 225 c 0
 607 246 631 297 653 342 c 1
 618 332 492 292 459 281 c 1
 413 141 378 61 268 16 c 0
 226 -1 182 -9 136 -9 c 0
 47 -9 -33 37 -33 122 c 0
748 385 m 1
 816 413 868 442 905 470 c 0
 952 506 989 552 1016 609 c 0
 1025 629 1030 644 1030 656 c 0
 1030 673 1011 686 994 686 c 0
 945 686 897 651 852 583 c 0
 823 540 789 474 748 385 c 1
EndSplineSet
Validated: 1
EndChar

StartChar: Ocyril
Encoding: 1054 1054 124
Width: 580
GlyphClass: 2
Flags: MW
HStem: -11 15<227 295> 570 15<573.5 606> 691 14<586 640>
VStem: 92 50<135 143.5 128.5 240> 284 15<98 98> 638 29<490.5 512 444 535.5> 710 18<610.5 640>
LayerCount: 2
Fore
SplineSet
92 189 m 0
 92 291 136 390 224 487 c 0
 310 581 465 705 617 705 c 0
 673 705 728 670 728 618 c 0
 728 603 723 583 713 560 c 1
 697 565 l 1
 706 585 710 603 710 617 c 0
 710 663 664 691 616 691 c 0
 556 691 455 659 390 597 c 0
 343 552 279 482 234 394 c 0
 193 314 170 262 150 190 c 0
 144 168 142 151 142 136 c 0
 142 121 144 110 144 98 c 0
 144 55 205 4 249 4 c 0
 360 4 464 98 561 286 c 0
 612 386 638 463 638 518 c 0
 638 553 622 570 590 570 c 0
 557 570 520 547 476 500 c 0
 441 462 406 409 373 342 c 0
 340 276 319 217 309 164 c 0
 307 153 303 131 299 98 c 1
 284 98 l 1
 291 193 325 293 385 398 c 0
 456 523 525 585 590 585 c 0
 641 585 667 539 667 485 c 0
 667 403 625 309 544 201 c 0
 438 60 340 -11 250 -11 c 0
 148 -11 92 81 92 189 c 0
EndSplineSet
Validated: 1
EndChar

StartChar: Pecyril
Encoding: 1055 1055 125
Width: 857
GlyphClass: 2
Flags: MW
HStem: -10 16<191.5 227.5 191.5 239> 301 17<241 273.5 230.5 301> 594 73<946 1029.5 961 1029.5> 673 27<498 520>
VStem: 43 42<59.5 147.5> 160 15<381.5 425 381.5 425.5> 429 36<459 558.5> 651 37<35 40 18 59.5>
LayerCount: 2
Fore
SplineSet
43 122 m 0
 43 173 78 215 129 215 c 0
 161 215 193 190 193 160 c 0
 193 139 184 124 165 115 c 2
 113 98 l 2
 94 92 85 82 85 69 c 0
 85 50 100 34 131 21 c 0
 156 11 180 6 203 6 c 0
 252 6 295 26 331 65 c 0
 355 91 380 132 408 189 c 0
 429 235 463 300 510 386 c 1
 567 476 629 542 698 583 c 1
 706 571 l 1
 683 552 622 510 606 468 c 0
 600 451 578 411 564 357 c 0
 543 278 531 235 513 193 c 0
 477 111 445 53 368 21 c 0
 317 0 265 -10 213 -10 c 0
 123 -10 43 37 43 122 c 0
160 405 m 0
 160 446 176 488 210 532 c 0
 296 644 419 700 577 700 c 0
 616 700 742 694 834 682 c 0
 937 669 986 667 1012 667 c 0
 1047 667 1072 676 1089 695 c 1
 1101 687 l 1
 1074 625 1028 594 964 594 c 2
 961 594 l 2
 931 594 872 595 774 630 c 0
 698 657 542 673 498 673 c 0
 394 673 285 598 231 533 c 0
 194 489 175 446 175 404 c 0
 175 359 208 318 253 318 c 0
 294 318 335 347 374 406 c 0
 410 461 429 510 429 554 c 0
 429 563 426 578 421 600 c 1
 434 604 l 1
 455 562 465 522 465 485 c 0
 465 433 446 390 409 354 c 0
 372 318 327 301 275 301 c 0
 207 301 160 339 160 405 c 0
651 52 m 0
 651 67 652 84 652 100 c 0
 652 180 690 272 780 396 c 0
 828 462 858 496 908 560 c 1
 923 551 l 1
 894 513 865 489 848 454 c 0
 735 218 688 57 688 23 c 0
 688 13 693 8 702 8 c 0
 745 8 836 125 863 163 c 1
 877 155 l 1
 795 45 733 -10 690 -10 c 0
 656 -10 651 18 651 52 c 0
EndSplineSet
Validated: 1
EndChar

StartChar: Er
Encoding: 1056 1056 126
Width: 708
GlyphClass: 2
Flags: MW
HStem: -10 17<191.5 237 191.5 284.5> 114 101 305 24<250.5 279 230.5 317> 688 14<577.5 644.5>
VStem: 59 44<48.5 147> 161 16<383.5 424 383.5 426> 477 21 836 46<536 542 464.5 580>
LayerCount: 2
Fore
SplineSet
59 121 m 0
 59 173 96 215 148 215 c 0
 180 215 211 191 211 160 c 0
 211 139 202 123 183 114 c 0
 166 109 149 104 131 98 c 0
 112 92 103 82 103 67 c 0
 103 30 170 7 213 7 c 0
 261 7 302 25 339 62 c 0
 371 94 416 173 474 300 c 1
 432 296 392 281 352 253 c 1
 343 264 l 1
 382 294 428 311 481 315 c 1
 557 480 651 593 760 653 c 1
 726 676 677 688 612 688 c 0
 543 688 471 672 397 641 c 0
 318 607 260 565 220 514 c 0
 192 477 177 441 177 407 c 0
 177 360 207 329 254 329 c 0
 304 329 357 365 413 437 c 0
 454 490 476 548 477 612 c 1
 490 612 l 1
 495 582 498 555 498 532 c 0
 498 469 478 416 439 372 c 0
 399 327 348 305 286 305 c 0
 215 305 161 339 161 407 c 0
 161 445 177 484 208 523 c 0
 251 577 312 621 392 655 c 0
 467 687 541 702 614 702 c 0
 675 702 730 690 782 666 c 1
 806 679 833 689 861 696 c 1
 864 683 l 1
 836 675 814 665 797 656 c 1
 853 614 882 568 882 516 c 0
 882 413 776 345 683 322 c 0
 666 318 603 314 572 309 c 1
 542 215 505 146 459 101 c 0
 383 27 335 -10 234 -10 c 0
 140 -10 59 34 59 121 c 0
577 325 m 1
 623 335 741 358 770 393 c 0
 814 447 836 505 836 567 c 0
 836 593 800 620 771 643 c 1
 732 617 661 577 639 527 c 0
 628 503 595 389 577 325 c 1
EndSplineSet
Validated: 1
EndChar

StartChar: Es
Encoding: 1057 1057 127
Width: 746
GlyphClass: 2
Flags: MW
HStem: -8 14<447.5 508.5> 284 18<627 652 587 659.5> 335 16 688 17<403.5 428.5 365.5 441.5> 690 16<784.5 809>
VStem: 144 50<457 497 435 524.5> 270 67<66.5 206> 493 14<99 99> 704 17<195.5 228> 844 35<634.5 644 591 660>
LayerCount: 2
Fore
SplineSet
144 505 m 0xefc0
 144 544 158 580 186 613 c 0
 237 674 314 705 417 705 c 0
 440 705 466 703 496 699 c 1
 494 684 l 1
 475 687 453 688 430 688 c 0xf7c0
 377 688 329 671 286 635 c 0
 225 584 194 528 194 466 c 0
 194 404 236 366 321 350 c 1
 408 480 559 622 706 683 c 0
 743 698 773 706 796 706 c 0
 844 706 879 668 879 620 c 0
 879 562 840 506 762 451 c 0
 700 407 632 376 561 356 c 0
 506 341 466 336 416 335 c 1
 390 283 372 244 363 220 c 0
 346 176 337 135 337 97 c 0
 337 36 410 6 475 6 c 0
 568 6 648 67 683 131 c 0
 697 157 704 183 704 208 c 0
 704 248 679 284 640 284 c 0
 614 284 587 270 562 243 c 0
 533 212 515 164 507 99 c 1
 493 99 l 1
 486 126 483 149 483 166 c 0
 483 241 549 302 625 302 c 0
 679 302 721 263 721 209 c 0
 721 158 697 110 651 65 c 0
 601 16 542 -8 475 -8 c 0
 420 -8 372 9 332 45 c 0
 290 82 270 129 270 183 c 0
 270 229 284 279 314 336 c 1
 225 351 144 409 144 505 c 0xefc0
425 351 m 1
 470 352 500 356 546 369 c 0
 643 397 725 454 790 538 c 0
 826 585 844 621 844 648 c 0
 844 672 822 690 796 690 c 0xefc0
 718 690 567 577 425 351 c 1
EndSplineSet
Validated: 1
EndChar

StartChar: Te
Encoding: 1058 1058 128
Width: 1038
GlyphClass: 2
Flags: MW
HStem: -10 16<191.5 227.5 191.5 239> 301 17<241 273.5 230.5 301> 594 73<1058 1162> 673 27<498 567.5>
VStem: 43 42<59.5 147.5> 160 15<381.5 425 381.5 425.5> 429 36<459 558.5> 832 37<35 40 18 59.5>
LayerCount: 2
Fore
SplineSet
43 122 m 0
 43 173 78 215 129 215 c 0
 161 215 193 190 193 160 c 0
 193 139 184 124 165 115 c 2
 113 98 l 2
 94 92 85 82 85 69 c 0
 85 50 100 34 131 21 c 0
 156 11 180 6 203 6 c 0
 252 6 295 26 331 65 c 0
 355 91 380 132 408 189 c 0
 429 235 463 300 510 386 c 1
 567 476 629 542 698 583 c 1
 706 571 l 1
 683 552 648 527 630 486 c 0
 621 465 585 408 570 357 c 0
 550 288 517 229 495 189 c 0
 449 106 399 36 368 21 c 0
 318 -3 265 -10 213 -10 c 0
 123 -10 43 37 43 122 c 0
160 405 m 0
 160 446 176 488 210 532 c 0
 296 644 419 700 577 700 c 0
 799 700 780 692 872 680 c 0
 969 667 1117 667 1156 667 c 2
 1162 667 l 2
 1197 667 1222 676 1239 695 c 1
 1251 687 l 1
 1224 626 1179 594 1117 594 c 0
 999 594 876 604 812 628 c 0
 737 656 637 673 498 673 c 0
 394 673 285 598 231 533 c 0
 194 489 175 446 175 404 c 0
 175 359 208 318 253 318 c 0
 294 318 335 347 374 406 c 0
 410 461 429 510 429 554 c 0
 429 563 426 578 421 600 c 1
 434 604 l 1
 455 562 465 522 465 485 c 0
 465 433 446 390 409 354 c 0
 372 318 327 301 275 301 c 0
 207 301 160 339 160 405 c 0
558 -9 m 0
 558 -8 566 5 581 30 c 0
 597 57 624 102 642 177 c 0
 652 218 656 225 664 248 c 0
 691 323 708 385 785 467 c 0
 822 507 835 527 881 568 c 1
 891 559 l 1
 846 494 l 2
 823 457 793 382 760 310 c 0
 705 189 682 95 600 13 c 0
 588 1 575 -18 568 -18 c 0
 562 -18 558 -15 558 -9 c 0
832 52 m 0
 832 67 833 84 833 100 c 0
 833 180 871 272 961 396 c 0
 1009 462 1039 496 1089 560 c 1
 1104 551 l 1
 1075 513 1046 489 1029 454 c 0
 916 218 869 57 869 23 c 0
 869 13 874 8 883 8 c 0
 926 8 1017 125 1044 163 c 1
 1058 155 l 1
 976 45 914 -10 871 -10 c 0
 837 -10 832 18 832 52 c 0
EndSplineSet
Validated: 1
EndChar

StartChar: Ucyril
Encoding: 1059 1059 129
Width: 705
GlyphClass: 2
Flags: MW
HStem: -12 17<324.5 370 324.5 393> 111 101 237 15<448.5 469> 336 16<157 202.5 154.5 209> 685 15<397.5 450.5>
VStem: 105 16<391.5 444.5 391.5 463.5> 178 45<57.5 146> 348 13<603 603> 368 40<274 345> 509 29<553 653>
LayerCount: 2
Fore
SplineSet
105 411 m 0
 105 516 214 623 291 666 c 0
 332 689 375 700 420 700 c 0
 504 700 538 648 538 567 c 0
 538 539 531 512 518 486 c 2
 518 486 408 311 408 284 c 0
 408 264 442 252 455 252 c 0
 503 252 567 307 649 415 c 0
 732 525 776 586 870 664 c 1
 881 654 l 1
 822 587 792 529 763 422 c 2
 721 269 l 1
 687 165 628 87 542 37 c 0
 487 4 426 -12 360 -12 c 0
 266 -12 178 32 178 120 c 0
 178 172 215 212 268 212 c 0
 302 212 331 190 331 156 c 0
 331 135 322 120 303 111 c 0
 286 106 268 101 250 95 c 0
 231 88 223 78 223 63 c 0
 223 52 232 40 250 29 c 0
 275 13 306 5 343 5 c 0
 397 5 483 26 519 68 c 0
 539 90 568 133 597 202 c 2
 706 460 l 1
 670 413 588 314 566 293 c 0
 525 256 487 237 451 237 c 0
 405 237 368 281 368 328 c 0
 368 362 380 400 404 446 c 0
 410 457 434 494 473 556 c 0
 497 594 509 621 509 637 c 0
 509 669 480 685 421 685 c 0
 347 685 279 653 216 591 c 0
 176 551 121 478 121 411 c 0
 121 372 137 352 172 352 c 0
 233 352 293 445 319 499 c 0
 335 532 345 567 348 603 c 1
 361 603 l 1
 363 583 364 570 364 563 c 0
 364 509 347 459 314 413 c 0
 278 362 235 336 183 336 c 0
 131 336 105 361 105 411 c 0
EndSplineSet
Validated: 1
EndChar

StartChar: Ef
Encoding: 1060 1060 130
Width: 781
GlyphClass: 2
Flags: MW
HStem: -8 15<120 156.5 120 209.5> 114 99<31 89> 145 19<484 495.5 470 535> 157 14<285 307 280.5 309> 589 14<659.5 686 657.5 690.5> 614 19<480.5 505.5 441 517.5>
VStem: -31 40<56.5 145> 144 50<283 374> 774 53<380 479>
LayerCount: 2
Fore
SplineSet
-31 118 m 0xaf80
 -31 172 4 213 58 213 c 0
 90 213 117 190 117 158 c 0
 117 137 108 123 89 114 c 2xcf80
 37 99 l 2
 18 93 9 82 9 67 c 0
 9 46 25 31 58 20 c 0
 82 12 107 7 133 7 c 0
 180 7 240 23 273 56 c 0
 292 75 314 109 340 158 c 1
 336 158 311 157 307 157 c 0x9f80
 263 157 218 180 181 221 c 0
 149 256 144 299 144 336 c 0
 144 412 177 479 243 536 c 0
 318 601 398 633 484 633 c 0
 527 633 561 612 572 577 c 1
 657 673 l 1
 669 664 l 1
 651 644 635 622 620 596 c 1
 635 601 651 603 664 603 c 0
 708 603 753 575 790 533 c 0
 821 498 827 455 827 418 c 0
 827 342 794 275 728 218 c 0
 653 153 578 145 492 145 c 0
 476 145 441 148 428 153 c 1
 368 65 276 -8 143 -8 c 0
 49 -8 -31 31 -31 118 c 0xaf80
194 286 m 0
 194 280 203 248 214 226 c 0
 232 190 258 171 303 171 c 0x9f80
 311 171 340 172 348 173 c 1
 357 191 366 210 376 232 c 0
 432 355 475 460 546 547 c 1
 555 557 l 1
 555 566 l 2
 555 595 532 614 503 614 c 0
 458 614 358 578 300 508 c 0
 256 454 234 424 206 364 c 0
 197 345 194 315 194 286 c 0
437 166 m 1
 442 165 467 164 473 164 c 0xaf80
 518 164 600 179 663 245 c 0
 712 296 733 322 764 378 c 0
 774 396 774 447 774 476 c 0
 774 482 759 525 757 528 c 0
 739 564 713 589 668 589 c 0
 651 589 628 585 610 578 c 1
 591 542 564 518 550 472 c 0
 520 381 511 327 474 239 c 0
 463 213 451 188 437 166 c 1
EndSplineSet
Validated: 1
EndChar

StartChar: Kha
Encoding: 1061 1061 131
Width: 775
GlyphClass: 2
Flags: MW
HStem: -9 15<152 195> 119 65<73 150.5> 242 19<212 238.5 206 276> 653 14<906 934> 685 15<463 522.5 423.5 525.5>
VStem: 47 16<64.5 101 64.5 120> 133 15<328.5 377> 432 34 554 17<54.5 109> 635 53<501 530 497 618> 946 70<584.5 645.5>
LayerCount: 2
Fore
SplineSet
47 95 m 0
 47 145 85 184 135 184 c 0
 166 184 198 163 198 131 c 0
 198 100 175 81 144 81 c 0
 128 81 114 87 101 100 c 0
 88 113 81 119 78 119 c 0
 68 119 63 110 63 92 c 0
 63 37 122 6 182 6 c 0
 212 6 239 13 265 26 c 0
 291 39 357 60 385 89 c 0
 481 189 635 417 635 585 c 0
 635 651 560 685 491 685 c 0
 435 685 379 666 324 628 c 0
 250 577 148 462 148 353 c 0
 148 304 182 261 230 261 c 0
 247 261 262 264 275 271 c 0
 305 287 339 324 375 383 c 0
 413 446 432 504 432 555 c 0
 432 568 430 584 426 603 c 1
 441 606 l 1
 458 553 466 509 466 473 c 0
 466 411 444 357 402 312 c 0
 359 266 307 242 245 242 c 0
 179 242 133 288 133 354 c 0
 133 400 152 450 188 507 c 0
 247 598 357 700 490 700 c 0
 555 700 606 677 643 631 c 0
 673 594 688 553 688 507 c 0
 688 487 685 464 679 437 c 1
 723 506 760 557 792 592 c 0
 837 642 883 667 929 667 c 0
 973 667 1016 642 1016 600 c 0
 1016 569 991 544 960 544 c 0
 936 544 912 563 912 587 c 0
 912 601 917 614 929 624 c 0
 941 634 946 640 946 642 c 0
 946 649 940 653 928 653 c 0
 863 653 791 588 715 458 c 0
 619 295 571 167 571 74 c 0
 571 32 584 10 610 10 c 0
 648 10 705 61 781 163 c 1
 794 154 l 1
 712 48 651 -4 611 -4 c 0
 573 -4 554 25 554 84 c 0
 554 134 565 189 588 246 c 1
 498 131 400 53 292 14 c 0
 250 -1 212 -9 178 -9 c 0
 110 -9 47 30 47 95 c 0
EndSplineSet
Validated: 1
EndChar

StartChar: Tse
Encoding: 1062 1062 132
Width: 1000
GlyphClass: 2
Flags: MW
HStem: -212 14<621 650.5 621 659.5> -10 15<425 440.5 425 451.5> 242 17<157.5 198 151.5 217> 681 15<433.5 495.5>
VStem: 80 16<319.5 378.5 319.5 405> 342 65<21.5 137> 376 33 564 32<-178 -151.5 -178 -147> 583 38<590.5 599 526.5 632> 645 42<16 82.5>
LayerCount: 2
Fore
SplineSet
80 343 m 0xfac0
 80 467 205 592 294 646 c 0
 349 679 405 696 462 696 c 0
 571 696 621 652 621 546 c 0xfac0
 621 507 605 443 579 397 c 0
 576 392 563 373 541 340 c 2
 473 242 l 2
 411 152 407 86 407 46 c 2
 407 30 l 2
 407 13 416 5 434 5 c 0
 447 5 462 10 481 20 c 0
 530 45 628 109 694 212 c 2
 826 429 l 2
 864 493 905 555 948 615 c 1
 983 619 983 621 1027 623 c 1
 974 546 922 462 871 372 c 2
 764 181 l 2
 751 159 732 126 708 81 c 0
 694 51 687 30 687 19 c 0
 687 13 690 10 697 10 c 0
 712 10 733 20 761 40 c 0
 802 70 840 112 875 163 c 1
 889 155 l 1
 855 71 860 27 854 4 c 1
 921 28 949 84 1006 159 c 1
 1020 150 l 1
 957 65 926 5 850 -16 c 1
 841 -60 804 -122 784 -141 c 0
 734 -189 684 -212 635 -212 c 0
 600 -212 564 -195 564 -162 c 0
 564 -132 592 -102 649 -71 c 0
 667 -61 709 -43 775 -16 c 1
 808 59 l 1
 770 22 728 -8 688 -8 c 0
 646 -8 645 28 645 72 c 0
 645 93 646 96 660 129 c 1
 621 78 610 74 590 54 c 0
 547 12 469 -10 434 -10 c 0
 374 -10 342 53 342 117 c 0xfd40
 342 157 354 200 380 247 c 0
 390 265 415 301 455 357 c 0
 495 414 524 458 542 489 c 0
 570 538 583 576 583 605 c 0
 583 659 526 681 465 681 c 0
 378 681 295 642 215 565 c 0
 135 488 96 414 96 343 c 0
 96 296 128 259 175 259 c 0
 221 259 267 298 313 375 c 0
 355 446 376 505 376 554 c 0
 376 561 375 577 372 598 c 1
 387 600 l 1
 402 554 409 512 409 474 c 0
 409 406 384 349 335 303 c 0
 292 262 244 242 190 242 c 0
 125 242 80 279 80 343 c 0xfac0
596 -170 m 0xf940
 596 -186 613 -198 629 -198 c 0
 672 -198 718 -144 767 -36 c 1
 653 -89 596 -133 596 -170 c 0xf940
EndSplineSet
Validated: 1
EndChar

StartChar: Che
Encoding: 1063 1063 133
Width: 740
GlyphClass: 2
Flags: MW
HStem: -8 18<564.5 575.5 564.5 594.5> 237 15<443.5 469> 336 16<157 203 154.5 209> 685 15<397.5 450.5>
VStem: 105 16<391.5 444 391.5 463.5> 348 13<603 603> 368 38<274.5 345> 509 39<562 653> 514 44<16 74.5>
LayerCount: 2
Fore
SplineSet
105 411 m 0xff
 105 516 214 623 291 666 c 0
 332 689 375 700 420 700 c 0
 505 700 548 657 548 576 c 0xff
 548 548 531 512 518 486 c 0
 478 406 406 313 406 286 c 0
 406 263 432 252 455 252 c 0
 520 252 605 304 684 408 c 1
 727 479 771 548 819 615 c 1
 854 619 853 621 897 623 c 1
 844 546 792 462 741 372 c 2
 634 181 l 2
 621 159 603 126 579 81 c 0
 565 51 558 30 558 19 c 0
 558 13 561 10 568 10 c 0
 583 10 604 20 632 40 c 0
 673 70 711 111 746 163 c 1
 759 155 l 1
 718 97 631 -8 558 -8 c 0
 516 -8 514 20 514 64 c 0xfe80
 514 85 536 167 565 212 c 0
 572 222 593 257 629 317 c 1
 621 308 613 299 606 293 c 0
 565 256 487 237 451 237 c 0
 404 237 368 281 368 328 c 0
 368 362 380 400 404 446 c 0
 410 457 434 494 473 556 c 0
 497 594 509 621 509 637 c 0
 509 669 480 685 421 685 c 0
 347 685 279 653 216 591 c 0
 177 552 121 477 121 411 c 0
 121 372 137 352 172 352 c 0
 234 352 292 445 319 499 c 0
 335 532 345 567 348 603 c 1
 361 603 l 1
 363 583 364 570 364 563 c 0
 364 509 347 459 314 413 c 0
 278 362 235 336 183 336 c 0
 131 336 105 361 105 411 c 0xff
EndSplineSet
Validated: 1
EndChar

StartChar: Sha
Encoding: 1064 1064 134
Width: 1157
GlyphClass: 2
Flags: MW
HStem: -10 15<425 440.5 425 451.5 713 728.5> 242 17<157.5 198 151.5 217> 681 15<433.5 495.5>
VStem: 80 16<319.5 378.5 319.5 405> 342 65<21.5 137> 376 33 583 38<590.5 599 526.5 632> 625 50<21.5 82.5> 945 30<19.5 24.5 16 38>
LayerCount: 2
Fore
SplineSet
80 343 m 0xf780
 80 467 205 592 294 646 c 0
 349 679 405 696 462 696 c 0
 571 696 621 652 621 546 c 0
 621 507 605 443 579 397 c 0
 576 392 563 373 541 340 c 2
 473 242 l 2
 411 152 407 86 407 46 c 2
 407 30 l 2
 407 13 416 5 434 5 c 0
 447 5 462 10 481 20 c 0
 530 45 608 109 674 212 c 2
 806 429 l 2
 844 493 885 555 928 615 c 1
 963 619 963 621 1007 623 c 1
 954 546 902 462 851 372 c 2
 744 181 l 2
 704 113 675 59 675 30 c 0
 675 13 704 5 722 5 c 0
 735 5 791 10 810 20 c 0
 859 45 916 109 982 212 c 2
 1114 429 l 2
 1152 493 1193 555 1236 615 c 1
 1271 619 1271 621 1315 623 c 1
 1262 546 1210 462 1159 372 c 2
 1052 181 l 2
 1039 159 1021 126 997 81 c 0
 983 51 975 30 975 19 c 0
 975 13 978 10 985 10 c 0
 1000 10 1021 20 1049 40 c 0
 1090 70 1128 111 1163 163 c 1
 1177 155 l 1
 1136 97 1049 -8 976 -8 c 0
 950 -8 945 8 945 31 c 0
 945 45 947 62 947 79 c 0
 947 100 954 128 968 161 c 1
 929 110 898 74 878 54 c 0
 835 12 757 -10 722 -10 c 0
 680 -10 625 28 625 72 c 0
 625 93 626 96 640 129 c 1
 601 78 590 74 570 54 c 0
 527 12 469 -10 434 -10 c 0
 374 -10 342 53 342 117 c 0xfb80
 342 157 354 200 380 247 c 0
 390 265 415 301 455 357 c 0
 495 414 524 458 542 489 c 0
 570 538 583 576 583 605 c 0
 583 659 526 681 465 681 c 0
 378 681 295 642 215 565 c 0
 135 488 96 414 96 343 c 0
 96 296 128 259 175 259 c 0
 221 259 267 298 313 375 c 0
 355 446 376 505 376 554 c 0
 376 561 375 577 372 598 c 1
 387 600 l 1
 402 554 409 512 409 474 c 0
 409 406 384 349 335 303 c 0
 292 262 244 242 190 242 c 0
 125 242 80 279 80 343 c 0xf780
EndSplineSet
Validated: 1
EndChar

StartChar: Shcha
Encoding: 1065 1065 135
Width: 1289
GlyphClass: 2
Flags: MW
HStem: -212 14<909 938.5 909 947.5> -10 15<425 440.5 425 451.5 713 728.5> 242 17<157.5 198 151.5 217> 681 15<433.5 495.5>
VStem: 80 16<319.5 378.5 319.5 405> 342 65<21.5 137> 376 33 583 38<590.5 599 526.5 632> 625 50<21.5 82.5> 852 32<-178 -151.5 -178 -147> 945 30<19.5 24.5 16 38>
LayerCount: 2
Fore
SplineSet
80 343 m 0xfbe0
 80 467 205 592 294 646 c 0
 349 679 405 696 462 696 c 0
 571 696 621 652 621 546 c 0
 621 507 605 443 579 397 c 0
 576 392 563 373 541 340 c 2
 473 242 l 2
 411 152 407 86 407 46 c 2
 407 30 l 2
 407 13 416 5 434 5 c 0
 447 5 462 10 481 20 c 0
 530 45 608 109 674 212 c 2
 806 429 l 2
 844 493 885 555 928 615 c 1
 963 619 963 621 1007 623 c 1
 954 546 902 462 851 372 c 2
 744 181 l 2
 704 113 675 59 675 30 c 0
 675 13 704 5 722 5 c 0
 735 5 791 10 810 20 c 0
 859 45 916 109 982 212 c 2
 1114 429 l 2
 1152 493 1193 555 1236 615 c 1
 1271 619 1271 621 1315 623 c 1
 1262 546 1210 462 1159 372 c 2
 1052 181 l 2
 1039 159 1021 126 997 81 c 0
 983 51 975 30 975 19 c 0
 975 13 978 10 985 10 c 0
 1000 10 1021 20 1049 40 c 0
 1090 70 1128 112 1163 163 c 1
 1164 163 l 1
 1177 155 l 1
 1143 71 1148 27 1142 4 c 1
 1209 28 1237 84 1294 159 c 1
 1308 150 l 1
 1245 65 1214 5 1138 -16 c 1
 1129 -60 1092 -122 1072 -141 c 0
 1022 -189 972 -212 923 -212 c 0
 888 -212 852 -195 852 -162 c 0
 852 -132 880 -102 937 -71 c 0
 955 -61 997 -43 1063 -16 c 1
 1096 59 l 1
 1058 22 976 -8 976 -8 c 1
 950 -8 945 8 945 31 c 0
 945 45 947 62 947 79 c 0
 947 100 954 128 968 161 c 1
 929 110 898 74 878 54 c 0
 835 12 757 -10 722 -10 c 0
 680 -10 625 28 625 72 c 0
 625 93 626 96 640 129 c 1
 601 78 590 74 570 54 c 0
 527 12 469 -10 434 -10 c 0
 374 -10 342 53 342 117 c 0xfde0
 342 157 354 200 380 247 c 0
 390 265 415 301 455 357 c 0
 495 414 524 458 542 489 c 0
 570 538 583 576 583 605 c 0
 583 659 526 681 465 681 c 0
 378 681 295 642 215 565 c 0
 135 488 96 414 96 343 c 0
 96 296 128 259 175 259 c 0
 221 259 267 298 313 375 c 0
 355 446 376 505 376 554 c 0
 376 561 375 577 372 598 c 1
 387 600 l 1
 402 554 409 512 409 474 c 0
 409 406 384 349 335 303 c 0
 292 262 244 242 190 242 c 0
 125 242 80 279 80 343 c 0xfbe0
884 -170 m 0
 884 -186 901 -198 917 -198 c 0
 960 -198 1006 -144 1055 -36 c 1
 941 -89 884 -133 884 -170 c 0
EndSplineSet
Validated: 1
EndChar

StartChar: Hard
Encoding: 1066 1066 136
Width: 796
GlyphClass: 2
Flags: MW
HStem: -11 15<509 573> 369 15<740.5 773> 417 17<324 358> 588 16<324.5 344>
VStem: 290 52<437.5 471> 353 47<544.5 582.5> 374 52<64.5 240> 566 15<98 98> 805 29<305 311 271 334.5>
LayerCount: 2
Fore
SplineSet
130 426 m 1xfd80
 226 544 299 604 350 604 c 0
 378 604 400 584 400 556 c 0xfd80
 400 533 390 508 371 481 c 0
 352 454 342 440 342 439 c 0
 342 436 344 434 349 434 c 0
 367 434 410 460 477 511 c 0
 551 567 611 621 657 673 c 1
 669 664 l 1
 624 613 535 518 508 430 c 2
 508 430 472 314 454 239 c 0
 440 180 426 109 426 86 c 0
 426 43 487 4 531 4 c 0
 621 4 714 65 787 224 c 0
 801 255 805 293 805 317 c 0
 805 352 789 369 757 369 c 0
 724 369 676 340 643 299 c 0
 607 255 601 217 591 164 c 0
 589 153 585 131 581 98 c 1
 566 98 l 1
 572 180 581 238 629 309 c 0
 661 357 716 384 757 384 c 0
 808 384 834 338 834 284 c 0
 834 258 823 205 785 152 c 0
 712 51 614 -11 532 -11 c 0
 430 -11 374 81 374 189 c 0xfb80
 374 291 458 450 546 547 c 1
 487 497 436 460 394 436 c 0
 372 424 352 417 336 417 c 0
 312 417 290 437 290 461 c 0
 290 481 300 505 321 534 c 0
 342 563 353 578 353 579 c 0
 353 586 348 588 340 588 c 0
 300 588 234 532 143 417 c 1
 130 426 l 1xfd80
EndSplineSet
Validated: 1
EndChar

StartChar: Yeri
Encoding: 1067 1067 137
Width: 811
GlyphClass: 2
Flags: MW
HStem: -11 15<216.5 291> -7 19<651.5 659.5> 369 15<475 481 475 491> 657 20G<1021 1021> 691 14<586 622>
VStem: 92 63<88 240> 284 15<98 98> 523 29<271 334.5> 606 39<18 41 18 54> 634 70<622.5 683.5>
LayerCount: 2
Fore
SplineSet
92 189 m 0xbf80
 92 291 136 390 224 487 c 0
 310 581 465 705 617 705 c 0
 661 705 704 680 704 638 c 0
 704 607 679 582 648 582 c 0
 624 582 600 601 600 625 c 0
 600 639 605 652 617 662 c 0
 629 672 634 678 634 680 c 0
 634 687 628 691 616 691 c 0
 556 691 455 659 390 597 c 0
 343 552 297 485 252 397 c 0
 211 317 181 241 161 169 c 0
 157 153 155 138 155 124 c 0
 155 52 184 4 249 4 c 0xbf40
 339 4 432 65 505 224 c 0
 519 255 523 293 523 317 c 0
 523 352 507 369 475 369 c 0
 442 369 394 340 361 299 c 0
 325 255 319 217 309 164 c 0
 307 153 303 131 299 98 c 1
 284 98 l 1
 290 180 299 238 347 309 c 0
 379 357 434 384 475 384 c 2
 481 384 l 2
 510 387 568 389 608 404 c 0
 665 426 736 444 782 485 c 0
 854 549 948 669 948 669 c 1
 1021 677 l 1
 881 451 l 2
 829 369 742 215 670 83 c 0
 654 51 645 30 645 21 c 0
 645 15 648 12 655 12 c 0
 680 12 711 35 750 82 c 2
 816 163 l 1
 830 154 l 1
 784 96 757 63 749 55 c 0
 710 14 675 -7 644 -7 c 0x7f80
 608 -7 606 11 606 34 c 2
 606 41 l 2
 606 67 625 122 644 160 c 0
 660 194 807 432 897 582 c 1
 863 542 828 504 788 468 c 0
 725 413 623 378 517 371 c 1
 541 353 552 320 552 284 c 0
 552 258 541 205 503 152 c 0
 430 51 332 -11 250 -11 c 0
 148 -11 92 81 92 189 c 0xbf80
EndSplineSet
Validated: 1
EndChar

StartChar: Soft
Encoding: 1068 1068 138
Width: 514
GlyphClass: 2
Flags: MW
HStem: -11 15<217 291> 369 15<458.5 491> 691 14<586 622>
VStem: 92 63<88.5 240> 284 15<98 98> 523 29<305 311 271 334.5> 634 70<622.5 683.5>
LayerCount: 2
Fore
SplineSet
92 189 m 0
 92 291 136 390 224 487 c 0
 310 581 465 705 617 705 c 0
 661 705 704 680 704 638 c 0
 704 607 679 582 648 582 c 0
 624 582 600 601 600 625 c 0
 600 639 605 652 617 662 c 0
 629 672 634 678 634 680 c 0
 634 687 628 691 616 691 c 0
 556 691 455 659 390 597 c 0
 343 552 297 485 252 397 c 0
 211 317 181 241 161 169 c 0
 156 152 155 137 155 123 c 0
 155 54 185 4 249 4 c 0
 339 4 432 65 505 224 c 0
 519 255 523 293 523 317 c 0
 523 352 507 369 475 369 c 0
 442 369 394 340 361 299 c 0
 325 255 319 217 309 164 c 0
 307 153 303 131 299 98 c 1
 284 98 l 1
 290 180 299 238 347 309 c 0
 379 357 434 384 475 384 c 0
 526 384 552 338 552 284 c 0
 552 258 541 205 503 152 c 0
 430 51 332 -11 250 -11 c 0
 148 -11 92 81 92 189 c 0
EndSplineSet
Validated: 1
EndChar

StartChar: Ecyrilrev
Encoding: 1069 1069 139
Width: 597
GlyphClass: 2
Flags: MW
HStem: -9 15<152 195> 119 65<73 150.5> 274 17<386 419.5> 387 16<357 367> 470 15<309.5 326 309.5 343> 685 15<481 522.5 481 525.5>
VStem: 47 16<64.5 101 64.5 120> 264 17<513.5 522> 352 52<294.5 324> 376 47<349.5 381.5> 428 26<585 598 578 612.5> 635 53<497 618>
LayerCount: 2
Fore
SplineSet
47 95 m 0xffb0
 47 145 85 184 135 184 c 0
 166 184 198 163 198 131 c 0
 198 100 175 81 144 81 c 0
 128 81 114 87 101 100 c 0
 88 113 81 119 78 119 c 0
 68 119 63 110 63 92 c 0
 63 37 122 6 182 6 c 0
 212 6 239 14 265 26 c 0
 296 40 357 60 385 89 c 0
 446 153 501 230 550 320 c 2
 557 332 l 1
 535 316 494 302 472 292 c 0
 449 282 414 274 398 274 c 0
 374 274 352 294 352 318 c 0xffb0
 352 330 356 341 361 354 c 0
 365 364 376 377 376 378 c 0
 376 385 371 387 363 387 c 0
 338 387 304 365 260 322 c 1
 249 331 l 1
 299 379 341 403 373 403 c 0
 401 403 423 383 423 355 c 0xff70
 423 344 421 334 417 321 c 0
 414 311 404 297 404 296 c 0
 404 293 406 291 411 291 c 0
 428 291 509 315 572 363 c 1
 614 449 635 522 635 585 c 0
 635 651 560 685 491 685 c 0
 463 685 447 684 421 675 c 0
 363 655 298 602 283 541 c 0
 282 536 281 531 281 526 c 0
 281 501 297 485 322 485 c 0
 330 485 339 486 348 490 c 0
 395 508 428 560 428 610 c 0
 428 615 428 621 427 626 c 1
 445 633 l 1
 451 619 454 605 454 591 c 0
 454 565 443 541 422 519 c 0
 402 498 363 470 323 470 c 0
 288 470 264 490 264 520 c 0
 264 524 264 529 265 534 c 0
 278 611 372 679 443 694 c 0
 461 698 472 700 490 700 c 0
 555 700 606 677 643 631 c 0
 673 594 688 553 688 507 c 0
 688 487 685 464 679 437 c 1
 679 437 640 310 588 246 c 0
 489 123 400 53 292 14 c 0
 250 -1 212 -9 178 -9 c 0
 110 -9 47 30 47 95 c 0xffb0
EndSplineSet
Validated: 1
EndChar

StartChar: Iu
Encoding: 1070 1070 140
Width: 1090
GlyphClass: 2
Flags: MW
HStem: -8 15<120 156.5 120 231.5> 114 99<31 89> 321 18 397 21<540 580> 417 17<324 358> 570 15<1083.5 1116> 588 16<324.5 344> 691 14<1096 1150>
VStem: -31 40<56.5 145> 290 52<437.5 471> 353 47<544.5 582.5> 543 54<370.5 372.5> 602 52<68.5 212> 794 15<98 98> 1148 29<490.5 512 444 535.5> 1220 18<610.5 640>
LayerCount: 2
Fore
SplineSet
-31 118 m 0xf7ff
 -31 172 4 213 58 213 c 0
 90 213 117 190 117 158 c 0
 117 137 108 123 89 114 c 2
 37 99 l 2
 18 93 9 82 9 67 c 0
 9 46 25 31 58 20 c 0
 82 12 107 7 133 7 c 0
 180 7 220 23 253 56 c 0
 280 83 315 141 356 232 c 0
 412 355 475 460 546 547 c 1
 487 497 436 460 394 436 c 0
 372 424 352 417 336 417 c 0
 312 417 290 437 290 461 c 0
 290 481 300 505 321 534 c 0
 342 563 353 578 353 579 c 0
 353 586 348 588 340 588 c 0
 300 588 234 532 143 417 c 1
 130 426 l 1
 226 544 299 604 350 604 c 0
 378 604 400 584 400 556 c 0
 400 533 390 508 371 481 c 0
 352 454 342 440 342 439 c 0
 342 436 344 434 349 434 c 0xefff
 367 434 410 460 477 511 c 0
 551 567 611 621 657 673 c 1
 669 664 l 1
 624 613 548 544 521 456 c 2
 506 408 l 1
 517 413 555 418 565 418 c 0
 595 418 597 414 597 389 c 2
 597 379 l 2
 597 362 595 352 595 350 c 0
 595 345 601 339 611 339 c 0
 614 339 631 339 635 340 c 0
 688 458 802 567 911 634 c 0
 989 682 1062 705 1127 705 c 0
 1183 705 1238 670 1238 618 c 0
 1238 603 1233 583 1223 560 c 1
 1207 565 l 1
 1216 585 1220 603 1220 617 c 0
 1220 663 1174 691 1126 691 c 0
 1066 691 965 659 900 597 c 0
 853 552 807 485 762 397 c 0
 721 317 690 262 670 190 c 0
 658 146 654 113 654 90 c 0
 654 47 715 4 759 4 c 0
 870 4 974 98 1071 286 c 0
 1122 386 1148 463 1148 518 c 0
 1148 553 1132 570 1100 570 c 0
 1067 570 1030 547 986 500 c 0
 951 462 916 409 883 342 c 0
 850 276 829 217 819 164 c 0
 817 153 813 131 809 98 c 1
 794 98 l 1
 801 193 835 293 895 398 c 0
 966 523 1035 585 1100 585 c 0
 1151 585 1177 539 1177 485 c 0
 1177 403 1135 309 1054 201 c 0
 948 60 850 -11 760 -11 c 0
 658 -11 602 81 602 189 c 0
 602 235 611 281 629 326 c 1
 617 323 590 321 580 321 c 0
 573 321 566 323 560 327 c 0
 543 338 543 344 543 365 c 0
 543 380 545 393 545 394 c 0
 545 396 544 397 542 397 c 0
 538 397 507 394 501 391 c 1
 454 239 l 1
 399 104 320 -8 143 -8 c 0
 49 -8 -31 31 -31 118 c 0xf7ff
EndSplineSet
Validated: 1
EndChar

StartChar: Ia
Encoding: 1071 1071 141
Width: 698
GlyphClass: 2
Flags: MW
HStem: -9 15<84 134 84 144> 107 103<25 77> 691 14<604 617 617 640>
VStem: -38 37<44 136.5> 260 52 488 41<35 40 18 62 18 102> 710 18<616 618 616 640>
LayerCount: 2
Fore
SplineSet
-38 110 m 0
 -38 163 -1 210 51 210 c 0
 83 210 111 187 111 156 c 0
 111 135 100 119 77 107 c 1
 28 95 l 2
 8 90 -1 80 -1 64 c 0
 -1 24 61 6 107 6 c 0
 161 6 211 26 258 66 c 0
 287 91 320 128 358 174 c 2
 438 274 l 1
 387 279 317 313 290 352 c 0
 268 385 260 410 260 454 c 2
 260 470 l 2
 262 526 326 609 404 660 c 0
 470 704 542 705 604 705 c 2
 617 705 l 2
 673 705 728 670 728 618 c 2
 728 616 l 1
 758 646 785 668 808 685 c 0
 819 693 827 697 832 697 c 0
 841 697 846 693 846 686 c 0
 846 679 839 668 828 652 c 0
 809 625 787 592 764 551 c 0
 737 503 716 463 699 428 c 0
 586 192 529 57 529 23 c 0
 529 13 534 8 543 8 c 0
 586 8 677 125 704 163 c 1
 718 155 l 1
 636 45 574 -10 531 -10 c 0
 492 -10 488 3 488 35 c 2
 488 62 l 2
 488 142 556 286 628 406 c 0
 664 466 695 542 801 660 c 1
 707 580 600 457 478 293 c 2
 410 202 l 2
 384 167 359 138 337 115 c 0
 260 32 183 -9 105 -9 c 0
 26 -9 -38 34 -38 110 c 0
312 376 m 0
 312 333 406 288 450 288 c 1
 643 526 l 1
 707 595 l 2
 709 603 710 610 710 617 c 0
 710 663 664 691 616 691 c 0
 556 691 458 685 393 623 c 0
 347 580 330 542 318 480 c 0
 312 448 312 399 312 376 c 0
EndSplineSet
Validated: 1
EndChar

StartChar: acyril
Encoding: 1072 1072 142
Width: 427
GlyphClass: 2
Flags: MW
HStem: -7 19<75 100.5 264.5 268> 326 21<249 263.5 189.5 274> 327 20<189.5 263.5 431 431>
VStem: 18 39<24.5 107.5> 213 44<23 32.5 18 49.5>
LayerCount: 2
Fore
SplineSet
0 156 m 1xb8
 91 283 143 347 236 347 c 0xd8
 291 347 320 327 322 288 c 1
 348 330 l 1
 431 347 l 1
 315 153 257 44 257 21 c 0
 257 15 261 12 268 12 c 0
 293 12 324 32 360 71 c 0
 370 82 395 112 433 162 c 1
 447 154 l 1
 389 80 l 2
 367 53 348 34 332 22 c 0
 307 3 281 -7 255 -7 c 0
 217 -7 213 4 213 42 c 0
 213 57 231 93 237 117 c 1
 182 34 127 -7 74 -7 c 0
 20 -7 18 41 18 95 c 0
 18 120 24 146 35 175 c 1
 14 148 l 1
 0 156 l 1xb8
57 31 m 0
 57 18 66 12 84 12 c 0
 139 12 214 107 241 153 c 0
 284 224 305 268 305 284 c 0
 305 307 286 326 262 326 c 0
 236 326 188 300 139 226 c 0
 78 134 57 62 57 31 c 0
EndSplineSet
Validated: 1
EndChar

StartChar: be
Encoding: 1073 1073 143
Width: 345
GlyphClass: 2
Flags: MW
HStem: -7 18<90 108.5> 44 17<231.5 238> 329 18<234.5 246 198.5 265> 511 54<486.5 499.5 478 523> 525 40<434.5 499.5>
VStem: 19 53<26.5 118>
LayerCount: 2
Fore
SplineSet
0 156 m 1xec
 91 283 168 347 229 347 c 0
 263 347 287 339 303 322 c 1
 335 454 l 2
 346 499 368 524 409 546 c 0
 439 562 464 565 492 565 c 0
 507 565 522 564 539 564 c 0
 574 564 599 573 616 592 c 1
 628 584 l 1
 601 522 555 511 491 511 c 0xf4
 482 511 459 525 438 525 c 0
 431 525 425 523 419 520 c 0
 385 499 372 452 363 413 c 2
 324 240 l 2
 312 186 285 126 224 64 c 1
 227 61 229 61 234 61 c 0
 259 61 298 95 351 162 c 1
 365 154 l 1
 337 119 317 95 305 83 c 0
 277 57 251 44 225 44 c 0
 218 44 212 45 206 47 c 1
 165 11 126 -7 91 -7 c 0
 27 -7 19 45 19 109 c 0
 19 127 24 150 35 177 c 1
 13 148 l 1
 0 156 l 1xec
72 34 m 0
 72 19 81 11 99 11 c 0
 128 11 158 25 190 55 c 1
 186 61 185 66 185 72 c 0
 185 91 194 101 215 101 c 0
 217 101 220 101 223 100 c 0
 269 172 291 231 291 276 c 0
 291 311 278 329 252 329 c 0
 217 329 177 288 133 207 c 0
 92 131 72 74 72 34 c 0
EndSplineSet
Validated: 1
EndChar

StartChar: ve
Encoding: 1074 1074 144
Width: 383
GlyphClass: 2
Flags: MW
HStem: -7 17<106.5 125> 81 15<293.5 306.5 293.5 307.5> 281 68<302.5 351> 656 15<435 457.5>
VStem: 53 40<29.5 31 18.5 56.5> 220 20<154 169.5 148.5 191.5> 337 38<241.5 318> 471 42<610 645.5>
LayerCount: 2
Fore
SplineSet
0 156 m 1
 19 184 60 213 123 242 c 1
 171 337 223 422 278 497 c 0
 364 614 396 671 455 671 c 0
 485 671 513 650 513 620 c 0
 513 600 504 574 487 544 c 0
 440 460 342 364 189 256 c 1
 173 219 149 170 120 109 c 0
 102 66 93 39 93 23 c 0
 93 14 100 10 113 10 c 0
 150 10 197 38 253 94 c 1
 231 114 220 139 220 169 c 0
 220 214 239 261 277 309 c 0
 298 336 319 349 339 349 c 0
 363 349 375 334 375 302 c 0
 375 243 342 175 278 98 c 1
 284 96 290 96 297 96 c 0
 316 96 333 103 350 118 c 0
 357 125 371 140 389 163 c 1
 402 155 l 1
 383 130 367 113 357 105 c 0
 338 89 318 81 297 81 c 0
 287 81 278 82 268 86 c 1
 205 24 149 -7 101 -7 c 0
 66 -7 53 19 53 40 c 0
 53 73 74 138 86 169 c 0
 94 189 90 180 110 218 c 1
 62 195 30 171 13 147 c 1
 0 156 l 1
200 283 m 1
 269 332 321 379 356 425 c 0
 402 484 436 542 458 597 c 0
 466 618 471 633 471 640 c 0
 471 651 464 656 451 656 c 0
 419 656 401 632 370 588 c 0
 349 558 309 510 276 442 c 0
 258 407 233 354 200 283 c 1
240 159 m 0
 240 138 248 119 264 105 c 1
 313 163 337 227 337 256 c 0
 337 269 325 281 312 281 c 0
 293 281 275 255 260 230 c 0
 246 208 240 180 240 159 c 0
EndSplineSet
Validated: 1
EndChar

StartChar: ge
Encoding: 1075 1075 145
Width: 281
GlyphClass: 2
Flags: MW
HStem: -7 18<110.5 120.5> 326 21<172 217>
VStem: 68 32<17.5 23.5 17.5 44.5> 191 42<312 320>
LayerCount: 2
Fore
SplineSet
0 156 m 1
 55 228 85 273 139 317 c 0
 164 337 186 347 207 347 c 0
 227 347 233 328 233 312 c 0
 233 271 220 243 203 202 c 0
 186 159 181 147 147 98 c 0
 116 52 100 26 100 21 c 0
 100 14 105 11 116 11 c 0
 144 11 176 30 212 69 c 0
 222 79 247 110 287 162 c 1
 300 154 l 1
 242 80 l 2
 220 53 201 34 186 22 c 0
 161 3 134 -7 107 -7 c 0
 79 -7 68 6 68 29 c 0
 68 60 76 125 106 180 c 0
 124 214 146 230 167 264 c 0
 179 283 191 307 191 317 c 0
 191 323 189 326 184 326 c 0
 160 326 103 267 13 148 c 1
 0 156 l 1
EndSplineSet
Validated: 1
EndChar

StartChar: de
Encoding: 1076 1076 146
Width: 408
GlyphClass: 2
Flags: MW
HStem: -216 14<34.5 63.5 34.5 103.5> -9 16<106 124> 328 19<227.5 241 194 256>
VStem: -22 31<-182 -155.5 -182 -151> 18 60<29.5 102.5> 282 17<283 286 283 297>
LayerCount: 2
Fore
SplineSet
-22 -166 m 0
 -22 -136 14 -87 71 -56 c 0
 89 -46 82 -47 148 -20 c 1
 161 9 l 1
 144 -4 144 -9 104 -9 c 0
 52 -9 18 37 18 90 c 0
 18 115 25 144 37 177 c 1
 13 148 l 1
 0 156 l 1
 17 179 37 204 61 230 c 0
 132 307 161 347 227 347 c 0
 255 347 275 338 287 320 c 0
 295 308 299 300 299 286 c 2
 299 283 l 1
 328 335 l 1
 408 345 l 1
 333 218 273 107 228 12 c 1
 295 36 357 86 414 161 c 1
 427 152 l 1
 364 67 295 15 219 -6 c 1
 177 -93 159 -216 48 -216 c 0
 13 -216 -22 -199 -22 -166 c 0
9 -174 m 0
 9 -190 27 -202 42 -202 c 0
 85 -202 91 -147 140 -39 c 1
 26 -92 9 -137 9 -174 c 0
78 34 m 0
 78 25 101 7 111 7 c 0
 169 7 193 81 216 128 c 0
 254 204 282 255 282 281 c 0
 282 313 269 328 243 328 c 0
 212 328 174 285 125 198 c 0
 79 116 78 69 78 34 c 0
EndSplineSet
Validated: 1
EndChar

StartChar: ie
Encoding: 1077 1077 147
Width: 321
GlyphClass: 2
Flags: MW
HStem: -7 18<90.5 123.5 90.5 126.5> 162 14 332 15<231 262>
VStem: 13 59<43.5 117> 281 52<288 299.5 265 314>
LayerCount: 2
Fore
SplineSet
0 156 m 5
 6 166 14 171 25 173 c 5
 47 220 64 254 114 299 c 4
 134 317 189 347 236 347 c 4
 300 347 333 323 333 276 c 4
 333 254 317 233 292 214 c 4
 246 179 194 162 105 162 c 5
 84 117 72 87 72 59 c 4
 72 28 80 11 101 11 c 4
 146 11 190 27 231 59 c 4
 260 81 292 115 327 162 c 5
 340 154 l 5
 299 101 265 64 239 43 c 4
 197 9 151 -7 102 -7 c 4
 28 -7 13 38 13 110 c 4
 13 124 15 139 19 154 c 5
 14 148 l 5
 0 156 l 5
111 176 m 5
 149 177 189 190 224 213 c 4
 272 245 281 271 281 305 c 4
 281 323 272 332 252 332 c 4
 210 332 165 291 111 176 c 5
EndSplineSet
Validated: 1
EndChar

StartChar: zhe
Encoding: 1078 1078 148
Width: 783
GlyphClass: 2
Flags: MW
HStem: -7 18<553.5 586.5> 0 17<92.5 112.5 87 164.5> 328 20G<545 545> 330 17<700.5 726> 335 19<241 260.5>
VStem: 19 51<25.5 88> 281 44<228.5 320.5> 483 49<26.5 115> 743 52<259 320.5>
LayerCount: 2
Fore
SplineSet
0 156 m 1x4f80
 55 228 85 273 139 317 c 0
 147 323 153 329 161 333 c 0
 172 340 184 343 194 345 c 0
 212 351 230 354 252 354 c 0x4f80
 320 354 325 305 325 238 c 0
 325 219 324 206 315 185 c 1
 320 192 321 193 328 199 c 2
 394 263 l 2
 410 281 442 306 477 340 c 1
 545 348 l 1x2780
 514 298 469 220 412 117 c 0
 408 109 404 102 398 96 c 1
 398 95 l 1
 419 123 473 164 493 187 c 0
 570 289 616 347 704 347 c 0
 757 347 795 322 795 273 c 0
 795 245 774 223 746 223 c 0
 723 223 700 242 700 265 c 0
 700 285 710 299 728 307 c 0
 738 311 743 314 743 316 c 0
 743 325 734 330 718 330 c 0
 683 330 638 297 592 216 c 0
 549 140 532 74 532 34 c 0
 532 19 543 11 564 11 c 0
 610 11 652 27 693 59 c 0
 719 79 751 113 789 162 c 1
 802 154 l 1
 760 100 726 62 700 42 c 0
 658 9 612 -7 561 -7 c 0
 493 -7 483 50 483 105 c 0
 483 125 488 143 497 165 c 1
 481 150 l 2
 450 121 390 82 349 7 c 1
 275 -7 l 1x9780
 332 78 375 147 405 200 c 0
 421 232 442 269 467 310 c 1
 439 285 387 242 341 191 c 2
 320 168 l 1
 254 55 210 0 119 0 c 0
 66 0 19 25 19 74 c 0
 19 102 39 124 67 124 c 0
 90 124 113 105 113 82 c 0
 113 62 103 48 85 40 c 0
 75 36 70 32 70 30 c 0
 70 21 79 17 95 17 c 0
 130 17 173 44 219 125 c 0
 262 201 281 273 281 313 c 0
 281 328 271 335 250 335 c 0
 226 335 207 331 181 322 c 0
 153 312 100 264 13 148 c 1
 0 156 l 1x4f80
EndSplineSet
Validated: 1
EndChar

StartChar: ze
Encoding: 1079 1079 149
Width: 387
GlyphClass: 2
Flags: MW
HStem: -216 18<81 113 81 114.5> 78 66<109 194> 334 19<231.5 250.5>
VStem: 45 24<-176.5 -141.5 -176.5 -129.5> 237 46<13.5 74.5> 279 41<227.5 286 227.5 293.5>
LayerCount: 2
Fore
SplineSet
0 155 m 1xf4
 55 227 85 272 139 316 c 0
 160 333 179 343 197 346 c 0
 214 351 221 353 242 353 c 0
 310 353 320 304 320 237 c 0xf4
 320 218 320 206 311 185 c 0
 299 156 284 128 268 118 c 1
 284 94 280 59 282 39 c 1
 308 53 335 86 393 161 c 1
 406 152 l 1
 346 75 320 41 282 23 c 0
 282 21 283 19 283 17 c 0
 283 10 281 1 281 -9 c 0
 281 -31 271 -51 261 -75 c 0
 244 -116 221 -143 193 -167 c 0
 152 -202 142 -216 87 -216 c 0
 64 -216 45 -189 45 -166 c 0
 45 -93 167 -13 231 13 c 1
 233 23 237 46 237 68 c 0xf8
 237 81 235 92 233 103 c 1
 200 88 175 81 142 80 c 0
 135 79 127 78 119 78 c 0
 99 78 90 85 90 101 c 0
 90 130 146 144 180 144 c 2
 194 144 l 2
 204 144 215 143 226 140 c 1
 240 152 248 166 260 186 c 0
 278 219 279 243 279 279 c 2
 279 286 l 2
 279 301 261 334 240 334 c 0
 216 334 210 331 185 326 c 0
 153 320 100 262 13 146 c 1
 0 155 l 1xf4
69 -166 m 0
 69 -187 75 -198 87 -198 c 0
 139 -198 209 -57 227 -4 c 1
 122 -63 69 -117 69 -166 c 0
EndSplineSet
Validated: 1
EndChar

StartChar: ii
Encoding: 1080 1080 150
Width: 454
GlyphClass: 2
Flags: MW
HStem: -6 18<58.5 94.5> 328 20<250 250 459 459>
VStem: 31 44<18.5 55.5> 242 45<19.5 22.5 17 45.5>
LayerCount: 2
Fore
SplineSet
0 156 m 1
 85 263 l 2
 101 281 127 306 162 340 c 1
 250 348 l 1
 219 298 174 220 117 117 c 0
 89 61 75 29 75 22 c 0
 75 15 79 12 86 12 c 0
 103 12 135 37 181 86 c 0
 230 139 293 224 367 341 c 1
 459 348 l 1
 379 211 l 2
 348 157 324 110 306 70 c 0
 293 42 287 25 287 20 c 0
 287 14 290 11 297 11 c 0
 320 11 350 32 387 72 c 0
 398 84 423 113 460 162 c 1
 473 154 l 1
 452 131 434 105 415 80 c 0
 393 53 374 34 358 22 c 0
 333 3 307 -7 281 -7 c 0
 257 -7 242 6 242 33 c 0
 242 58 260 121 279 161 c 2
 327 253 l 1
 265 161 212 93 166 48 c 0
 130 12 96 -6 68 -6 c 0
 49 -6 31 16 31 35 c 0
 31 76 78 188 151 310 c 1
 116 278 71 224 14 148 c 1
 0 156 l 1
EndSplineSet
Validated: 1
EndChar

StartChar: iibreve
Encoding: 1081 1081 151
Width: 454
GlyphClass: 2
Flags: MW
HStem: -6 18<58.5 94.5> 328 20<250 250 459 459> 444 17<328.5 348.5 323 387.5>
VStem: 31 44<18.5 55.5> 242 45<19.5 22.5 17 45.5> 255 52<469.5 532>
LayerCount: 2
Fore
SplineSet
255 518 m 0x24
 255 546 275 568 303 568 c 0
 326 568 349 549 349 526 c 0
 349 506 340 492 322 484 c 0
 312 480 307 476 307 474 c 0
 307 465 315 461 331 461 c 0
 366 461 448 462 536 553 c 1
 550 540 l 1
 485 476 420 444 355 444 c 0
 302 444 255 469 255 518 c 0x24
0 156 m 1xd8
 85 263 l 2
 101 281 127 306 162 340 c 1
 250 348 l 1
 219 298 174 220 117 117 c 0
 89 61 75 29 75 22 c 0
 75 15 79 12 86 12 c 0
 103 12 135 37 181 86 c 0
 230 139 293 224 367 341 c 1
 459 348 l 1
 379 211 l 2
 348 157 324 110 306 70 c 0
 293 42 287 25 287 20 c 0
 287 14 290 11 297 11 c 0
 320 11 350 32 387 72 c 0
 398 84 423 113 460 162 c 1
 473 154 l 1
 452 131 434 105 415 80 c 0
 393 53 374 34 358 22 c 0
 333 3 307 -7 281 -7 c 0
 257 -7 242 6 242 33 c 0
 242 58 260 121 279 161 c 2
 327 253 l 1
 265 161 212 93 166 48 c 0
 130 12 96 -6 68 -6 c 0
 49 -6 31 16 31 35 c 0
 31 76 78 188 151 310 c 1
 116 278 71 224 14 148 c 1
 0 156 l 1xd8
EndSplineSet
Validated: 1
EndChar

StartChar: ka
Encoding: 1082 1082 152
Width: 452
GlyphClass: 2
Flags: MW
HStem: -7 19<291.5 306> 189 31 326 21<172 213.5> 333 16<383.5 390>
VStem: 191 34<298.5 304.5 270 320> 226 58<18.5 62.5> 277 39
LayerCount: 2
Fore
SplineSet
0 156 m 1xe8
 55 228 85 273 139 317 c 0
 164 337 186 347 207 347 c 0
 220 347 225 326 225 283 c 0
 225 257 217 226 201 190 c 0
 195 176 161 106 141 68 c 0
 129 46 105 7 105 7 c 1
 10 -7 l 1
 130 172 191 280 191 317 c 0
 191 323 189 326 184 326 c 0
 160 326 103 267 13 148 c 1
 0 156 l 1xe8
211 198 m 0
 211 210 232 217 272 220 c 0
 280 221 283 225 291 236 c 0
 302 251 301 281 321 304 c 0
 348 335 373 349 394 349 c 0
 423 349 457 324 457 295 c 0
 457 270 437 250 412 250 c 0
 391 250 371 267 371 288 c 0
 371 297 374 306 382 315 c 2
 394 329 l 2
 394 332 392 333 388 333 c 0
 373 333 341 306 325 277 c 0
 315 259 314 226 296 215 c 1
 314 206 316 185 316 160 c 2
 316 139 l 2xda
 316 122 311 99 300 70 c 0
 289 41 284 25 284 22 c 0
 284 15 288 12 295 12 c 0
 319 12 349 33 386 73 c 0
 395 83 419 113 458 163 c 1
 471 155 l 1
 413 81 l 2
 375 34 341 -7 271 -7 c 0
 249 -7 226 13 226 53 c 0xdc
 226 72 234 98 251 129 c 0
 268 160 277 180 277 189 c 0xda
 277 194 275 198 272 203 c 1
 267 202 234 189 224 189 c 0
 216 189 211 192 211 198 c 0
EndSplineSet
Validated: 1
EndChar

StartChar: el
Encoding: 1083 1083 153
Width: 536
GlyphClass: 2
Flags: MW
HStem: -7 18<375.5 376> 0 17<38.5 58.5 33 110.5> 328 20G<541 541> 328 20G<541 541>
VStem: -35 52<25.5 88> 333 36<17 75.5>
LayerCount: 2
Fore
SplineSet
-35 74 m 0x4c
 -35 102 -15 124 13 124 c 0
 36 124 59 105 59 82 c 0
 59 62 50 48 32 40 c 0
 22 36 17 32 17 30 c 0
 17 21 25 17 41 17 c 0x4c
 76 17 158 18 246 109 c 0
 272 136 318 192 324 199 c 2
 376 263 l 2
 392 281 418 306 453 340 c 1
 541 348 l 1
 461 211 l 2
 430 157 406 110 388 70 c 0
 375 42 369 25 369 20 c 0
 369 14 372 11 379 11 c 0
 402 11 432 32 469 72 c 0
 480 84 505 113 542 162 c 1
 555 154 l 1
 534 131 516 105 497 80 c 0
 475 53 456 34 440 22 c 0
 415 3 389 -7 363 -7 c 0x9c
 341 -7 333 23 333 63 c 0
 333 88 342 121 361 161 c 0
 385 207 419 264 443 310 c 1
 415 285 380 245 338 191 c 1
 338 190 l 1
 248 63 156 0 65 0 c 0
 12 0 -35 25 -35 74 c 0x4c
EndSplineSet
Validated: 1
EndChar

StartChar: em
Encoding: 1084 1084 154
Width: 745
GlyphClass: 2
Flags: MW
HStem: -7 18<584.5 585> 0 17<38.5 58.5 33 110.5> 328 20G<541 541 750 750> 328 20G<541 541 750 750>
VStem: -35 52<25.5 88> 333 33<18.5 84.5> 543 35<17 75.5>
LayerCount: 2
Fore
SplineSet
-35 74 m 0x4e
 -35 102 -15 124 13 124 c 0
 36 124 59 105 59 82 c 0
 59 62 50 48 32 40 c 0
 22 36 17 32 17 30 c 0
 17 21 25 17 41 17 c 0x4e
 76 17 158 18 246 109 c 0
 272 136 318 192 324 199 c 2
 376 263 l 2
 392 281 418 306 453 340 c 1
 541 348 l 1
 510 298 465 220 408 117 c 0
 380 61 366 29 366 22 c 0
 366 15 370 12 377 12 c 0
 394 12 426 37 472 86 c 0
 521 139 584 224 658 341 c 1
 750 348 l 1
 670 211 l 2
 639 157 615 110 597 70 c 0
 584 42 578 25 578 20 c 0
 578 14 581 11 588 11 c 0
 611 11 641 32 678 72 c 0
 689 84 714 113 751 162 c 1
 764 154 l 1
 743 131 725 105 706 80 c 0
 684 53 665 34 649 22 c 0
 624 3 598 -7 572 -7 c 0x9e
 551 -7 543 23 543 63 c 0
 543 88 551 121 570 161 c 2
 618 253 l 1
 556 161 503 93 457 48 c 0
 421 12 387 -6 359 -6 c 0
 334 -6 333 26 333 64 c 0
 333 105 369 188 442 310 c 1
 415 285 380 245 338 191 c 1
 338 190 l 1
 248 63 156 0 65 0 c 0
 12 0 -35 25 -35 74 c 0x4e
EndSplineSet
Validated: 1
EndChar

StartChar: en
Encoding: 1085 1085 155
Width: 454
GlyphClass: 2
Flags: MW
HStem: -7 18<293.5 294> 181 13<203 289 197 296> 326 21<172 214> 328 20G<459 459>
VStem: 191 34<298.5 304.5 270.5 320> 252 35<17 75.5>
LayerCount: 2
Fore
SplineSet
0 156 m 1xec
 55 228 85 273 139 317 c 0
 164 337 186 347 207 347 c 0xec
 221 347 225 326 225 283 c 0
 225 258 218 228 203 194 c 1
 296 194 l 1
 319 241 348 304 367 341 c 1
 459 348 l 1xdc
 379 211 l 2
 348 157 324 110 306 70 c 0
 293 42 287 25 287 20 c 0
 287 14 290 11 297 11 c 0
 320 11 350 32 387 72 c 0
 398 84 423 113 460 162 c 1
 473 154 l 1
 452 131 434 105 415 80 c 0
 393 53 374 34 358 22 c 0
 333 3 307 -7 281 -7 c 0
 260 -7 252 23 252 63 c 0
 252 88 260 121 279 161 c 2
 289 181 l 1
 197 181 l 1
 181 148 126 46 105 7 c 1
 10 -7 l 1
 130 172 191 280 191 317 c 0
 191 323 189 326 184 326 c 0
 160 326 103 267 13 148 c 1
 0 156 l 1xec
EndSplineSet
Validated: 1
EndChar

StartChar: ocyril
Encoding: 1086 1086 156
Width: 345
GlyphClass: 2
Flags: MW
HStem: -7 18<90 108.5> 44 17<231.5 238> 329 18<234.5 261 198.5 265>
VStem: 19 53<26.5 118> 291 34<253.5 285.5 225 293.5>
LayerCount: 2
Fore
SplineSet
0 156 m 1
 91 283 168 347 229 347 c 0
 293 347 325 316 325 255 c 0
 325 195 291 132 224 64 c 1
 227 61 229 61 234 61 c 0
 259 61 298 95 351 162 c 1
 365 154 l 1
 337 119 317 95 305 83 c 0
 277 57 251 44 225 44 c 0
 218 44 212 45 206 47 c 1
 165 11 126 -7 91 -7 c 0
 27 -7 19 45 19 109 c 0
 19 127 24 150 35 177 c 1
 13 148 l 1
 0 156 l 1
72 34 m 0
 72 19 81 11 99 11 c 0
 128 11 158 25 190 55 c 1
 186 61 185 66 185 72 c 0
 185 91 194 101 215 101 c 0
 217 101 220 101 223 100 c 0
 269 172 291 231 291 276 c 0
 291 311 278 329 252 329 c 0
 217 329 177 288 133 207 c 0
 92 131 72 74 72 34 c 0
EndSplineSet
Validated: 1
EndChar

StartChar: pecyril
Encoding: 1087 1087 157
Width: 497
GlyphClass: 2
Flags: MW
HStem: -7 18<327.5 337.5> 326 21<172 214 397.5 408.5>
VStem: 191 46<298.5 319.5 289 320> 280 36<17.5 62.5> 416 30<285 320.5>
LayerCount: 2
Fore
SplineSet
0 156 m 1
 55 228 85 273 139 317 c 0
 164 337 186 347 207 347 c 0
 221 347 237 337 237 302 c 0
 237 276 217 226 201 190 c 0
 195 176 179 148 155 104 c 1
 215 183 264 241 302 280 c 0
 346 325 383 347 412 347 c 0
 434 347 446 331 446 297 c 0
 446 273 432 220 421 191 c 0
 416 178 397 147 363 98 c 0
 332 52 316 26 316 21 c 0
 316 14 322 11 333 11 c 0
 361 11 393 30 429 69 c 0
 439 79 463 110 503 162 c 1
 516 154 l 1
 458 80 l 2
 436 53 417 34 402 22 c 0
 377 3 351 -7 324 -7 c 0
 294 -7 280 24 280 47 c 0
 280 78 301 143 323 180 c 0
 334 199 354 227 383 264 c 0
 405 292 416 310 416 318 c 0
 416 323 412 326 405 326 c 0
 352 326 252 219 105 7 c 1
 10 -7 l 1
 130 172 191 280 191 317 c 0
 191 323 189 326 184 326 c 0
 160 326 103 267 13 148 c 1
 0 156 l 1
EndSplineSet
Validated: 1
EndChar

StartChar: er
Encoding: 1088 1088 158
Width: 444
GlyphClass: 2
Flags: MW
HStem: -8 17<276 285> 327 21<356.5 366>
VStem: 232 34<15.5 55.5> 372 28<316 321.5 295 323>
LayerCount: 2
Fore
SplineSet
-152 -216 m 1
 214 397 l 1
 13 147 l 1
 0 156 l 1
 27 192 96 279 210 418 c 0
 224 434 244 457 268 488 c 1
 326 585 l 1
 379 585 l 1
 121 133 l 1
 276 297 l 2
 313 331 344 348 369 348 c 0
 389 348 400 333 400 310 c 0
 400 280 381 205 359 166 c 0
 348 146 328 115 299 75 c 0
 277 45 266 26 266 19 c 0
 266 12 271 9 281 9 c 0
 307 9 340 29 377 69 c 0
 389 82 413 113 450 162 c 1
 463 153 l 1
 410 77 365 29 330 7 c 0
 313 -3 295 -8 275 -8 c 0
 250 -8 232 17 232 38 c 0
 232 73 254 141 276 179 c 0
 287 197 308 226 339 264 c 0
 361 292 372 311 372 321 c 0
 372 325 369 327 363 327 c 0
 344 327 319 312 286 281 c 0
 260 257 204 199 120 107 c 2
 82 65 l 1
 -78 -216 l 1
 -152 -216 l 1
EndSplineSet
Validated: 1
EndChar

StartChar: es
Encoding: 1089 1089 159
Width: 322
GlyphClass: 2
Flags: MW
HStem: -7 18<91.5 124.5> 330 17<239.5 258 196 265>
VStem: 17 55<38 118> 281 52<259 320.5>
LayerCount: 2
Fore
SplineSet
0 156 m 1
 90 283 160 347 232 347 c 0
 284 347 333 322 333 273 c 0
 333 245 313 223 285 223 c 0
 261 223 239 241 239 265 c 0
 239 285 248 299 266 307 c 0
 276 311 281 314 281 316 c 0
 281 325 273 330 257 330 c 0
 222 330 181 289 135 208 c 0
 92 132 72 94 72 54 c 0
 72 22 81 11 102 11 c 0
 148 11 190 27 231 59 c 0
 257 79 290 113 328 162 c 1
 340 154 l 1
 298 100 265 62 239 42 c 0
 197 9 150 -7 99 -7 c 0
 31 -7 17 41 17 108 c 0
 17 128 22 149 31 171 c 1
 14 148 l 1
 0 156 l 1
EndSplineSet
Validated: 1
EndChar

StartChar: te
Encoding: 1090 1090 160
Width: 690
GlyphClass: 2
Flags: MW
HStem: -7 18<530 533.5> 322 25
VStem: 190 50<303.5 317 284.5 323> 384 55<281.5 314.5> 479 42<18.5 55.5> 611 34<315.5 322.5>
LayerCount: 2
Fore
SplineSet
0 156 m 1
 43 213 73 251 90 270 c 0
 137 321 175 347 204 347 c 0
 226 347 240 336 240 298 c 0
 240 271 218 224 204 193 c 0
 199 183 185 157 161 115 c 1
 227 203 l 2
 253 236 276 263 298 286 c 0
 336 326 371 347 404 347 c 0
 420 347 439 340 439 298 c 0
 439 262 407 186 374 123 c 1
 481 272 559 347 610 347 c 0
 626 347 645 346 645 302 c 0
 645 261 614 168 567 98 c 0
 537 52 521 27 521 22 c 0
 521 15 526 11 534 11 c 0
 557 11 587 32 624 73 c 2
 696 162 l 1
 709 154 l 1
 651 80 l 2
 629 53 610 34 594 22 c 0
 569 3 545 -7 522 -7 c 0
 496 -7 479 18 479 39 c 0
 479 72 503 141 521 177 c 0
 525 184 541 209 572 252 c 0
 598 288 611 311 611 320 c 0
 611 325 608 328 601 328 c 0
 582 328 555 311 520 277 c 0
 456 215 388 123 317 3 c 1
 227 -3 l 1
 263 53 384 252 384 311 c 0
 384 318 382 322 376 322 c 0
 338 322 247 216 104 5 c 1
 13 -3 l 1
 131 178 190 286 190 321 c 0
 190 325 188 327 185 327 c 0
 161 327 104 267 14 148 c 1
 0 156 l 1
EndSplineSet
Validated: 1
EndChar

StartChar: ucyril
Encoding: 1091 1091 161
Width: 465
GlyphClass: 2
Flags: MW
HStem: -216 14<52 80.5 52 111.5> -9 16<96.5 110> 327 20<182 196.5>
VStem: -5 31<-182 -155 -182 -151> 54 35<12.5 73> 203 28<292.5 321.5>
LayerCount: 2
Fore
SplineSet
-5 -166 m 0
 -5 -136 22 -105 78 -74 c 0
 98 -64 139 -46 203 -20 c 1
 312 202 l 1
 266 139 234 98 217 78 c 0
 167 20 126 -9 94 -9 c 0
 67 -9 54 15 54 33 c 0
 54 113 122 216 168 272 c 0
 191 300 203 315 203 319 c 0
 203 324 200 327 193 327 c 0
 164 327 104 266 14 146 c 1
 0 155 l 1
 96 283 163 347 201 347 c 0
 228 347 231 326 231 307 c 0
 231 278 211 208 188 167 c 0
 175 145 154 113 124 72 c 0
 101 40 89 22 89 15 c 0
 89 10 93 7 100 7 c 0
 136 7 207 81 313 230 c 0
 328 251 349 286 377 335 c 1
 462 345 l 1
 440 308 408 251 367 176 c 2
 282 7 l 1
 290 10 302 13 317 19 c 0
 361 37 412 85 471 161 c 1
 484 152 l 1
 407 52 355 14 273 -12 c 1
 201 -148 158 -216 65 -216 c 0
 30 -216 -5 -198 -5 -166 c 0
26 -174 m 0
 26 -190 44 -202 60 -202 c 0
 101 -202 146 -147 195 -39 c 1
 83 -91 26 -136 26 -174 c 0
EndSplineSet
Validated: 1
EndChar

StartChar: ef
Encoding: 1092 1092 162
Width: 584
GlyphClass: 2
Flags: MW
HStem: -7 19<75 91> 44 17<471.5 477> 326 21<249 263.5 189.5 274>
VStem: 18 39<24.5 107.5> 530 34<253.5 285.5 225 293.5>
LayerCount: 2
Fore
SplineSet
0 156 m 1
 91 283 143 347 236 347 c 0
 291 347 320 327 322 288 c 1
 322 288 320 283 316 275 c 2
 501 585 l 1
 554 585 l 1
 413 339 l 1
 431 344 449 347 468 347 c 0
 532 347 564 316 564 255 c 0
 564 195 530 132 463 64 c 0
 465 62 469 61 474 61 c 0
 499 61 537 95 590 162 c 1
 604 154 l 1
 576 119 556 95 544 83 c 0
 516 57 490 44 464 44 c 0
 457 44 451 45 445 47 c 1
 404 11 366 -7 331 -7 c 0
 292 -7 261 10 241 37 c 1
 97 -216 l 1
 23 -216 l 1
 178 45 l 1
 143 11 108 -7 74 -7 c 0
 20 -7 18 41 18 95 c 0
 18 120 24 146 35 175 c 1
 14 148 l 1
 0 156 l 1
57 31 m 0
 57 18 66 12 84 12 c 0
 140 12 213 106 241 153 c 0
 284 224 305 268 305 284 c 0
 305 308 286 326 262 326 c 0
 236 326 197 289 148 215 c 0
 87 123 57 62 57 31 c 0
311 34 m 0
 311 19 320 11 338 11 c 0
 367 11 397 25 429 55 c 1
 425 61 424 66 424 72 c 0
 424 91 434 101 455 101 c 0
 457 101 459 101 462 100 c 0
 508 172 530 231 530 276 c 0
 530 311 517 329 491 329 c 0
 456 329 417 288 373 207 c 0
 332 131 311 74 311 34 c 0
EndSplineSet
Validated: 1
EndChar

StartChar: kha
Encoding: 1093 1093 163
Width: 398
GlyphClass: 2
Flags: MW
HStem: -7 18<236.5 242.5> -7 51<29.5 98.5> 310 37 326 21<172 218>
VStem: 179 64<163 168 168 180 180 186 157 196> 343 82<279 312.5>
LayerCount: 2
Fore
SplineSet
-12 45 m 0x4c
 -12 75 4 90 35 90 c 0
 54 90 67 82 75 67 c 0
 83 52 89 44 92 44 c 0
 105 44 140 89 179 163 c 1
 179 180 l 2
 179 212 182 240 191 288 c 0
 194 301 195 310 195 316 c 0
 195 323 191 326 184 326 c 0
 160 326 103 267 13 148 c 1
 0 156 l 1
 43 213 74 252 91 271 c 0
 138 322 176 347 206 347 c 0x5c
 230 347 237 299 241 222 c 1
 285 301 334 347 373 347 c 0
 402 347 425 327 425 298 c 0
 425 270 411 256 382 256 c 0
 363 256 350 263 343 279 c 2
 343 279 338 310 333 310 c 0
 314 310 253 208 243 186 c 1
 243 168 l 2
 243 146 242 114 230 62 c 0
 227 50 225 40 225 31 c 0
 225 18 231 11 242 11 c 0
 265 11 295 31 332 72 c 0
 344 85 368 115 404 162 c 1
 417 154 l 1
 410 145 l 2
 366 85 329 43 302 21 c 0
 278 2 255 -7 230 -7 c 0xac
 180 -7 186 67 181 133 c 1
 134 46 82 -7 44 -7 c 0
 15 -7 -12 16 -12 45 c 0x4c
EndSplineSet
Validated: 1
EndChar

StartChar: tse
Encoding: 1094 1094 164
Width: 584
GlyphClass: 2
Flags: MW
HStem: -213 14<205 234.5 205 243.5> -6 18<58.5 94.5> 328 20G<250 250 459 459> 328 20G<250 250 459 459>
VStem: 31 44<18.5 55.5> 148 32<-179 -152.5 -179 -148> 242 45<19.5 22.5 17 45.5>
LayerCount: 2
Fore
SplineSet
0 156 m 1xde
 85 263 l 2
 101 281 127 306 162 340 c 1
 250 348 l 1
 219 298 174 220 117 117 c 0
 89 61 75 29 75 22 c 0
 75 15 79 12 86 12 c 0
 103 12 135 37 181 86 c 0
 230 139 293 224 367 341 c 1
 459 348 l 1
 379 211 l 2
 348 157 324 110 306 70 c 0
 293 42 287 25 287 20 c 0
 287 14 290 11 297 11 c 0
 320 11 350 32 387 72 c 0
 398 84 423 113 460 162 c 1
 473 154 l 1
 439 70 444 26 438 3 c 1
 505 27 533 83 590 158 c 1
 604 149 l 1
 541 64 510 4 434 -17 c 1
 425 -61 388 -123 368 -142 c 0
 318 -190 268 -213 219 -213 c 0
 184 -213 148 -196 148 -163 c 0
 148 -133 176 -103 233 -72 c 0
 251 -62 293 -44 359 -17 c 1
 388 50 l 1
 361 22 323 -7 281 -7 c 0
 257 -7 242 6 242 33 c 0
 242 58 260 121 279 161 c 2
 327 253 l 1
 265 161 212 93 166 48 c 0
 130 12 96 -6 68 -6 c 0
 49 -6 31 16 31 35 c 0
 31 76 78 188 151 310 c 1
 116 278 71 224 14 148 c 1
 0 156 l 1xde
180 -171 m 0
 180 -187 197 -199 213 -199 c 0
 256 -199 302 -145 351 -37 c 1
 237 -90 180 -134 180 -171 c 0
EndSplineSet
Validated: 1
EndChar

StartChar: che
Encoding: 1095 1095 165
Width: 382
GlyphClass: 2
Flags: MW
HStem: -7 18<222.5 237.5 222.5 240.5> 307 17<262 264.5> 328 20G<387 387> 328 20G<387 387>
VStem: 157 56<372.5 405> 180 36<17 75.5>
LayerCount: 2
Fore
SplineSet
0 157 m 1xd4
 17 181 45 215 82 260 c 2
 168 352 l 1
 161 360 157 368 157 377 c 0
 157 395 177 417 195 417 c 0
 207 417 213 411 213 399 c 0xd8
 213 391 206 376 192 355 c 1
 212 346 232 336 253 327 c 0
 256 325 260 324 264 324 c 0
 276 324 287 333 295 341 c 1
 387 348 l 1
 308 211 l 2
 277 157 253 110 235 70 c 0
 222 42 216 25 216 20 c 0
 216 14 219 11 226 11 c 0
 249 11 279 32 316 72 c 0
 327 84 351 113 388 162 c 1
 401 154 l 1
 343 80 l 2
 307 37 271 -7 210 -7 c 0
 186 -7 180 23 180 63 c 0
 180 88 189 121 208 161 c 2
 287 316 l 1
 279 311 269 307 260 307 c 0
 257 307 254 307 251 308 c 0
 232 315 218 324 182 343 c 1
 87 242 l 2
 70 222 46 191 14 148 c 1
 0 157 l 1xd4
EndSplineSet
Validated: 1
EndChar

StartChar: sha
Encoding: 1096 1096 166
Width: 663
GlyphClass: 2
Flags: MW
HStem: -6 18<57 94.5> 328 20G<250 250 459 459 668 668> 328 20G<250 250 459 459 668 668>
VStem: 42 33<18.5 84.5> 251 33<18.5 84.5> 461 35<17 75.5>
LayerCount: 2
Fore
SplineSet
0 156 m 1xbc
 85 263 l 2
 101 281 127 306 162 340 c 1
 250 348 l 1
 219 298 174 220 117 117 c 0
 89 61 75 29 75 22 c 0
 75 15 79 12 86 12 c 0
 103 12 135 37 181 86 c 0
 230 139 293 224 367 341 c 1
 459 348 l 1
 428 298 383 220 326 117 c 0
 298 61 284 29 284 22 c 0
 284 15 288 12 295 12 c 0
 312 12 344 37 390 86 c 0
 439 139 502 224 576 341 c 1
 668 348 l 1
 588 211 l 2
 557 157 533 110 515 70 c 0
 502 42 496 25 496 20 c 0
 496 14 499 11 506 11 c 0
 529 11 559 32 596 72 c 0
 607 84 632 113 669 162 c 1
 682 154 l 1
 624 80 l 2
 602 53 583 34 567 22 c 0
 542 3 516 -7 490 -7 c 0
 470 -7 461 23 461 63 c 0
 461 88 469 121 488 161 c 2
 536 253 l 1
 474 161 421 93 375 48 c 0
 339 12 305 -6 277 -6 c 0
 255 -6 251 25 251 64 c 0
 251 105 254 131 327 253 c 1
 265 161 212 93 166 48 c 0
 130 12 96 -6 68 -6 c 0
 46 -6 42 25 42 64 c 0
 42 105 78 188 151 310 c 1
 116 278 71 224 14 148 c 1
 0 156 l 1xbc
EndSplineSet
Validated: 1
EndChar

StartChar: shcha
Encoding: 1097 1097 167
Width: 794
GlyphClass: 2
Flags: MW
HStem: -213 14<414 443.5 414 452.5> -6 18<57 94.5> 328 20G<250 250 459 459 668 668> 328 20G<250 250 459 459 668 668>
VStem: 42 33<18.5 84.5> 251 33<18.5 84.5> 357 32<-179 -152.5 -179 -148> 461 35<17 75.5>
LayerCount: 2
Fore
SplineSet
0 156 m 1xdf
 85 263 l 2
 101 281 127 306 162 340 c 1
 250 348 l 1
 219 298 174 220 117 117 c 0
 89 61 75 29 75 22 c 0
 75 15 79 12 86 12 c 0
 103 12 135 37 181 86 c 0
 230 139 293 224 367 341 c 1
 459 348 l 1
 428 298 383 220 326 117 c 0
 298 61 284 29 284 22 c 0
 284 15 288 12 295 12 c 0
 312 12 344 37 390 86 c 0
 439 139 502 224 576 341 c 1
 668 348 l 1
 588 211 l 2
 557 157 533 110 515 70 c 0
 502 42 496 25 496 20 c 0
 496 14 499 11 506 11 c 0
 529 11 559 32 596 72 c 0
 607 84 632 113 669 162 c 1
 682 154 l 1
 648 70 653 26 647 3 c 1
 714 27 742 83 799 158 c 1
 813 149 l 1
 750 64 719 4 643 -17 c 1
 634 -61 597 -123 577 -142 c 0
 527 -190 477 -213 428 -213 c 0
 393 -213 357 -196 357 -163 c 0
 357 -133 385 -103 442 -72 c 0
 460 -62 502 -44 568 -17 c 1
 597 50 l 1
 570 22 532 -7 490 -7 c 0
 470 -7 461 23 461 63 c 0
 461 88 469 121 488 161 c 2
 536 253 l 1
 474 161 421 93 375 48 c 0
 339 12 305 -6 277 -6 c 0
 255 -6 251 25 251 64 c 0
 251 105 254 131 327 253 c 1
 265 161 212 93 166 48 c 0
 130 12 96 -6 68 -6 c 0
 46 -6 42 25 42 64 c 0
 42 105 78 188 151 310 c 1
 116 278 71 224 14 148 c 1
 0 156 l 1xdf
389 -171 m 0
 389 -187 406 -199 422 -199 c 0
 465 -199 511 -145 560 -37 c 1
 446 -90 389 -134 389 -171 c 0
EndSplineSet
Validated: 1
EndChar

StartChar: hard
Encoding: 1098 1098 168
Width: 437
GlyphClass: 2
Flags: MW
HStem: -9 18<275.5 309 275.5 310> 179 17 307 17<262 264.5> 328 20G<387 387> 328 20G<387 387>
VStem: 157 56<372.5 405> 201 38<34.5 116> 382 34<136 143.5 78.5 151.5>
LayerCount: 2
Fore
SplineSet
0 157 m 1xeb
 17 181 45 215 82 260 c 2
 168 352 l 1
 161 360 157 368 157 377 c 0
 157 395 177 417 195 417 c 0
 207 417 213 411 213 399 c 0xed
 213 391 206 376 192 355 c 1
 212 346 232 336 253 327 c 0
 256 325 260 324 264 324 c 0
 276 324 287 333 295 341 c 1
 387 348 l 1
 299 196 l 1
 303 196 l 2
 308 196 313 197 318 197 c 0
 378 197 416 170 416 117 c 0
 416 40 337 -9 283 -9 c 0
 215 -9 201 39 201 106 c 0
 201 126 206 147 215 169 c 0
 239 215 263 270 287 316 c 1
 279 311 269 307 260 307 c 0
 257 307 254 307 251 308 c 0
 232 315 218 324 182 343 c 1
 87 242 l 2
 70 222 46 191 14 148 c 1
 0 157 l 1xeb
239 42 m 2xe3
 239 27 265 9 286 9 c 0
 332 9 368 51 381 126 c 0
 382 130 382 134 382 138 c 0
 382 165 364 179 341 179 c 2
 331 179 l 2
 318 179 304 178 289 173 c 1
 257 115 l 2
 240 87 239 70 239 53 c 2
 239 42 l 2xe3
EndSplineSet
Validated: 1
EndChar

StartChar: yeri
Encoding: 1099 1099 169
Width: 537
GlyphClass: 2
Flags: MW
HStem: -7 18<135.5 169 135.5 170> 181 18<185.5 187.5 176.5 192 176.5 202> 328 20G<250 250 550 550> 328 20G<250 250 550 550>
VStem: 61 39<36.5 118> 242 34<81 153.5> 336 33<18 83>
LayerCount: 2
Fore
SplineSet
0 156 m 1xde
 85 263 l 2
 101 281 127 306 162 340 c 1
 250 348 l 1
 163 198 l 1
 168 198 174 199 179 199 c 0
 196 199 209 194 226 194 c 0
 273 194 330 223 354 240 c 0
 397 271 430 313 461 342 c 1
 550 348 l 1
 430 155 369 47 369 21 c 0
 369 15 373 12 381 12 c 0
 415 12 466 60 536 154 c 2
 543 163 l 1
 556 154 l 1
 498 81 l 2
 462 38 426 -7 365 -7 c 0
 342 -7 336 26 336 68 c 0
 336 98 357 148 398 219 c 2
 451 311 l 1
 430 291 401 260 366 233 c 0
 330 206 280 187 243 183 c 1
 264 170 276 149 276 120 c 0
 276 42 197 -7 143 -7 c 0
 75 -7 61 41 61 108 c 0
 61 128 66 149 75 171 c 2
 75 171 78 188 151 310 c 1
 116 278 71 224 14 148 c 1
 0 156 l 1xde
100 44 m 2
 100 29 125 11 146 11 c 0
 192 11 228 53 241 128 c 0
 242 132 242 136 242 140 c 0
 242 167 225 181 202 181 c 2
 192 181 l 2
 179 181 165 180 150 175 c 1
 117 117 l 2
 102 91 100 75 100 59 c 2
 100 44 l 2
EndSplineSet
Validated: 1
EndChar

StartChar: soft
Encoding: 1100 1100 170
Width: 297
GlyphClass: 2
Flags: MW
HStem: -7 18<135.5 169 135.5 170> 181 18<185.5 192 192 202> 328 20G<250 250> 328 20G<250 250>
VStem: 61 39<36.5 118> 242 34<138 145.5 80.5 153.5>
LayerCount: 2
Fore
SplineSet
0 156 m 1xdc
 85 263 l 2
 101 281 127 306 162 340 c 1
 250 348 l 1
 163 198 l 1
 168 198 174 199 179 199 c 0
 239 199 276 172 276 119 c 0
 276 42 197 -7 143 -7 c 0
 75 -7 61 41 61 108 c 0
 61 128 66 149 75 171 c 2
 75 171 78 188 151 310 c 1
 116 278 71 224 14 148 c 1
 0 156 l 1xdc
100 44 m 2
 100 29 125 11 146 11 c 0
 192 11 228 53 241 128 c 0
 242 132 242 136 242 140 c 0
 242 167 225 181 202 181 c 2
 192 181 l 2
 179 181 165 180 150 175 c 1
 117 117 l 2
 102 91 100 75 100 59 c 2
 100 44 l 2
EndSplineSet
Validated: 1
EndChar

StartChar: ecyrilrev
Encoding: 1101 1101 171
Width: 291
GlyphClass: 2
Flags: MW
HStem: 0 17<33 58.5 33 72.5> 44 17<180 184> 147 18 222 21<88 132> 335 19<187 206.5>
VStem: -35 51<25.5 88> 95 54<188 204 195.5 198.5> 227 54<228.5 320.5>
LayerCount: 2
Fore
SplineSet
-35 74 m 0
 -35 102 -15 124 13 124 c 0
 36 124 59 105 59 82 c 0
 59 62 49 48 31 40 c 0
 21 36 16 32 16 30 c 0
 16 21 25 17 41 17 c 0
 76 17 116 58 162 139 c 2
 170 153 l 1
 159 149 141 147 131 147 c 0
 124 147 118 148 112 152 c 0
 96 163 95 169 95 188 c 2
 95 191 l 2
 95 206 97 219 97 220 c 0
 97 222 96 222 94 222 c 0
 82 222 62 208 35 180 c 1
 21 189 l 1
 45 213 85 243 117 243 c 0
 147 243 149 239 149 214 c 2
 149 204 l 2
 149 187 147 178 147 176 c 0
 147 171 153 165 163 165 c 0
 168 165 174 167 178 169 c 0
 210 231 227 278 227 313 c 0
 227 328 217 335 196 335 c 0
 172 335 153 331 127 322 c 0
 113 317 93 303 66 276 c 1
 55 290 l 1
 66 301 76 309 85 317 c 0
 93 323 99 329 107 333 c 0
 118 340 130 343 140 345 c 0
 158 351 176 354 198 354 c 0
 266 354 281 305 281 238 c 0
 281 219 276 198 267 177 c 0
 247 130 216 91 180 61 c 1
 205 61 244 95 297 162 c 1
 311 154 l 1
 283 119 263 95 251 83 c 0
 223 57 197 44 171 44 c 0
 167 44 163 44 159 45 c 0
 117 16 92 0 53 0 c 0
 13 0 -35 25 -35 74 c 0
EndSplineSet
Validated: 1
EndChar

StartChar: iu
Encoding: 1102 1102 172
Width: 594
GlyphClass: 2
Flags: MW
HStem: -7 18<339 357.5> 44 17<480.5 487> 181 13<203 286 197 292> 329 18<483.5 510>
VStem: 191 34<298.5 304.5 270.5 320> 268 53<26.5 118.5> 540 34<253.5 285.5 225 293.5>
LayerCount: 2
Fore
SplineSet
0 156 m 1
 55 228 85 273 139 317 c 0
 164 337 186 347 207 347 c 0
 222 347 225 326 225 283 c 0
 225 258 218 228 203 194 c 1
 292 194 l 1
 351 309 430 347 478 347 c 0
 542 347 574 316 574 255 c 0
 574 195 540 132 473 64 c 1
 476 61 478 61 483 61 c 0
 508 61 547 95 600 162 c 1
 614 154 l 1
 586 119 566 95 554 83 c 0
 526 57 500 44 474 44 c 0
 467 44 461 45 455 47 c 1
 414 11 375 -7 340 -7 c 0
 276 -7 268 45 268 109 c 0
 268 128 275 157 286 181 c 1
 197 181 l 1
 181 148 126 46 105 7 c 1
 10 -7 l 1
 130 172 191 280 191 317 c 0
 191 323 189 326 184 326 c 0
 160 326 103 267 13 148 c 1
 0 156 l 1
321 34 m 0
 321 19 330 11 348 11 c 0
 377 11 407 25 439 55 c 1
 435 61 434 66 434 72 c 0
 434 91 443 101 464 101 c 0
 466 101 469 101 472 100 c 0
 518 172 540 231 540 276 c 0
 540 311 527 329 501 329 c 0
 466 329 426 288 382 207 c 0
 341 131 321 74 321 34 c 0
EndSplineSet
Validated: 1
EndChar

StartChar: ia
Encoding: 1103 1103 173
Width: 427
GlyphClass: 2
Flags: MW
HStem: -7 19<264.5 268> 0 17<38.5 58.5 33 100> 126 19<160 177> 326 21<253 263.5 215.5 274> 327 20G<215.5 263.5 431 431>
VStem: -35 52<25.5 88> 103 39<157.5 218.5> 222 35<21 32.5 18 57>
LayerCount: 2
Fore
SplineSet
-35 74 m 4x67
 -35 102 -15 124 13 124 c 4
 36 124 59 105 59 82 c 4
 59 62 50 48 32 40 c 4
 22 36 17 32 17 30 c 4
 17 21 25 17 41 17 c 4
 76 17 118 18 206 109 c 4
 224 128 252 160 269 181 c 5
 271 185 l 5
 233 146 195 126 159 126 c 4
 105 126 103 174 103 206 c 4
 103 231 123 285 151 309 c 4
 179 333 195 347 236 347 c 4x77
 291 347 320 327 322 288 c 5
 348 330 l 5
 385 337 l 5
 386 338 l 5
 386 337 l 5
 431 347 l 5
 315 153 257 44 257 21 c 4
 257 15 261 12 268 12 c 4
 293 12 324 32 360 71 c 4
 370 82 395 112 433 162 c 5
 447 154 l 5
 389 80 l 6
 367 53 348 34 332 22 c 4
 307 3 281 -7 255 -7 c 4xaf
 239 -7 222 2 222 40 c 4
 222 74 231 91 236 113 c 5
 166 38 135 0 65 0 c 4
 12 0 -35 25 -35 74 c 4x67
142 164 m 4
 142 151 151 145 169 145 c 4
 194 145 223 163 258 199 c 4
 284 226 279 219 290 241 c 4
 300 262 305 276 305 284 c 4
 305 307 286 326 262 326 c 4
 244 326 210 300 189 271 c 4
 162 234 142 182 142 164 c 4
EndSplineSet
Validated: 1
EndChar

StartChar: io
Encoding: 1105 1105 174
Width: 321
GlyphClass: 2
Flags: MW
HStem: -7 18<90.5 123.5 90.5 126.5> 162 14 332 15<231 262> 444 119<197.5 215 352.5 369.5>
VStem: 13 59<43.5 117> 146 117<493 512.5> 281 52<288 299.5 265 314> 301 118<493.5 512.5>
LayerCount: 2
Fore
SplineSet
146 495 m 0x15
 146 530 180 563 215 563 c 0
 243 563 263 541 263 512 c 0
 263 474 234 444 196 444 c 0
 168 444 146 467 146 495 c 0x15
301 495 m 0
 301 530 335 563 370 563 c 0
 398 563 419 540 419 512 c 0
 419 475 388 444 351 444 c 0
 323 444 301 468 301 495 c 0
0 156 m 1xea
 6 166 14 171 25 173 c 1
 47 220 64 254 114 299 c 0
 134 317 189 347 236 347 c 0
 300 347 333 323 333 276 c 0
 333 254 317 233 292 214 c 0
 246 179 194 162 105 162 c 1
 84 117 72 87 72 59 c 0
 72 28 80 11 101 11 c 0
 146 11 190 27 231 59 c 0
 260 81 292 115 327 162 c 1
 340 154 l 1
 299 101 265 64 239 43 c 0
 197 9 151 -7 102 -7 c 0
 28 -7 13 38 13 110 c 0
 13 124 15 139 19 154 c 1
 14 148 l 1
 0 156 l 1xea
111 176 m 1
 149 177 189 190 224 213 c 0
 272 245 281 271 281 305 c 0
 281 323 272 332 252 332 c 0
 210 332 165 291 111 176 c 1
EndSplineSet
Validated: 1
EndChar

StartChar: ecyril
Encoding: 1108 1108 175
Width: 322
GlyphClass: 2
Flags: MW
HStem: -7 18<91.5 124.5> 121 21<172 216> 199 18 330 17<240 258 196 265>
VStem: 17 55<38 118> 155 54<150 173 165.5 168.5> 281 52<259 320.5>
LayerCount: 2
Fore
SplineSet
0 156 m 1
 90 283 160 347 232 347 c 0
 284 347 333 322 333 273 c 0
 333 245 313 223 285 223 c 0
 261 223 239 241 239 265 c 0
 239 285 248 299 266 307 c 0
 276 311 281 314 281 316 c 0
 281 325 273 330 257 330 c 0
 223 330 183 291 138 213 c 1
 149 217 165 217 173 217 c 0
 180 217 186 216 192 212 c 0
 208 201 209 195 209 176 c 2
 209 173 l 2
 209 158 207 145 207 144 c 0
 207 142 208 142 210 142 c 0
 222 142 242 156 269 184 c 1
 283 175 l 1
 259 151 219 121 187 121 c 0
 157 121 155 125 155 150 c 2
 155 160 l 2
 155 177 157 186 157 188 c 0
 157 193 151 199 141 199 c 0
 137 199 132 198 128 196 c 0
 90 128 72 92 72 54 c 0
 72 22 81 11 102 11 c 0
 148 11 190 27 231 59 c 0
 257 79 290 113 328 162 c 1
 340 154 l 1
 298 100 265 62 239 42 c 0
 197 9 150 -7 99 -7 c 0
 31 -7 17 41 17 108 c 0
 17 128 22 149 31 171 c 1
 14 148 l 1
 0 156 l 1
EndSplineSet
Validated: 1
EndChar

StartChar: icyril
Encoding: 1110 1110 176
Width: 237
GlyphClass: 2
Flags: MW
HStem: -7 19<77 95.5> 328 20<250 250> 448 119<267.5 285.5>
VStem: 18 51<23.5 34 18 48> 217 117<497.5 516.5>
LayerCount: 2
Fore
SplineSet
0 157 m 1
 57 232 111 294 162 342 c 1
 250 348 l 1
 130 155 69 47 69 21 c 0
 69 15 73 12 81 12 c 0
 115 12 166 60 236 154 c 2
 243 163 l 1
 256 154 l 1
 198 81 l 2
 162 38 126 -7 65 -7 c 0
 25 -7 18 14 18 33 c 0
 18 63 57 148 98 219 c 2
 151 311 l 1
 115 277 69 224 14 149 c 1
 0 157 l 1
217 499 m 0
 217 534 250 567 285 567 c 0
 313 567 334 544 334 516 c 0
 334 479 304 448 267 448 c 0
 239 448 217 471 217 499 c 0
EndSplineSet
Validated: 1
EndChar

StartChar: yi
Encoding: 1111 1111 177
Width: 237
GlyphClass: 2
Flags: MW
HStem: -7 19<77 95.5> 328 20<250 250> 444 119<187.5 205 342.5 359.5>
VStem: 18 51<23.5 34 18 48> 136 117<493 512.5> 291 118<493.5 512.5>
LayerCount: 2
Fore
SplineSet
136 495 m 0
 136 530 170 563 205 563 c 0
 233 563 253 541 253 512 c 0
 253 474 224 444 186 444 c 0
 158 444 136 467 136 495 c 0
291 495 m 0
 291 530 325 563 360 563 c 0
 388 563 409 540 409 512 c 0
 409 475 378 444 341 444 c 0
 313 444 291 468 291 495 c 0
0 157 m 1
 57 232 111 294 162 342 c 1
 250 348 l 1
 130 155 69 47 69 21 c 0
 69 15 73 12 81 12 c 0
 115 12 166 60 236 154 c 2
 243 163 l 1
 256 154 l 1
 198 81 l 2
 162 38 126 -7 65 -7 c 0
 25 -7 18 14 18 33 c 0
 18 63 57 148 98 219 c 2
 151 311 l 1
 115 277 69 224 14 149 c 1
 0 157 l 1
EndSplineSet
Validated: 1
EndChar

StartChar: ucyrilbreve
Encoding: 1118 1118 178
Width: 465
GlyphClass: 2
Flags: MW
HStem: -216 14<52 80.5 52 111.5> -9 16<96.5 110> 327 20<182 196.5> 444 17<308.5 328.5 303 367.5>
VStem: -5 31<-182 -155 -182 -151> 54 35<12.5 73> 203 28<292.5 321.5> 235 52<469.5 532>
LayerCount: 2
Fore
SplineSet
235 518 m 0
 235 546 255 568 283 568 c 0
 306 568 329 549 329 526 c 0
 329 506 320 492 302 484 c 0
 292 480 287 476 287 474 c 0
 287 465 295 461 311 461 c 0
 346 461 428 462 516 553 c 1
 530 540 l 1
 465 476 400 444 335 444 c 0
 282 444 235 469 235 518 c 0
-5 -166 m 0
 -5 -136 22 -105 78 -74 c 0
 98 -64 139 -46 203 -20 c 1
 312 202 l 1
 266 139 234 98 217 78 c 0
 167 20 126 -9 94 -9 c 0
 67 -9 54 15 54 33 c 0
 54 113 122 216 168 272 c 0
 191 300 203 315 203 319 c 0
 203 324 200 327 193 327 c 0
 164 327 104 266 14 146 c 1
 0 155 l 1
 96 283 163 347 201 347 c 0
 228 347 231 326 231 307 c 0
 231 278 211 208 188 167 c 0
 175 145 154 113 124 72 c 0
 101 40 89 22 89 15 c 0
 89 10 93 7 100 7 c 0
 136 7 207 81 313 230 c 0
 328 251 349 286 377 335 c 1
 462 345 l 1
 440 308 408 251 367 176 c 2
 282 7 l 1
 290 10 302 13 317 19 c 0
 361 37 412 85 471 161 c 1
 484 152 l 1
 407 52 355 14 273 -12 c 1
 201 -148 158 -216 65 -216 c 0
 30 -216 -5 -198 -5 -166 c 0
26 -174 m 0
 26 -190 44 -202 60 -202 c 0
 101 -202 146 -147 195 -39 c 1
 83 -91 26 -136 26 -174 c 0
EndSplineSet
Validated: 1
EndChar

StartChar: Yat
Encoding: 1122 1122 179
Width: 1051
GlyphClass: 2
Flags: MW
HStem: -8 15<120 156.5 120 231.5> 114 99<31 89> 369 15<995.5 1028> 417 17<324 358> 588 16<324.5 344> 606 16<665.5 666>
VStem: -31 40<56.5 145> 290 52<437.5 471> 353 47<544.5 582.5> 651 52<513.5 543> 656 64<46.5 187> 675 47<568.5 600.5> 821 15<98 98> 1060 29<305 311 271 334.5>
LayerCount: 2
Fore
SplineSet
-31 118 m 0xff9c
 -31 172 4 213 58 213 c 0
 90 213 117 190 117 158 c 0
 117 137 108 123 89 114 c 2
 37 99 l 2
 18 93 9 82 9 67 c 0
 9 46 25 31 58 20 c 0
 82 12 107 7 133 7 c 0
 180 7 220 23 253 56 c 0
 280 83 315 141 356 232 c 0
 412 355 475 460 546 547 c 1
 487 497 436 460 394 436 c 0
 372 424 352 417 336 417 c 0
 312 417 290 437 290 461 c 0
 290 481 300 505 321 534 c 0
 342 563 353 578 353 579 c 0
 353 586 348 588 340 588 c 0
 300 588 234 532 143 417 c 1
 130 426 l 1
 226 544 299 604 350 604 c 0
 378 604 400 584 400 556 c 0
 400 533 390 508 371 481 c 0
 352 454 342 440 342 439 c 0
 342 436 344 434 349 434 c 0
 367 434 410 460 477 511 c 0
 551 567 611 621 657 673 c 1
 669 664 l 1
 655 648 641 631 629 611 c 1
 645 619 659 622 672 622 c 0
 700 622 722 602 722 574 c 0xff9c
 722 563 720 553 716 540 c 0
 713 530 703 516 703 515 c 0xffcc
 703 512 707 509 710 510 c 0
 760 522 866 621 912 673 c 1
 924 664 l 1
 879 613 843 544 816 456 c 2
 749 239 l 2
 737 195 720 91 720 68 c 0
 720 25 742 4 786 4 c 0
 876 4 969 65 1042 224 c 0
 1056 255 1060 293 1060 317 c 0
 1060 352 1044 369 1012 369 c 0
 979 369 931 340 898 299 c 0
 862 255 856 217 846 164 c 0
 844 153 840 131 836 98 c 1
 821 98 l 1
 827 180 836 238 884 309 c 0
 916 357 971 384 1012 384 c 0
 1063 384 1089 338 1089 284 c 0
 1089 258 1078 205 1040 152 c 0
 967 51 869 -11 787 -11 c 0
 685 -11 656 60 656 136 c 0xffac
 656 238 713 450 801 547 c 1
 779 531 775 522 755 512 c 0
 734 501 713 493 697 493 c 0
 673 493 651 513 651 537 c 0xffcc
 651 549 655 560 660 573 c 0
 664 583 675 596 675 597 c 0
 675 604 670 606 662 606 c 0
 649 606 634 600 616 589 c 1
 595 551 532 476 516 426 c 2
 454 239 l 1
 399 104 320 -8 143 -8 c 0
 49 -8 -31 31 -31 118 c 0xff9c
EndSplineSet
Validated: 1
EndChar

